<svg width="141" height="112" viewBox="0 0 141 112" fill="none" xmlns="http://www.w3.org/2000/svg">
<path fill-rule="evenodd" clip-rule="evenodd" d="M36.03 75.04H86.99C87.2783 75.04 87.5594 75.0089 87.83 74.9498C88.1006 75.0089 88.3817 75.04 88.67 75.04H117.79C119.955 75.04 121.71 73.285 121.71 71.12C121.71 68.9551 119.955 67.2 117.79 67.2H114.43C112.265 67.2 110.51 65.445 110.51 63.28C110.51 61.1151 112.265 59.36 114.43 59.36H125.07C127.235 59.36 128.99 57.605 128.99 55.44C128.99 53.2751 127.235 51.52 125.07 51.52H112.75C114.915 51.52 116.67 49.765 116.67 47.6C116.67 45.4351 114.915 43.68 112.75 43.68H76.91C79.0749 43.68 80.83 41.925 80.83 39.76C80.83 37.5951 79.0749 35.84 76.91 35.84H44.99C42.825 35.84 41.07 37.5951 41.07 39.76C41.07 41.925 42.825 43.68 44.99 43.68H22.59C20.425 43.68 18.67 45.4351 18.67 47.6C18.67 49.765 20.425 51.52 22.59 51.52H36.59C38.7549 51.52 40.51 53.2751 40.51 55.44C40.51 57.605 38.7549 59.36 36.59 59.36H14.19C12.025 59.36 10.27 61.1151 10.27 63.28C10.27 65.445 12.025 67.2 14.19 67.2H36.03C33.865 67.2 32.11 68.9551 32.11 71.12C32.11 73.285 33.865 75.04 36.03 75.04ZM127.31 75.04C129.475 75.04 131.23 73.285 131.23 71.12C131.23 68.955 129.475 67.2 127.31 67.2C125.145 67.2 123.39 68.955 123.39 71.12C123.39 73.285 125.145 75.04 127.31 75.04Z" fill="#B2CBE2"/>
<path fill-rule="evenodd" clip-rule="evenodd" d="M52.27 78.4C45.4659 78.4 39.95 73.0095 39.95 66.36C39.95 59.7105 45.4659 54.32 52.27 54.32C52.5594 54.32 52.8464 54.3297 53.1307 54.3489C52.9331 53.2492 52.83 52.1166 52.83 50.96C52.83 40.4445 61.3545 31.92 71.87 31.92C80.265 31.92 87.391 37.3531 89.9236 44.8949C90.5237 44.8322 91.133 44.8 91.75 44.8C101.183 44.8 108.83 52.3216 108.83 61.6C108.83 70.4147 101.928 77.6873 93.15 78.3878V78.4H61.5144H52.27ZM58.9878 78.4H55.0876Z" fill="white"/>
<path d="M58.9878 78.4H55.0876M52.27 78.4C45.4659 78.4 39.95 73.0095 39.95 66.36C39.95 59.7105 45.4659 54.32 52.27 54.32C52.5594 54.32 52.8464 54.3297 53.1307 54.3489C52.9331 53.2492 52.83 52.1166 52.83 50.96C52.83 40.4445 61.3545 31.92 71.87 31.92C80.265 31.92 87.391 37.3531 89.9236 44.8949C90.5237 44.8322 91.133 44.8 91.75 44.8C101.183 44.8 108.83 52.3216 108.83 61.6C108.83 70.4147 101.928 77.6873 93.15 78.3878V78.4H61.5144H52.27Z" stroke="#00539F" stroke-width="1.4" stroke-linecap="round"/>
<path fill-rule="evenodd" clip-rule="evenodd" d="M66.0529 36.0319C66.0529 54.0768 82.3044 68.9461 103.23 70.9536C100.608 74.1783 96.5579 76.3658 91.9443 76.7095V76.72H54.3661C49.8068 76.72 42.19 74.7991 42.19 66.3871C42.19 57.9751 48.1115 56.0542 54.3661 56.0542C54.6321 56.0542 54.8959 56.0625 55.1573 56.079C54.9757 55.1352 54.9438 54.1623 54.8809 53.1706C54.4561 46.4712 57.3788 38.0279 66.063 35.28C66.0561 35.5305 66.0529 35.7809 66.0529 36.0319ZM71.9351 64.2645C70.2335 64.2645 68.854 65.6276 68.854 67.3092C68.854 68.9907 70.2335 70.3539 71.9351 70.3539C73.6368 70.3539 75.0163 68.9907 75.0163 67.3092C75.0163 65.6276 73.6368 64.2645 71.9351 64.2645Z" fill="#EEF2F6"/>
<path d="M72.15 70.56C73.851 70.56 75.23 69.1811 75.23 67.48C75.23 65.779 73.851 64.4 72.15 64.4C70.449 64.4 69.07 65.779 69.07 67.48C69.07 69.1811 70.449 70.56 72.15 70.56Z" stroke="#00539F" stroke-width="1.4"/>
<path d="M63.47 61.04L67.39 57.9638L63.47 55.0355" stroke="#00539F" stroke-width="1.4" stroke-linecap="round" stroke-linejoin="round"/>
<path d="M80.83 61.04L76.91 57.9638L80.83 55.0355" stroke="#00539F" stroke-width="1.4" stroke-linecap="round" stroke-linejoin="round"/>
<path d="M77.4701 37.52C81.1151 38.4847 83.9931 41.3352 84.9966 44.9642" stroke="#00539F" stroke-width="1.4" stroke-linecap="round"/>
<path d="M89.23 28C90.1578 28 90.91 27.2479 90.91 26.32C90.91 25.3922 90.1578 24.64 89.23 24.64C88.3021 24.64 87.55 25.3922 87.55 26.32C87.55 27.2479 88.3021 28 89.23 28Z" stroke="#00539F" stroke-width="1.12"/>
<path d="M106.59 36.96C107.518 36.96 108.27 36.2078 108.27 35.28C108.27 34.3521 107.518 33.6 106.59 33.6C105.662 33.6 104.91 34.3521 104.91 35.28C104.91 36.2078 105.662 36.96 106.59 36.96Z" fill="#00539F"/>
<path d="M93.5741 32.3441L98.2547 37.0247M98.3259 32.3441L93.6453 37.0247L98.3259 32.3441Z" stroke="#00539F" stroke-width="1.4" stroke-linecap="round" stroke-linejoin="round"/>
<path d="M40.7361 42.3339L44.0961 45.6939M44.0961 42.3339L40.7361 45.6939L44.0961 42.3339Z" stroke="#00539F" stroke-width="1.4" stroke-linecap="round" stroke-linejoin="round"/>
<path d="M48.35 38.64C49.2778 38.64 50.03 37.8879 50.03 36.96C50.03 36.0322 49.2778 35.28 48.35 35.28C47.4221 35.28 46.67 36.0322 46.67 36.96C46.67 37.8879 47.4221 38.64 48.35 38.64Z" fill="#00539F"/>
</svg>
