<svg width="20" height="20" viewBox="0 0 20 20" fill="none" xmlns="http://www.w3.org/2000/svg">
<path d="M15.8327 8.95768H14.166C12.1493 8.95768 11.041 7.84935 11.041 5.83268V4.16602C11.041 2.14935 12.1493 1.04102 14.166 1.04102H15.8327C17.8493 1.04102 18.9577 2.14935 18.9577 4.16602V5.83268C18.9577 7.84935 17.8493 8.95768 15.8327 8.95768ZM14.166 2.29102C12.8493 2.29102 12.291 2.84935 12.291 4.16602V5.83268C12.291 7.14935 12.8493 7.70768 14.166 7.70768H15.8327C17.1493 7.70768 17.7077 7.14935 17.7077 5.83268V4.16602C17.7077 2.84935 17.1493 2.29102 15.8327 2.29102H14.166Z" fill="#6F6F6F"/>
<path d="M5.83268 18.9577H4.16602C2.14935 18.9577 1.04102 17.8493 1.04102 15.8327V14.166C1.04102 12.1493 2.14935 11.041 4.16602 11.041H5.83268C7.84935 11.041 8.95768 12.1493 8.95768 14.166V15.8327C8.95768 17.8493 7.84935 18.9577 5.83268 18.9577ZM4.16602 12.291C2.84935 12.291 2.29102 12.8493 2.29102 14.166V15.8327C2.29102 17.1493 2.84935 17.7077 4.16602 17.7077H5.83268C7.14935 17.7077 7.70768 17.1493 7.70768 15.8327V14.166C7.70768 12.8493 7.14935 12.291 5.83268 12.291H4.16602Z" fill="#6F6F6F"/>
<path d="M4.99935 8.95768C2.81602 8.95768 1.04102 7.18268 1.04102 4.99935C1.04102 2.81602 2.81602 1.04102 4.99935 1.04102C7.18268 1.04102 8.95768 2.81602 8.95768 4.99935C8.95768 7.18268 7.18268 8.95768 4.99935 8.95768ZM4.99935 2.29102C3.50768 2.29102 2.29102 3.50768 2.29102 4.99935C2.29102 6.49102 3.50768 7.70768 4.99935 7.70768C6.49102 7.70768 7.70768 6.49102 7.70768 4.99935C7.70768 3.50768 6.49102 2.29102 4.99935 2.29102Z" fill="#6F6F6F"/>
<path d="M14.9993 18.9577C12.816 18.9577 11.041 17.1827 11.041 14.9993C11.041 12.816 12.816 11.041 14.9993 11.041C17.1827 11.041 18.9577 12.816 18.9577 14.9993C18.9577 17.1827 17.1827 18.9577 14.9993 18.9577ZM14.9993 12.291C13.5077 12.291 12.291 13.5077 12.291 14.9993C12.291 16.491 13.5077 17.7077 14.9993 17.7077C16.491 17.7077 17.7077 16.491 17.7077 14.9993C17.7077 13.5077 16.491 12.291 14.9993 12.291Z" fill="#6F6F6F"/>
</svg>
