<svg width="24" height="25" viewBox="0 0 24 25" fill="none" xmlns="http://www.w3.org/2000/svg">
<path d="M21.4155 15.8411C18.5924 17.8495 14.8895 18.0726 11.877 16.5M2.58445 9.15889C5.41439 7.14566 9.12844 6.92638 12.1448 8.51149M15.3737 14.6243C18.2604 12.805 19.9319 9.47413 19.601 6.01222M8.58184 10.4037C5.72231 12.2291 4.06959 15.5436 4.39878 18.9878M15.5269 10.637C15.3939 7.22851 13.345 4.11684 10.1821 2.67222M8.47562 14.4256C8.63112 17.8096 10.6743 20.892 13.8177 22.3278M19.071 5.42893C22.9763 9.33418 22.9763 15.6658 19.071 19.571C15.1658 23.4763 8.83416 23.4763 4.92893 19.571C1.02369 15.6658 1.02369 9.33416 4.92893 5.42893C8.83418 1.52369 15.1658 1.52369 19.071 5.42893ZM14.8284 9.67157C16.3905 11.2337 16.3905 13.7663 14.8284 15.3284C13.2663 16.8905 10.7337 16.8905 9.17157 15.3284C7.60948 13.7663 7.60948 11.2337 9.17157 9.67157C10.7337 8.10948 13.2663 8.10948 14.8284 9.67157Z" stroke="#334155" stroke-width="2" stroke-linecap="round" stroke-linejoin="round"/>
</svg>
