<svg width="20" height="20" viewBox="0 0 20 20" fill="none" xmlns="http://www.w3.org/2000/svg">
<path d="M6.04934 15.7425C5.98268 15.7425 5.91602 15.7341 5.84935 15.7258C5.34935 15.6591 4.92435 15.3424 4.71602 14.8924L3.66601 12.5841C1.99934 11.3508 1.04102 9.50912 1.04102 7.50911C1.04102 3.95078 4.12435 1.05078 7.91602 1.05078C10.591 1.05078 13.0327 2.51744 14.141 4.79244C14.566 5.63411 14.791 6.55078 14.791 7.50911C14.791 10.9758 11.866 13.8174 8.21602 13.9591L7.16602 15.2258C6.88269 15.5508 6.47434 15.7425 6.04934 15.7425ZM7.91602 2.29244C4.81602 2.29244 2.29102 4.62577 2.29102 7.50077C2.29102 9.14244 3.10768 10.6591 4.52434 11.6591C4.61601 11.7258 4.69101 11.8091 4.73268 11.9091L5.84935 14.3674C5.89102 14.4591 5.97435 14.4841 6.01602 14.4841C6.05768 14.4924 6.14102 14.4841 6.19935 14.4174L7.43268 12.9341C7.54935 12.7925 7.72435 12.7091 7.91602 12.7091C11.016 12.7091 13.541 10.3758 13.541 7.50077C13.541 6.74244 13.366 6.01742 13.0244 5.34242C12.1244 3.48408 10.116 2.29244 7.91602 2.29244Z" fill="#6F6F6F"/>
<path d="M13.9494 18.9576C13.5161 18.9576 13.1161 18.7659 12.8327 18.4326L11.7827 17.1743C9.76608 17.0909 7.86608 16.1659 6.64941 14.6659C6.45775 14.4326 6.46609 14.0993 6.65775 13.8743L7.43275 12.941C7.54941 12.7993 7.72442 12.716 7.91608 12.716C11.0161 12.716 13.5411 10.3826 13.5411 7.50762C13.5411 6.74928 13.3661 6.02426 13.0244 5.34926C12.9161 5.1326 12.9411 4.87427 13.0911 4.68261C13.2411 4.49094 13.4911 4.40759 13.7244 4.45759C16.8078 5.16592 18.9578 7.74094 18.9578 10.7243C18.9578 12.7243 17.9994 14.566 16.3328 15.7993L15.2827 18.1076C15.0661 18.5743 14.6411 18.8909 14.1328 18.9493C14.0744 18.9576 14.0078 18.9576 13.9494 18.9576ZM7.96608 14.2493C9.00775 15.3076 10.5078 15.9243 12.0828 15.9243C12.2661 15.9243 12.4411 16.0076 12.5661 16.1493L13.7994 17.6326C13.8577 17.7076 13.9327 17.7159 13.9827 17.7076C14.0161 17.7076 14.1078 17.6826 14.1578 17.5826L15.2744 15.1243C15.3244 15.0243 15.3911 14.9326 15.4828 14.8743C16.8994 13.8743 17.7161 12.3576 17.7161 10.7159C17.7161 8.71593 16.4911 6.94097 14.6244 6.06597C14.7411 6.53263 14.7994 7.00761 14.7994 7.49928C14.7994 10.9659 11.8744 13.8076 8.22441 13.9493L7.96608 14.2493Z" fill="#6F6F6F"/>
<path d="M10.0007 8.125H5.83398C5.49232 8.125 5.20898 7.84167 5.20898 7.5C5.20898 7.15833 5.49232 6.875 5.83398 6.875H10.0007C10.3423 6.875 10.6257 7.15833 10.6257 7.5C10.6257 7.84167 10.3423 8.125 10.0007 8.125Z" fill="#6F6F6F"/>
</svg>
