<svg width="16" height="17" viewBox="0 0 16 17" fill="none" xmlns="http://www.w3.org/2000/svg">
<rect width="16" height="16" transform="translate(0 0.5)" fill="white"/>
<path d="M8.00065 8.50065H7.50065C7.50065 8.71587 7.63837 8.90694 7.84254 8.97499L8.00065 8.50065ZM8.50065 5.16732C8.50065 4.89118 8.27679 4.66732 8.00065 4.66732C7.72451 4.66732 7.50065 4.89118 7.50065 5.16732H8.50065ZM9.84254 9.64166C10.1045 9.72898 10.3877 9.5874 10.475 9.32543C10.5623 9.06346 10.4207 8.7803 10.1588 8.69298L9.84254 9.64166ZM8.50065 8.50065V5.16732H7.50065V8.50065H8.50065ZM7.84254 8.97499L9.84254 9.64166L10.1588 8.69298L8.15876 8.02631L7.84254 8.97499ZM14.1673 8.50065C14.1673 11.9064 11.4064 14.6673 8.00065 14.6673V15.6673C11.9587 15.6673 15.1673 12.4587 15.1673 8.50065H14.1673ZM8.00065 14.6673C4.59489 14.6673 1.83398 11.9064 1.83398 8.50065H0.833984C0.833984 12.4587 4.04261 15.6673 8.00065 15.6673V14.6673ZM1.83398 8.50065C1.83398 5.09489 4.59489 2.33398 8.00065 2.33398V1.33398C4.04261 1.33398 0.833984 4.54261 0.833984 8.50065H1.83398ZM8.00065 2.33398C11.4064 2.33398 14.1673 5.09489 14.1673 8.50065H15.1673C15.1673 4.54261 11.9587 1.33398 8.00065 1.33398V2.33398Z" fill="#8B96A5"/>
</svg>
