<svg width="24" height="24" viewBox="0 0 24 24" fill="none" xmlns="http://www.w3.org/2000/svg">
<path d="M20.227 14.0365C18.9797 15.5365 17.1954 17.0523 15.127 18.8207C14.4323 19.4207 13.627 20.0996 12.7902 20.826C12.3323 21.2207 11.6533 21.2207 11.2112 20.826C10.3744 20.0996 9.58491 19.4207 8.87439 18.8207C6.80597 17.0523 5.02176 15.5365 3.77439 14.0365C2.4007 12.3628 1.73754 10.7681 1.73754 9.03122C1.70597 7.4207 2.29018 5.85754 3.36386 4.65754C4.42176 3.50491 5.90597 2.85754 7.46912 2.87333C8.63754 2.87333 9.77439 3.26807 10.6902 3.99438C11.1954 4.38912 11.6218 4.84701 11.9849 5.36807C12.3481 4.84701 12.7902 4.38912 13.2796 3.99438C14.1954 3.26807 15.3323 2.87333 16.5165 2.88912C18.0796 2.87333 19.5639 3.5207 20.6218 4.67333C21.6954 5.87333 22.2796 7.43649 22.2481 9.04701C22.2639 10.7681 21.6007 12.3628 20.227 14.0365Z" fill="url(#paint0_linear_2293_17386)"/>
<defs>
<linearGradient id="paint0_linear_2293_17386" x1="5.40797" y1="2.60554" x2="18.5827" y2="15.7803" gradientUnits="userSpaceOnUse">
<stop stop-color="#EF5350"/>
<stop offset="1" stop-color="#C62828"/>
</linearGradient>
</defs>
</svg>
