<svg width="24" height="24" viewBox="0 0 24 24" fill="none" xmlns="http://www.w3.org/2000/svg">
<g clip-path="url(#clip0_2293_17374)">
<path d="M12.0009 23.9979C18.6267 23.9979 23.9979 18.6267 23.9979 12.0009C23.9979 5.37515 18.6267 0.00390625 12.0009 0.00390625C5.37515 0.00390625 0.00390625 5.37515 0.00390625 12.0009C0.00390625 18.6267 5.37515 23.9979 12.0009 23.9979Z" fill="url(#paint0_linear_2293_17374)"/>
<path d="M13.4281 6.31267L10.8664 8.87437C10.607 9.13377 10.607 9.55407 10.8664 9.81357C11.1258 10.0731 11.5461 10.073 11.8056 9.81357L14.3673 7.25187C15.0234 6.59547 16.0916 6.59547 16.749 7.25187C17.4054 7.90857 17.4054 8.97717 16.749 9.63357L14.1873 12.1953C13.9279 12.4547 13.9279 12.875 14.1873 13.1345C14.317 13.2642 14.487 13.3291 14.6569 13.3291C14.8268 13.3291 14.9968 13.2642 15.1265 13.1345L17.6882 10.5728C18.8625 9.39847 18.8625 7.48727 17.6882 6.31267C16.5132 5.13767 14.6018 5.13827 13.4281 6.31267Z" fill="#FFF8F8"/>
<path d="M8.44237 18.569C9.21387 18.569 9.98537 18.2755 10.5724 17.6882L13.1341 15.1265C13.3935 14.8671 13.3935 14.4468 13.1341 14.1873C12.8747 13.9279 12.4544 13.9279 12.1949 14.1873L9.63317 16.749C8.97707 17.4051 7.90887 17.4057 7.25147 16.749C6.59507 16.0923 6.59507 15.0237 7.25147 14.3673L9.81317 11.8056C10.0726 11.5462 10.0726 11.1259 9.81317 10.8664C9.55377 10.607 9.13347 10.607 8.87397 10.8664L6.31237 13.4281C5.13807 14.6024 5.13807 16.5136 6.31237 17.6882C6.89967 18.2755 7.67117 18.569 8.44237 18.569Z" fill="#FFF8F8"/>
<path d="M15.1268 8.87424C14.8674 8.61484 14.4471 8.61484 14.1876 8.87424L8.87424 14.1876C8.61484 14.447 8.61484 14.8673 8.87424 15.1268C9.00394 15.2565 9.17394 15.3214 9.34384 15.3214C9.51374 15.3214 9.68374 15.2565 9.81344 15.1268L15.1268 9.81344C15.3863 9.55404 15.3863 9.13374 15.1268 8.87424Z" fill="#FFF8F8"/>
</g>
<defs>
<linearGradient id="paint0_linear_2293_17374" x1="16.7949" y1="21.7059" x2="7.04191" y2="1.96091" gradientUnits="userSpaceOnUse">
<stop offset="0.0026" stop-color="#4A65FF"/>
<stop offset="1" stop-color="#0BB3FF"/>
</linearGradient>
<clipPath id="clip0_2293_17374">
<rect width="24" height="24" fill="white"/>
</clipPath>
</defs>
</svg>
