<svg width="16" height="17" viewBox="0 0 16 17" fill="none" xmlns="http://www.w3.org/2000/svg">
<path d="M4 14.6673C3.72386 14.6673 3.5 14.8912 3.5 15.1673C3.5 15.4435 3.72386 15.6673 4 15.6673V14.6673ZM12 15.6673C12.2761 15.6673 12.5 15.4435 12.5 15.1673C12.5 14.8912 12.2761 14.6673 12 14.6673V15.6673ZM12.5 6.83398C12.5 7.97163 11.7732 9.44305 10.7698 10.6652C10.2765 11.2661 9.73812 11.7792 9.23099 12.1376C8.70828 12.5069 8.28179 12.6673 8 12.6673V13.6673C8.59321 13.6673 9.22922 13.3633 9.80808 12.9543C10.4025 12.5342 11.0047 11.955 11.5427 11.2998C12.6018 10.0098 13.5 8.31458 13.5 6.83398H12.5ZM8 12.6673C7.72831 12.6673 7.30632 12.5002 6.78066 12.1056C6.27267 11.7242 5.73288 11.1792 5.23786 10.5452C4.23117 9.25575 3.5 7.7173 3.5 6.57472H2.5C2.5 8.05039 3.39383 9.80823 4.44964 11.1606C4.98587 11.8474 5.58671 12.4596 6.18027 12.9053C6.75618 13.3376 7.39669 13.6673 8 13.6673V12.6673ZM3.5 6.57472C3.5 4.15438 5.65238 2.33398 8 2.33398V1.33398C5.19296 1.33398 2.5 3.51359 2.5 6.57472H3.5ZM8 2.33398C10.3292 2.33398 12.5 4.13734 12.5 6.83398H13.5C13.5 3.53063 10.8254 1.33398 8 1.33398V2.33398ZM9.5 6.50065C9.5 7.32908 8.82843 8.00065 8 8.00065V9.00065C9.38071 9.00065 10.5 7.88136 10.5 6.50065H9.5ZM8 8.00065C7.17157 8.00065 6.5 7.32908 6.5 6.50065H5.5C5.5 7.88136 6.61929 9.00065 8 9.00065V8.00065ZM6.5 6.50065C6.5 5.67222 7.17157 5.00065 8 5.00065V4.00065C6.61929 4.00065 5.5 5.11994 5.5 6.50065H6.5ZM8 5.00065C8.82843 5.00065 9.5 5.67222 9.5 6.50065H10.5C10.5 5.11994 9.38071 4.00065 8 4.00065V5.00065ZM4 15.6673H12V14.6673H4V15.6673Z" fill="#8B96A5"/>
</svg>
