<svg width="24" height="24" viewBox="0 0 24 24" fill="none" xmlns="http://www.w3.org/2000/svg">
<path fill-rule="evenodd" clip-rule="evenodd" d="M15.636 1.5H8.52398C5.59025 1.5 3.75 3.58517 3.75 6.93072V20.7392C3.75 21.7117 4.50624 22.5 5.43912 22.5C5.72155 22.4998 5.99952 22.4266 6.24811 22.2868L12.0356 19.0154L18.7742 22.3054C18.957 22.3854 19.1627 22.3864 19.3461 22.3081C19.5295 22.2299 19.6756 22.0789 19.7522 21.8883C19.8651 21.5372 19.7282 21.1515 19.4232 20.9616L12.729 17.6995C12.2916 17.4489 11.7617 17.4489 11.3244 17.6995L5.52802 20.9616C5.46155 20.9995 5.38113 20.9995 5.31466 20.9616C5.25145 20.9192 5.21431 20.8453 5.21686 20.767V6.93072C5.22575 4.45631 6.41703 3.04766 8.55065 3.04766H15.6627C18.4009 3.04766 18.8009 5.36452 18.8009 6.75463V7.38482H11.1021C10.9064 7.39206 10.7214 7.48013 10.588 7.62963C10.4546 7.77912 10.3837 7.97778 10.3909 8.18182C10.4003 8.58716 10.7133 8.91344 11.1021 8.92321H18.7742V17.0322C18.7742 17.457 19.1046 17.8014 19.5121 17.8014C19.9162 17.8014 20.2451 17.4627 20.25 17.0415V6.75463C20.25 3.51103 18.4898 1.5 15.636 1.5Z" fill="#204D94"/>
</svg>
