<svg width="20" height="20" viewBox="0 0 20 20" fill="none" xmlns="http://www.w3.org/2000/svg">
<path d="M15.2003 7.47867L14.455 7.56325L15.2003 7.47867ZM15.5729 10.7621L16.3181 10.6775L15.5729 10.7621ZM4.42838 10.7621L3.68317 10.6775L4.42838 10.7621ZM4.80104 7.47867L5.54625 7.56325L4.80104 7.47867ZM3.70714 12.3928L3.13603 11.9066H3.13603L3.70714 12.3928ZM16.2942 12.3928L15.7231 12.8789L16.2942 12.3928ZM11.8923 3.64407H11.1423C11.1423 3.96465 11.346 4.24978 11.6493 4.35363L11.8923 3.64407ZM8.10903 3.64407L8.35197 4.35363C8.65527 4.24978 8.85903 3.96465 8.85903 3.64407H8.10903ZM13.203 16.9292C13.3483 16.5414 13.1517 16.1091 12.7639 15.9637C12.376 15.8184 11.9437 16.0149 11.7984 16.4028L13.203 16.9292ZM8.20295 16.4028C8.05759 16.0149 7.62532 15.8184 7.23745 15.9637C6.84958 16.1091 6.65299 16.5414 6.79835 16.9292L8.20295 16.4028ZM14.815 14.2493H5.18633V15.7493H14.815V14.2493ZM14.455 7.56325L14.8277 10.8466L16.3181 10.6775L15.9455 7.39409L14.455 7.56325ZM5.1736 10.8466L5.54625 7.56325L4.05582 7.39409L3.68317 10.6775L5.1736 10.8466ZM4.27825 12.8789C4.77462 12.2958 5.08881 11.5937 5.1736 10.8466L3.68317 10.6775C3.63372 11.1131 3.44909 11.5389 3.13603 11.9066L4.27825 12.8789ZM14.8277 10.8466C14.9125 11.5937 15.2267 12.2958 15.7231 12.8789L16.8653 11.9066C16.5522 11.5389 16.3676 11.1131 16.3181 10.6775L14.8277 10.8466ZM5.18633 14.2493C4.68366 14.2493 4.33997 14.002 4.18483 13.7286C4.03709 13.4683 4.03791 13.1613 4.27825 12.8789L3.13603 11.9066C2.46218 12.6983 2.44077 13.6945 2.88026 14.469C3.31234 15.2304 4.16535 15.7493 5.18633 15.7493V14.2493ZM14.815 15.7493C15.8359 15.7493 16.689 15.2304 17.121 14.469C17.5605 13.6945 17.5391 12.6983 16.8653 11.9066L15.7231 12.8789C15.9634 13.1613 15.9642 13.4683 15.8165 13.7286C15.6613 14.002 15.3176 14.2493 14.815 14.2493V15.7493ZM12.6423 3.64407V3.55764H11.1423V3.64407H12.6423ZM15.9455 7.39409C15.7064 5.28784 14.1458 3.62291 12.1352 2.93451L11.6493 4.35363C13.2094 4.88777 14.2922 6.12858 14.455 7.56325L15.9455 7.39409ZM8.85903 3.64407V3.55764H7.35903V3.64407H8.85903ZM5.54625 7.56325C5.70908 6.12858 6.79191 4.88777 8.35197 4.35363L7.86608 2.93451C5.85548 3.62291 4.29488 5.28784 4.05582 7.39409L5.54625 7.56325ZM10.0007 2.41602C10.6312 2.41602 11.1423 2.92714 11.1423 3.55764H12.6423C12.6423 2.09871 11.4596 0.916016 10.0007 0.916016V2.41602ZM10.0007 0.916016C8.54172 0.916016 7.35903 2.09871 7.35903 3.55764H8.85903C8.85903 2.92714 9.37015 2.41602 10.0007 2.41602V0.916016ZM11.7984 16.4028C11.5484 17.0697 10.8544 17.5827 10.0007 17.5827V19.0827C11.4553 19.0827 12.7251 18.2043 13.203 16.9292L11.7984 16.4028ZM10.0007 17.5827C9.14691 17.5827 8.45289 17.0697 8.20295 16.4028L6.79835 16.9292C7.27622 18.2043 8.54601 19.0827 10.0007 19.0827V17.5827Z" fill="#6F6F6F"/>
</svg>
