<svg width="20" height="20" viewBox="0 0 20 20" fill="none" xmlns="http://www.w3.org/2000/svg">
<path d="M9.13167 12.98C9.00167 13.42 8.54333 13.6742 8.095 13.5408C7.63417 13.4033 7.15417 13.3333 6.66667 13.3333C3.90917 13.3333 1.66667 15.5758 1.66667 18.3333V19.1667C1.66667 19.6267 1.29417 20 0.833333 20C0.3725 20 0 19.6267 0 19.1667V18.3333C0 14.6575 2.99083 11.6667 6.66667 11.6667C7.315 11.6667 7.95667 11.76 8.57167 11.9433C9.0125 12.075 9.26333 12.5392 9.13167 12.98ZM20 12.03V14.6008C20 17.9608 16.6892 19.5525 15.7283 19.9392C15.6283 19.9792 15.5225 19.9992 15.4175 19.9992C15.29 19.9992 15.1617 19.97 15.0317 19.905C14.0958 19.4367 10.8333 17.575 10.8333 14.6008V12.03C10.8333 10.9508 11.5217 9.9975 12.5458 9.65667L15.155 8.79167C15.3242 8.73583 15.51 8.73583 15.6792 8.79167L18.2875 9.65667C19.3117 9.99667 20 10.9508 20 12.03ZM18.3333 12.03C18.3333 11.67 18.1042 11.3525 17.7617 11.2392L15.4167 10.4617L13.0708 11.2392C12.73 11.3525 12.5 11.6708 12.5 12.03V14.6008C12.5 16.5008 14.6917 17.8408 15.4542 18.25C16.3133 17.8717 18.3333 16.7533 18.3333 14.6008V12.03ZM11.6667 5C11.6667 7.7575 9.42417 10 6.66667 10C3.90917 10 1.66667 7.7575 1.66667 5C1.66667 2.2425 3.90917 0 6.66667 0C9.42417 0 11.6667 2.2425 11.6667 5ZM10 5C10 3.16167 8.505 1.66667 6.66667 1.66667C4.82833 1.66667 3.33333 3.16167 3.33333 5C3.33333 6.83833 4.82833 8.33333 6.66667 8.33333C8.505 8.33333 10 6.83833 10 5Z" fill="#204D94"/>
</svg>
