<svg width="24" height="24" viewBox="0 0 24 24" fill="none" xmlns="http://www.w3.org/2000/svg">
<path fill-rule="evenodd" clip-rule="evenodd" d="M9.11562 6.61819C8.2382 7.09729 7.16194 7.09041 6.29122 6.60013L6.25288 6.56324C5.86109 6.32894 5.74091 5.83344 5.98446 5.45652C6.228 5.0796 6.74304 4.96398 7.13483 5.19829C7.30971 5.29646 7.50759 5.3504 7.71001 5.35507C8.02026 5.36756 8.32294 5.26083 8.55132 5.05841C8.7797 4.856 8.91503 4.57452 8.92748 4.27602C8.92159 2.77622 10.1589 1.54498 11.7171 1.5H13.0305C14.6188 1.5 15.9064 2.73874 15.9064 4.2668C15.9038 4.46129 15.9569 4.65273 16.0598 4.82016C16.2125 5.07937 16.4666 5.26908 16.7655 5.34703C17.0644 5.42499 17.3833 5.38471 17.6511 5.23518C19.0007 4.52839 20.6893 4.96703 21.4857 6.23123C21.7058 6.61702 21.5705 7.10116 21.1789 7.32872C20.7811 7.54724 20.2746 7.42032 20.0381 7.04282C19.7132 6.51046 19.0031 6.32939 18.4468 6.63702C17.5665 7.10078 16.4985 7.08945 15.629 6.60715C14.7595 6.12484 14.2143 5.24133 14.1904 4.27602C14.2008 3.97372 14.0832 3.6803 13.8645 3.46297C13.6459 3.24565 13.3449 3.12302 13.0305 3.12319H11.7171C11.4019 3.1231 11.1 3.24543 10.8798 3.46246C10.6596 3.67949 10.5398 3.97284 10.5476 4.27602C10.5387 5.24659 9.99303 6.1391 9.11562 6.61819ZM10.5476 19.7609C10.5529 20.3787 11.0749 20.8768 11.7171 20.8768L11.7075 20.8953C12.0055 20.8953 12.2808 21.0482 12.4298 21.2964C12.5788 21.5447 12.5788 21.8506 12.4298 22.0988C12.2808 22.3471 12.0055 22.5 11.7075 22.5C10.1192 22.5 8.83162 21.2613 8.83162 19.7332C8.8342 19.5387 8.78114 19.3473 8.67824 19.1798C8.35659 18.6441 7.64573 18.4587 7.08689 18.7648C5.73736 19.4716 4.0487 19.033 3.25233 17.7688L2.60045 16.6713C1.86579 15.373 2.32172 13.7484 3.63578 12.9822C3.80995 12.8836 3.95512 12.744 4.05759 12.5764C4.24985 12.3186 4.31894 11.9942 4.24759 11.6845C4.17623 11.3747 3.97118 11.1088 3.68372 10.9532C2.36966 10.1871 1.91372 8.56249 2.64838 7.26416C2.77131 7.08638 2.96283 6.96306 3.18054 6.92152C3.39824 6.87998 3.62418 6.92363 3.80834 7.04282C4.17212 7.2808 4.27759 7.75164 4.048 8.11265C3.73071 8.64752 3.92377 9.32855 4.47939 9.63439C4.89683 9.88048 5.24044 10.2269 5.47638 10.6397C6.21104 11.938 5.7551 13.5626 4.44104 14.3287C3.88543 14.6346 3.69236 15.3156 4.00965 15.8505L4.67112 16.948C4.82162 17.2095 5.07651 17.4006 5.37687 17.4772C5.67723 17.5538 5.99706 17.5092 6.26246 17.3538C6.69039 17.115 7.17698 16.9908 7.67166 16.9941C9.25999 16.9941 10.5476 18.2328 10.5476 19.7609ZM21.1022 12.973C20.8344 12.8245 20.6393 12.5794 20.5601 12.292C20.4809 12.0046 20.5242 11.6986 20.6804 11.442C20.7829 11.2745 20.9281 11.1348 21.1022 11.0362C21.4957 10.8088 21.6242 10.3184 21.3898 9.93874C21.1569 9.56398 20.6598 9.43024 20.2586 9.63439C18.9446 10.4005 18.4886 12.0251 19.2233 13.3235C19.4567 13.777 19.819 14.1576 20.2682 14.4209C20.5354 14.5676 20.7304 14.8111 20.8096 15.097C20.8889 15.383 20.8458 15.6875 20.69 15.9427L20.0381 17.0402C19.8812 17.297 19.6269 17.4854 19.3287 17.5659C19.03 17.6425 18.7117 17.5993 18.4468 17.446C17.565 16.9815 16.4951 16.9938 15.625 17.4783C14.755 17.9628 14.211 18.8492 14.1904 19.8162C14.2363 20.2286 14.5981 20.5414 15.0292 20.5414C15.4604 20.5414 15.8222 20.2286 15.868 19.8162C15.8601 19.4133 16.0805 19.038 16.4433 18.8366C16.8062 18.6352 17.2542 18.6395 17.6128 18.8478C18.9623 19.5546 20.651 19.116 21.4473 17.8518L22.0992 16.7543C22.9042 15.4445 22.4588 13.7553 21.1022 12.973ZM12.369 8.53688C10.9103 8.53688 9.59532 9.38277 9.03798 10.6797C8.48064 11.9766 8.79079 13.4689 9.82366 14.4599C10.8565 15.4509 12.4084 15.7453 13.755 15.2057C15.1016 14.6661 15.9774 13.3988 15.9735 11.9954C15.9735 11.0765 15.5934 10.1954 14.9172 9.54658C14.2409 8.89772 13.3241 8.53443 12.369 8.53688ZM12.369 13.8491C11.3101 13.8491 10.4517 13.0233 10.4517 12.0046C10.4517 10.9859 11.3101 10.1601 12.369 10.1601C13.4279 10.1601 14.2863 10.9859 14.2863 12.0046C14.2863 13.0233 13.4279 13.8491 12.369 13.8491Z" fill="#204D94"/>
</svg>
