<svg width="16" height="17" viewBox="0 0 16 17" fill="none" xmlns="http://www.w3.org/2000/svg">
<circle cx="8" cy="8.5" r="7.5" stroke="#8B96A5"/>
<path d="M10.0833 6.42809C10.0321 5.99627 9.82475 5.66104 9.46112 5.42241C9.09748 5.18377 8.65146 5.06445 8.12305 5.06445C7.73668 5.06445 7.39862 5.12695 7.10884 5.25195C6.82191 5.37695 6.59748 5.54883 6.43555 5.76758C6.27646 5.98633 6.19691 6.23491 6.19691 6.51332C6.19691 6.74627 6.25231 6.94656 6.3631 7.11417C6.47674 7.27894 6.62163 7.41673 6.79776 7.52752C6.9739 7.63548 7.15856 7.72496 7.35174 7.79599C7.54492 7.86417 7.72248 7.91957 7.88441 7.96218L8.77077 8.20082C8.99805 8.26048 9.25089 8.34286 9.5293 8.44798C9.81055 8.55309 10.079 8.69656 10.3347 8.87837C10.5932 9.05735 10.8063 9.28746 10.9739 9.56871C11.1415 9.84996 11.2253 10.1951 11.2253 10.6042C11.2253 11.0758 11.1017 11.502 10.8546 11.8826C10.6103 12.2633 10.2523 12.5659 9.78072 12.7903C9.31197 13.0147 8.74237 13.127 8.07191 13.127C7.44691 13.127 6.90572 13.0261 6.44833 12.8244C5.99379 12.6227 5.63583 12.3414 5.37447 11.9806C5.11594 11.6199 4.96964 11.2008 4.93555 10.7235H6.02646C6.05487 11.0531 6.16566 11.3258 6.35884 11.5417C6.55487 11.7548 6.80202 11.9139 7.10032 12.019C7.40146 12.1213 7.72532 12.1724 8.07191 12.1724C8.47532 12.1724 8.83754 12.1071 9.15856 11.9764C9.47958 11.8429 9.73384 11.6582 9.92134 11.4224C10.1088 11.1838 10.2026 10.9054 10.2026 10.5872C10.2026 10.2974 10.1216 10.0616 9.95969 9.87979C9.79776 9.69798 9.58469 9.55025 9.32049 9.43661C9.05629 9.32298 8.77077 9.22354 8.46396 9.13832L7.39009 8.8315C6.70827 8.63548 6.1685 8.35565 5.77077 7.99201C5.37305 7.62837 5.17418 7.15252 5.17418 6.56445C5.17418 6.07582 5.30629 5.64968 5.57049 5.28604C5.83754 4.91957 6.19549 4.63548 6.64435 4.43377C7.09606 4.22923 7.60032 4.12695 8.15714 4.12695C8.71964 4.12695 9.21964 4.22781 9.65714 4.42951C10.0946 4.62837 10.4412 4.9011 10.6969 5.24769C10.9554 5.59428 11.0918 5.98775 11.106 6.42809H10.0833Z" fill="#8B96A5"/>
</svg>
