<svg width="24" height="24" viewBox="0 0 24 24" fill="none" xmlns="http://www.w3.org/2000/svg">
<rect width="24" height="24" rx="5" fill="#00A2EF"/>
<path d="M13.2304 10.4689C13.4737 10.5575 13.7427 10.432 13.8312 10.1888C13.9198 9.94553 13.7944 9.67653 13.5511 9.58797C13.3078 9.49941 13.0388 9.62488 12.9503 9.86813C12.8617 10.1114 12.9872 10.3804 13.2304 10.4689Z" fill="white"/>
<path d="M8.26594 7.66414C8.02265 7.5756 7.75369 7.70101 7.66512 7.94429C7.57656 8.18758 7.702 8.45658 7.94528 8.54511C8.18856 8.63364 8.45753 8.5082 8.54609 8.26495C8.63465 8.02167 8.50922 7.75267 8.26594 7.66414Z" fill="white"/>
<path d="M17.2867 7.98058C15.7313 6.74621 13.7879 6.01174 11.7224 5.9553C9.93837 5.90655 8.16013 5.24824 6.71522 4.10159C6.59738 4.00806 6.44188 3.97681 6.2971 4.01746C6.15229 4.05815 6.03582 4.16584 5.98391 4.30699L4.02882 9.62401C3.95901 9.81392 4.01889 10.0272 4.17738 10.153C5.7531 11.4034 7.74032 12.1227 9.773 12.1782C9.82922 12.1798 9.88534 12.1819 9.94144 12.1846C8.7875 12.5174 7.69203 13.0703 6.71325 13.8471C6.55544 13.9723 6.49532 14.1843 6.56385 14.3737L8.48769 19.6907C8.53903 19.8326 8.65544 19.9411 8.80056 19.9822C8.94509 20.0232 9.10128 19.9926 9.21988 19.8984C10.6647 18.7518 12.443 18.0935 14.2271 18.0447C16.2597 17.9892 18.2469 17.2699 19.8226 16.0194C19.9814 15.8935 20.0412 15.6797 19.9709 15.4897L18.0158 10.2039C17.9637 10.063 17.8472 9.95558 17.7025 9.91508C17.5578 9.87461 17.4025 9.90595 17.2848 9.99933C17.1122 10.1363 16.9341 10.2661 16.7514 10.3887L17.4359 8.50805C17.5049 8.31845 17.4448 8.10599 17.2867 7.98058ZM9.79856 11.2411C8.08091 11.1941 6.40019 10.6219 5.02823 9.62245L6.64794 5.21762C8.14925 6.25343 9.91928 6.8439 11.6968 6.89246C13.3952 6.93886 15.0654 7.51146 16.4369 8.51167L15.5017 11.0811C14.6267 11.4736 13.686 11.718 12.7285 11.7967C11.7862 11.4556 10.8011 11.2684 9.79856 11.2411ZM17.3529 11.1143L18.9712 15.4893C17.5994 16.4884 15.9187 17.0606 14.2014 17.1075C12.425 17.1561 10.656 17.7458 9.15528 18.7805L7.56253 14.3785C9.69991 12.8194 11.6513 12.812 12.6943 12.7399C12.6983 12.7397 12.7023 12.7394 12.7064 12.739C14.3811 12.6212 15.9854 12.0552 17.3529 11.1143Z" fill="white"/>
<path d="M11.2291 7.74549C10.4988 7.47968 9.69254 7.85549 9.42666 8.58599C9.16151 9.31465 9.53854 10.1232 10.2672 10.3884C11.0003 10.6551 11.8047 10.2757 12.0696 9.5479C12.3354 8.81759 11.9595 8.01137 11.2291 7.74549ZM11.1886 9.22724C11.1002 9.47009 10.8308 9.59587 10.5878 9.5074C10.3449 9.41899 10.2192 9.14949 10.3076 8.90662C10.3961 8.66368 10.6656 8.53806 10.9085 8.62646C11.1519 8.71506 11.2773 8.98377 11.1886 9.22724Z" fill="white"/>
<path d="M10.4492 15.4551C10.2059 15.5437 10.0805 15.8127 10.169 16.056C10.2576 16.2993 10.5266 16.4247 10.7698 16.3361C11.0131 16.2476 11.1386 15.9786 11.05 15.7353C10.9614 15.4921 10.6924 15.3666 10.4492 15.4551Z" fill="white"/>
<path d="M16.055 14.4113C16.2983 14.3228 16.4237 14.0538 16.3352 13.8105C16.2466 13.5672 15.9776 13.4418 15.7343 13.5304C15.4911 13.6189 15.3656 13.8879 15.4542 14.1312C15.5427 14.3744 15.8117 14.4999 16.055 14.4113Z" fill="white"/>
<path d="M12.7715 13.6122C12.0412 13.878 11.6652 14.6842 11.931 15.4146C12.1969 16.145 13.003 16.521 13.7334 16.2551C14.4621 15.99 14.8391 15.1814 14.5739 14.4527C14.3088 13.724 13.5001 13.347 12.7715 13.6122ZM13.4128 15.3741C13.17 15.4625 12.9004 15.3369 12.812 15.094C12.7234 14.8506 12.8487 14.5818 13.0922 14.4932C13.335 14.4048 13.6046 14.5305 13.693 14.7733C13.7814 15.0162 13.6557 15.2857 13.4128 15.3741Z" fill="white"/>
</svg>
