<svg width="24" height="24" viewBox="0 0 24 24" fill="none" xmlns="http://www.w3.org/2000/svg">
<path fill-rule="evenodd" clip-rule="evenodd" d="M7.78489 3H16.2142C19.4044 3 22 5.65478 22 8.91891V16.0811C22 19.3452 19.4044 22 16.2142 22C15.8462 22 15.5476 21.6944 15.5476 21.3179C15.5476 20.9414 15.8462 20.6358 16.2142 20.6358C18.6693 20.6358 20.6667 18.5931 20.6667 16.0811V10.365H17.3831C16.3049 10.3659 15.4258 11.2645 15.4249 12.3686C15.4258 13.4727 16.3049 14.3713 17.3831 14.3722H18.7476C19.1156 14.3722 19.4142 14.6778 19.4142 15.0543C19.4142 15.4308 19.1156 15.7364 18.7476 15.7364H17.3831C15.5689 15.7355 14.0924 14.2248 14.0916 12.3686C14.0924 10.5123 15.5689 9.00168 17.3831 9.00077H20.6667V8.91891C20.6667 6.40692 18.6693 4.36422 16.2142 4.36422H7.78489C5.80622 4.36422 4.14578 5.69934 3.56711 7.52831H12.3547C12.7227 7.52831 13.0213 7.8339 13.0213 8.21043C13.0213 8.58786 12.7227 8.89254 12.3547 8.89254H3.336C3.336 8.89709 3.33533 8.90141 3.33467 8.90573C3.334 8.91004 3.33333 8.91436 3.33333 8.91891V16.0811C3.33333 18.5931 5.32978 20.6358 7.78489 20.6358H12.0258C12.3938 20.6358 12.6924 20.9414 12.6924 21.3179C12.6924 21.6944 12.3938 22 12.0258 22H7.78489C4.59467 22 2 19.3452 2 16.0811V8.91891C2 5.65478 4.59467 3 7.78489 3ZM16.861 12.3071C16.861 11.9306 17.1596 11.625 17.5276 11.625H17.8308C18.1988 11.625 18.4974 11.9306 18.4974 12.3071C18.4974 12.6836 18.1988 12.9892 17.8308 12.9892H17.5276C17.1596 12.9892 16.861 12.6836 16.861 12.3071Z" fill="#204D94"/>
</svg>
