<svg width="25" height="24" viewBox="0 0 25 24" fill="none" xmlns="http://www.w3.org/2000/svg">
<path d="M11.2429 5.09232C11.6494 5.03223 12.0686 5 12.5004 5C17.6054 5 20.9553 9.50484 22.0807 11.2868C22.2169 11.5025 22.285 11.6103 22.3231 11.7767C22.3518 11.9016 22.3517 12.0987 22.3231 12.2236C22.2849 12.3899 22.2164 12.4985 22.0792 12.7156C21.7793 13.1901 21.3222 13.8571 20.7165 14.5805M7.22432 6.71504C5.06225 8.1817 3.59445 10.2194 2.92111 11.2853C2.78428 11.5019 2.71587 11.6102 2.67774 11.7765C2.6491 11.9014 2.64909 12.0984 2.67771 12.2234C2.71583 12.3897 2.78393 12.4975 2.92013 12.7132C4.04554 14.4952 7.39541 19 12.5004 19C14.5588 19 16.3319 18.2676 17.7888 17.2766M3.50042 3L21.5004 21M10.3791 9.87868C9.8362 10.4216 9.50042 11.1716 9.50042 12C9.50042 13.6569 10.8436 15 12.5004 15C13.3288 15 14.0788 14.6642 14.6217 14.1213" stroke="#334155" stroke-width="2" stroke-linecap="round" stroke-linejoin="round"/>
</svg>
