<svg width="32" height="32" viewBox="0 0 32 32" fill="none" xmlns="http://www.w3.org/2000/svg">
<path d="M16 27.2012C10.0166 27.2012 5.04297 22.2275 5.04297 16.2441C5.04297 10.25 10.0059 5.28711 15.9893 5.28711C21.9834 5.28711 26.957 10.25 26.957 16.2441C26.957 22.2275 21.9941 27.2012 16 27.2012ZM16 25.375C21.0703 25.375 25.1309 21.3145 25.1309 16.2441C25.1309 11.1738 21.0596 7.11328 15.9893 7.11328C10.9189 7.11328 6.87988 11.1738 6.87988 16.2441C6.87988 21.3145 10.9297 25.375 16 25.375ZM15.9785 23.7422C11.8105 23.7422 8.49121 20.4121 8.49121 16.2334C8.49121 12.0654 11.7998 8.73535 15.9678 8.73535C20.1357 8.73535 23.4658 12.0762 23.4766 16.2334C23.4873 20.4014 20.1572 23.7422 15.9785 23.7422Z" fill="#007AFF"/>
</svg>
