<svg width="71" height="70" viewBox="0 0 71 70" fill="none" xmlns="http://www.w3.org/2000/svg">
<path d="M35.5 0C44.7826 0 53.685 3.68749 60.2487 10.2513C66.8125 16.815 70.5 25.7174 70.5 35C70.5 44.2826 66.8125 53.185 60.2487 59.7487C53.685 66.3125 44.7826 70 35.5 70C26.2174 70 17.315 66.3125 10.7513 59.7487C4.18749 53.185 0.5 44.2826 0.5 35C0.5 25.7174 4.18749 16.815 10.7513 10.2513C17.315 3.68749 26.2174 0 35.5 0ZM31.14 41.905L23.365 34.125C23.0863 33.8463 22.7554 33.6252 22.3912 33.4743C22.027 33.3235 21.6367 33.2458 21.2425 33.2458C20.8483 33.2458 20.458 33.3235 20.0938 33.4743C19.7296 33.6252 19.3987 33.8463 19.12 34.125C18.5571 34.6879 18.2408 35.4514 18.2408 36.2475C18.2408 37.0436 18.5571 37.8071 19.12 38.37L29.02 48.27C29.2979 48.5501 29.6286 48.7725 29.9929 48.9242C30.3572 49.0759 30.7479 49.154 31.1425 49.154C31.5371 49.154 31.9278 49.0759 32.2921 48.9242C32.6564 48.7725 32.9871 48.5501 33.265 48.27L53.765 27.765C54.0475 27.4874 54.2722 27.1567 54.4261 26.7918C54.5801 26.427 54.6604 26.0352 54.6622 25.6392C54.664 25.2432 54.5875 24.8508 54.4369 24.4845C54.2863 24.1182 54.0647 23.7854 53.7848 23.5052C53.505 23.225 53.1724 23.003 52.8063 22.852C52.4402 22.701 52.0478 22.6239 51.6518 22.6253C51.2558 22.6267 50.864 22.7064 50.499 22.86C50.1339 23.0136 49.8029 23.2379 49.525 23.52L31.14 41.905Z" fill="#38C976"/>
</svg>
