<svg width="436" height="298" viewBox="0 0 436 298" fill="none" xmlns="http://www.w3.org/2000/svg">
<g clip-path="url(#clip0_3113_38614)">
<path d="M194.55 168.58L195 155.44L186.94 152.8C186.594 148.347 185.871 143.931 184.78 139.6L191.62 134.6L186.98 122.26L178.52 122.94C176.514 118.964 174.173 115.167 171.52 111.59L175.9 104.28L166.9 94.6698L159.34 98.5398C155.941 95.6339 152.309 93.0118 148.48 90.6998L149.7 82.2998L137.7 76.8598L132.2 83.2998C127.957 81.9425 123.609 80.9391 119.2 80.2998L117.2 72.0698L104.02 71.6198L101.42 79.6898C96.9716 80.0396 92.5597 80.7587 88.2303 81.8398L83.1503 75.0398L70.8103 79.6498L71.4903 88.1098C67.5166 90.1461 63.72 92.511 60.1403 95.1798L52.7803 90.6998L43.1303 99.6998L47.0003 107.3C44.0936 110.682 41.484 114.309 39.2003 118.14L30.8103 116.88L25.3303 128.88L31.8103 134.37C30.4434 138.61 29.4397 142.959 28.8103 147.37L20.4803 149.46L20.0303 162.6L28.1303 165.24C28.4653 169.69 29.1847 174.103 30.2803 178.43L23.4403 183.43L28.0903 195.78L36.5503 195.1C38.551 199.078 40.8931 202.876 43.5503 206.45L39.1603 213.76L48.1603 223.37L55.7203 219.5C59.1109 222.405 62.7367 225.024 66.5603 227.33L65.3003 235.72L77.3003 241.17L82.8303 234.73C87.0732 236.099 91.421 237.119 95.8303 237.78L97.8303 246.01L111.01 246.46L113.61 238.39C118.062 238.036 122.477 237.317 126.81 236.24L131.81 243.04L144.15 238.43L143.51 229.97C147.477 227.921 151.272 225.556 154.86 222.9L162.13 227.28L171.78 218.28L167.91 210.68C170.818 207.298 173.428 203.671 175.71 199.84L184.1 201.1L189.58 189.1L183.1 183.6C184.49 179.363 185.511 175.013 186.15 170.6L194.55 168.58ZM105.76 211.15C95.4482 210.801 85.4711 207.403 77.0911 201.383C68.711 195.364 62.3045 186.994 58.6819 177.333C55.0593 167.672 54.3834 157.153 56.7397 147.108C59.096 137.063 64.3786 127.942 71.9193 120.899C79.46 113.857 88.92 109.209 99.1027 107.543C109.285 105.878 119.733 107.27 129.125 111.544C138.516 115.817 146.429 122.78 151.863 131.551C157.296 140.322 160.006 150.508 159.65 160.82C159.176 174.639 153.232 187.705 143.126 197.143C133.02 206.581 119.58 211.619 105.76 211.15Z" fill="#CCD7FF" fill-opacity="0.3"/>
<path d="M266.43 147.057L269.74 143.967L268.43 141.357C269.429 140.188 270.329 138.937 271.12 137.617L274.02 138.047L275.89 133.907L273.67 132.017C274.148 130.553 274.5 129.051 274.72 127.527L277.57 126.817L277.71 122.277L274.93 121.377C274.808 119.839 274.561 118.314 274.19 116.817L276.54 115.067L274.94 110.817L272.03 111.047C271.328 109.676 270.516 108.365 269.6 107.127L271.11 104.627L268 101.307L265.4 102.637C264.229 101.64 262.978 100.74 261.66 99.9471L262.08 97.0471L257.95 95.1571L256.05 97.3871C254.584 96.9304 253.082 96.5959 251.56 96.3871L250.85 93.5471L246.31 93.3771L245.4 96.1771C243.869 96.2941 242.35 96.5417 240.86 96.9171L239.12 94.5671L234.86 96.1571L235.1 99.0771C233.726 99.772 232.414 100.585 231.18 101.507L228.66 99.9971L225.34 103.087L226.63 105.637C225.624 106.803 224.72 108.055 223.93 109.377L221.04 108.947L219.16 113.087L221.39 114.987C220.928 116.449 220.593 117.948 220.39 119.467L217.53 120.177L217.39 124.717L220.18 125.617C220.294 127.155 220.538 128.68 220.91 130.177L218.55 131.917L220.15 136.167L223.07 135.947C223.772 137.318 224.585 138.629 225.5 139.867L223.99 142.367L227.1 145.687L229.7 144.357C230.869 145.357 232.12 146.257 233.44 147.047L233.01 149.937L237.15 151.827L239.05 149.607C240.518 150.059 242.019 150.393 243.54 150.607L244.25 153.447L248.79 153.617L249.7 150.817C251.232 150.701 252.751 150.453 254.24 150.077L255.98 152.427L260.24 150.837L260.01 147.917C261.381 147.221 262.689 146.408 263.92 145.487L266.43 147.057ZM242.81 127.927C241.937 126.991 241.361 125.818 241.155 124.554C240.949 123.291 241.122 121.995 241.652 120.831C242.183 119.666 243.047 118.685 244.136 118.011C245.224 117.338 246.488 117.002 247.767 117.047C249.046 117.091 250.283 117.515 251.322 118.263C252.36 119.011 253.153 120.05 253.601 121.249C254.049 122.448 254.131 123.753 253.837 124.998C253.543 126.244 252.887 127.375 251.95 128.247C251.329 128.833 250.597 129.29 249.798 129.591C248.998 129.893 248.147 130.033 247.293 130.003C246.44 129.973 245.6 129.774 244.824 129.418C244.047 129.062 243.349 128.555 242.77 127.927H242.81Z" fill="#CCD7FF" fill-opacity="0.3"/>
<path d="M336.638 210.129H336.568L319.248 209.539C318.897 209.533 318.553 209.438 318.249 209.263C317.945 209.088 317.69 208.839 317.508 208.539L312.838 200.689C310.321 199.768 307.885 198.638 305.558 197.309L298.088 198.599C297.74 198.663 297.381 198.638 297.046 198.526C296.71 198.414 296.408 198.219 296.168 197.959L284.338 185.299C284.089 185.037 283.913 184.715 283.825 184.365C283.738 184.014 283.742 183.647 283.838 183.299L285.728 175.889C284.557 173.488 283.6 170.988 282.868 168.419L275.338 163.219C275.046 163.019 274.809 162.748 274.65 162.431C274.491 162.115 274.414 161.763 274.428 161.409L275.018 144.089C275.029 143.74 275.127 143.398 275.301 143.095C275.475 142.791 275.722 142.535 276.018 142.349L283.888 137.679C284.795 135.168 285.923 132.742 287.258 130.429L285.878 122.899C285.813 122.55 285.838 122.189 285.95 121.852C286.062 121.515 286.257 121.211 286.518 120.969L299.178 109.149C299.44 108.9 299.761 108.722 300.111 108.633C300.461 108.544 300.829 108.546 301.178 108.639L308.618 110.539C311.013 109.368 313.506 108.407 316.068 107.669L321.268 100.139C321.461 99.8401 321.731 99.5981 322.049 99.4381C322.367 99.2781 322.722 99.206 323.078 99.2292L340.388 99.8292C340.74 99.8367 341.084 99.9321 341.39 100.107C341.696 100.281 341.953 100.53 342.138 100.829L346.808 108.689C349.307 109.607 351.722 110.738 354.028 112.069L361.588 110.679C361.936 110.615 362.295 110.639 362.63 110.751C362.966 110.863 363.268 111.059 363.508 111.319L375.338 123.979C375.584 124.243 375.76 124.564 375.847 124.914C375.935 125.264 375.931 125.631 375.838 125.979L373.938 133.409C375.109 135.806 376.073 138.298 376.818 140.859L384.338 146.059C384.63 146.26 384.866 146.531 385.025 146.847C385.185 147.164 385.261 147.515 385.248 147.869L384.658 165.179C384.646 165.53 384.549 165.873 384.374 166.178C384.2 166.483 383.954 166.741 383.658 166.929L375.788 171.599C374.874 174.105 373.747 176.527 372.418 178.839L373.798 186.379C373.862 186.727 373.838 187.086 373.726 187.422C373.614 187.758 373.418 188.06 373.158 188.299L360.418 200.129C360.155 200.378 359.834 200.554 359.483 200.642C359.133 200.729 358.766 200.725 358.418 200.629L351.018 198.739C348.606 199.905 346.101 200.865 343.528 201.609L338.378 209.129C338.192 209.426 337.936 209.673 337.633 209.847C337.329 210.021 336.988 210.118 336.638 210.129ZM320.548 205.359L335.548 205.869L340.548 198.679C340.825 198.26 341.25 197.96 341.738 197.839C344.552 197.07 347.282 196.021 349.888 194.709C350.342 194.49 350.858 194.437 351.348 194.559L358.348 196.349L369.348 186.099L368.088 178.869C367.99 178.364 368.083 177.841 368.348 177.399C369.833 174.923 371.056 172.299 371.998 169.569C372.157 169.074 372.491 168.655 372.938 168.389L380.468 163.929L380.978 148.929L373.778 143.929C373.398 143.67 373.114 143.295 372.968 142.859C372.968 142.809 372.968 142.749 372.968 142.689C372.197 139.925 371.152 137.245 369.848 134.689C369.616 134.232 369.56 133.706 369.688 133.209L371.488 126.129L361.238 115.129L354.048 116.449C353.546 116.54 353.028 116.448 352.588 116.189C350.107 114.701 347.48 113.471 344.748 112.519C344.591 112.469 344.44 112.402 344.298 112.319C344.01 112.139 343.769 111.892 343.598 111.599L339.088 104.049L324.088 103.529L319.088 110.739C318.79 111.162 318.35 111.464 317.848 111.589C315.063 112.35 312.362 113.392 309.788 114.699C309.334 114.931 308.811 114.988 308.318 114.859L301.238 113.059L290.238 123.309L291.558 130.479C291.636 130.932 291.57 131.397 291.368 131.809L291.268 131.979C289.78 134.465 288.557 137.099 287.618 139.839C287.452 140.309 287.126 140.706 286.698 140.959L279.168 145.429L278.658 160.429L285.868 165.429C286.279 165.711 286.577 166.129 286.708 166.609C287.457 169.417 288.5 172.139 289.818 174.729C289.889 174.877 289.946 175.031 289.988 175.189C290.063 175.518 290.063 175.86 289.988 176.189L288.188 183.189L298.438 194.189L305.578 192.879C306.077 192.788 306.592 192.88 307.028 193.139C309.528 194.625 312.171 195.854 314.918 196.809C315.413 196.956 315.833 197.29 316.088 197.739L320.548 205.359ZM329.818 186.389C329.448 186.389 329.078 186.389 328.708 186.389C320.395 186.243 312.476 182.819 306.675 176.863C300.874 170.907 297.661 162.9 297.734 154.587C297.807 146.273 301.161 138.324 307.066 132.471C312.971 126.618 320.949 123.334 329.263 123.334C337.577 123.334 345.555 126.618 351.459 132.471C357.364 138.324 360.718 146.273 360.792 154.587C360.865 162.9 357.651 170.907 351.85 176.863C346.049 182.819 338.131 186.243 329.818 186.389ZM329.818 127.299C322.553 127.424 315.632 130.414 310.562 135.618C305.491 140.821 302.681 147.817 302.744 155.083C302.806 162.348 305.736 169.294 310.896 174.41C316.056 179.525 323.027 182.395 330.293 182.395C337.558 182.395 344.53 179.525 349.689 174.41C354.849 169.294 357.779 162.348 357.842 155.083C357.904 147.817 355.094 140.821 350.024 135.618C344.953 130.414 338.032 127.424 330.768 127.299H329.818Z" fill="#CCD7FF" fill-opacity="0.3"/>
<path d="M291.959 101.667L284.779 99.7471L282.859 92.5671L285.669 89.7671L288.629 95.8971L294.769 98.8671L291.959 101.667Z" fill="#CCD7FF" fill-opacity="0.5"/>
<path d="M292.399 96.8668C292.71 96.5562 292.956 96.1875 293.124 95.7817C293.292 95.3759 293.379 94.941 293.379 94.5018C293.379 94.0626 293.292 93.6277 293.124 93.2219C292.956 92.8161 292.71 92.4474 292.399 92.1368C292.088 91.8262 291.72 91.5799 291.314 91.4118C290.908 91.2437 290.473 91.1572 290.034 91.1572C289.595 91.1572 289.16 91.2437 288.754 91.4118C288.348 91.5799 287.98 91.8262 287.669 92.1368L291.239 86.7768L296.019 89.1968L297.069 94.1968L292.399 96.8668Z" fill="#CCD7FF" fill-opacity="0.5"/>
<path d="M285.099 90.3471L290.359 85.0871L297.519 86.9971L299.449 94.1671L294.189 99.4271L287.019 97.4971L285.099 90.3471ZM294.649 94.6471C295.117 94.1785 295.436 93.5815 295.565 92.9318C295.694 92.282 295.627 91.6087 295.373 90.9967C295.12 90.3848 294.69 89.8618 294.139 89.4938C293.589 89.1259 292.941 88.9295 292.279 88.9295C291.616 88.9295 290.969 89.1259 290.418 89.4938C289.867 89.8618 289.438 90.3848 289.184 90.9967C288.93 91.6087 288.864 92.282 288.993 92.9318C289.122 93.5815 289.44 94.1785 289.909 94.6471C290.542 95.2686 291.395 95.615 292.283 95.6113C293.17 95.6075 294.02 95.2539 294.649 94.6271V94.6471Z" fill="#F0F0F0"/>
<path d="M69.4471 65.7895L72.6471 68.9895C73.0473 69.3828 73.586 69.6032 74.1471 69.6032C74.7082 69.6032 75.2469 69.3828 75.6471 68.9895C76.038 68.5881 76.2568 68.0499 76.2568 67.4895C76.2568 66.9292 76.038 66.391 75.6471 65.9895L72.4571 62.7995C72.0556 62.4086 71.5174 62.1898 70.9571 62.1898C70.3967 62.1898 69.8585 62.4086 69.4571 62.7995C69.0654 63.198 68.8451 63.7338 68.8433 64.2925C68.8414 64.8512 69.0581 65.3885 69.4471 65.7895Z" fill="#F0F0F0"/>
<path d="M67.1976 57.8388C68.0326 57.6066 68.9173 57.6233 69.743 57.8869C70.5686 58.1504 71.2994 58.6493 71.8454 59.3224C72.3915 59.9954 72.7292 60.8133 72.8169 61.6755C72.9047 62.5378 72.7388 63.4069 72.3395 64.1762C71.9402 64.9454 71.325 65.5813 70.5694 66.0058C69.8137 66.4303 68.9506 66.625 68.0859 66.5658C67.2212 66.5066 66.3926 66.1962 65.7019 65.6727C65.0112 65.1491 64.4883 64.4353 64.1976 63.6188C64.013 63.0424 63.9443 62.4351 63.9954 61.832C64.0464 61.2289 64.2162 60.6419 64.4951 60.1047C64.7739 59.5674 65.1562 59.0907 65.62 58.7018C66.0839 58.313 66.62 58.0197 67.1976 57.8388Z" fill="#CCD7FF" fill-opacity="0.5"/>
<path d="M63.717 63.0841L64.1802 64.3734L73.6855 60.9588L73.2223 59.6695L63.717 63.0841Z" fill="#F0F0F0"/>
<path d="M140.43 161.78L124.652 160.432L131.214 82.2009L100.774 79.5997L30.7036 150.735L28.2629 179.82L91.9078 185.265L89.91 209.051L120.356 211.633L122.354 187.847L138.131 189.195L140.43 161.78ZM60.5679 155.003L97.5925 117.831L94.2367 157.889L60.5679 155.003Z" fill="url(#paint0_linear_3113_38614)"/>
<path d="M213.91 71.6198L217.76 70.5799L218.79 66.7299L217.29 65.2299L215.7 68.5198L212.4 70.1099L213.91 71.6198Z" fill="#CCD7FF"/>
<path d="M213.69 69.0403C213.389 68.6966 213.23 68.2514 213.246 67.7949C213.261 67.3384 213.449 66.9047 213.772 66.5817C214.095 66.2587 214.529 66.0706 214.985 66.0555C215.442 66.0404 215.887 66.1994 216.23 66.5002L214.32 63.6302L211.69 64.9102L211.13 67.6103L213.69 69.0403Z" fill="#E0E0E0"/>
<path d="M217.59 65.5303L214.77 62.7103L210.92 63.7103L209.92 67.5603L212.69 70.4103L216.54 69.4103L217.59 65.5303ZM212.47 67.8403C212.285 67.678 212.135 67.4793 212.029 67.2567C211.924 67.034 211.865 66.792 211.857 66.5457C211.849 66.2994 211.891 66.0541 211.982 65.8249C212.072 65.5957 212.209 65.3875 212.383 65.2133C212.558 65.039 212.766 64.9024 212.995 64.8119C213.224 64.7214 213.469 64.6789 213.716 64.6871C213.962 64.6952 214.204 64.7539 214.427 64.8593C214.649 64.9648 214.848 65.115 215.01 65.3004C215.311 65.644 215.47 66.0892 215.455 66.5457C215.44 67.0022 215.252 67.4359 214.929 67.7589C214.606 68.0819 214.172 68.27 213.716 68.2851C213.259 68.3002 212.814 68.1412 212.47 67.8403Z" fill="#F0F0F0"/>
<path d="M315.484 195.409L340.079 185.125C342.724 191.388 346.31 195.733 350.838 198.161C355.366 200.589 360.158 201.089 365.214 199.661C370.644 198.127 374.619 194.78 377.138 189.62C379.72 184.442 380.023 178.358 378.048 171.367C376.179 164.75 372.919 160.01 368.268 157.145C363.617 154.28 358.732 153.57 353.614 155.016C350.243 155.968 346.402 157.761 342.091 160.394L338.937 138.133C346.105 136.31 351.104 133.247 353.932 128.943C356.743 124.577 357.381 119.678 355.847 114.248C354.543 109.629 352.129 106.334 348.607 104.363C345.085 102.392 341.045 102.051 336.488 103.338C331.994 104.607 328.596 107.252 326.294 111.272C323.992 115.293 323.345 120.396 324.351 126.582L298.937 129.312C298.277 120.535 298.936 113.204 300.914 107.321C302.936 101.357 306.578 96.1159 311.84 91.5967C317.146 86.9974 323.575 83.6311 331.128 81.4976C344.049 77.8478 355.574 79.0406 365.704 85.0761C374.038 90.0013 379.404 96.7085 381.802 105.198C385.205 117.245 381.335 128.718 370.192 139.616C378.533 139.08 385.873 141.084 392.211 145.63C398.613 150.157 402.986 156.572 405.331 164.874C408.734 176.921 407.234 188.432 400.831 199.407C394.427 210.382 384.672 217.721 371.563 221.424C359.142 224.933 347.837 224.284 337.65 219.478C327.445 214.61 320.057 206.587 315.484 195.409Z" fill="url(#paint1_linear_3113_38614)"/>
<path d="M230.763 211.731C267.105 206.03 291.944 171.947 286.243 135.605C280.542 99.2631 246.459 74.424 210.117 80.1252C173.775 85.8265 148.936 119.909 154.638 156.251C160.339 192.593 194.422 217.432 230.763 211.731Z" fill="url(#paint2_linear_3113_38614)"/>
<path d="M207.056 202.926C195.78 200.278 185.542 194.346 177.637 185.879C169.732 177.413 164.515 166.792 162.645 155.361C160.776 143.929 162.339 132.2 167.136 121.657C171.933 111.114 179.749 102.23 189.595 96.1282C199.441 90.0267 210.875 86.982 222.451 87.379C234.028 87.776 245.227 91.597 254.632 98.3586C264.037 105.12 271.225 114.519 275.289 125.366C279.352 136.213 280.107 148.022 277.46 159.298C273.897 174.413 264.482 187.496 251.282 195.675C238.083 203.855 222.177 206.462 207.056 202.926ZM232.786 93.3508C222.39 90.9099 211.505 91.6064 201.505 95.3522C191.505 99.098 182.841 105.725 176.608 114.395C170.375 123.065 166.852 133.388 166.486 144.06C166.12 154.732 168.927 165.273 174.552 174.349C180.177 183.426 188.366 190.631 198.086 195.053C207.805 199.475 218.618 200.916 229.156 199.193C239.694 197.47 249.485 192.66 257.289 185.373C265.094 178.086 270.563 168.648 273.004 158.252C276.263 144.313 273.858 129.651 266.318 117.483C258.778 105.315 246.718 96.6364 232.786 93.3508Z" fill="white"/>
<path d="M201.265 148.525L201.161 148.289C200.122 145.814 199.108 143.344 198.007 140.908C197.677 140.148 197.221 139.449 196.66 138.839C196.125 138.251 195.454 137.802 194.706 137.533C193.957 137.263 193.155 137.18 192.367 137.29C191.579 137.401 190.831 137.703 190.186 138.168C189.541 138.634 189.02 139.25 188.667 139.963C188.314 140.66 188.115 141.425 188.083 142.205C188.051 142.986 188.187 143.764 188.481 144.488L196.261 165.65C197.566 169.47 200.011 172.797 203.266 175.184C208.817 179.219 215.592 181.213 222.445 180.829C224.871 180.76 227.249 180.137 229.398 179.007C231.546 177.877 233.407 176.271 234.838 174.31C236.608 171.995 237.859 169.327 238.508 166.487C240.281 158.935 242.054 151.383 243.798 143.958C244.75 139.905 245.701 135.852 246.653 131.799C246.828 131.166 246.851 130.5 246.721 129.856C246.591 129.211 246.311 128.607 245.904 128.091C245.435 127.438 244.781 126.941 244.027 126.664C243.272 126.388 242.452 126.344 241.673 126.54C240.873 126.672 240.133 127.047 239.553 127.614C238.974 128.181 238.582 128.913 238.432 129.71C237.149 135.172 235.873 140.609 234.59 146.072C234.371 147.003 233.875 147.418 233.196 147.258C232.516 147.099 232.282 146.512 232.501 145.581L238.039 121.994C238.143 121.665 238.222 121.329 238.275 120.988C238.409 119.907 238.12 118.816 237.468 117.944C236.816 117.073 235.851 116.487 234.777 116.31C233.702 116.133 232.601 116.379 231.704 116.996C230.807 117.613 230.184 118.554 229.964 119.62L224.946 140.992C224.911 141.196 224.864 141.398 224.804 141.596C224.718 141.832 224.55 142.029 224.331 142.153C224.112 142.277 223.857 142.319 223.61 142.272C223.361 142.23 223.138 142.096 222.983 141.898C222.828 141.699 222.753 141.45 222.773 141.199C222.798 140.975 222.85 140.755 222.926 140.544L228.488 116.857C228.552 116.642 228.603 116.423 228.642 116.202C228.77 115.53 228.724 114.836 228.509 114.187C228.295 113.537 227.919 112.952 227.416 112.488C226.894 111.901 226.217 111.473 225.463 111.252C224.708 111.031 223.907 111.027 223.151 111.24C222.394 111.453 221.713 111.875 221.185 112.456C220.657 113.038 220.303 113.757 220.164 114.53C218.28 122.552 216.398 130.565 214.519 138.57C214.488 138.757 214.445 138.942 214.389 139.124C214.299 139.37 214.123 139.576 213.893 139.703C213.663 139.829 213.395 139.868 213.138 139.813C212.888 139.757 212.667 139.612 212.515 139.406C212.363 139.199 212.291 138.945 212.313 138.689C212.343 138.502 212.387 138.317 212.443 138.136L214.541 129.199C215.321 125.877 216.108 122.529 216.905 119.13C217.024 118.59 217.034 118.031 216.937 117.486C216.839 116.941 216.635 116.421 216.336 115.955C215.733 115.014 214.78 114.351 213.688 114.112C212.596 113.873 211.454 114.078 210.513 114.681C209.572 115.285 208.909 116.237 208.67 117.329L201.34 148.543L201.265 148.525Z" fill="white"/>
<path d="M201.264 148.525L208.576 117.387C208.694 116.846 208.918 116.334 209.234 115.88C209.55 115.426 209.953 115.038 210.419 114.739C211.36 114.136 212.502 113.931 213.594 114.17C214.686 114.409 215.639 115.072 216.242 116.013C216.846 116.954 217.05 118.096 216.812 119.188C216.031 122.511 215.245 125.859 214.447 129.257L212.349 138.193C212.293 138.375 212.249 138.56 212.219 138.747C212.198 139.002 212.269 139.257 212.421 139.463C212.573 139.67 212.794 139.815 213.044 139.87C213.301 139.926 213.569 139.887 213.799 139.76C214.029 139.634 214.205 139.428 214.295 139.181C214.351 139 214.394 138.815 214.425 138.628C216.305 130.623 218.186 122.61 220.07 114.588C220.23 113.857 220.582 113.182 221.092 112.633C221.601 112.085 222.248 111.683 222.965 111.469C223.682 111.255 224.443 111.237 225.17 111.417C225.896 111.597 226.561 111.969 227.096 112.493C227.598 112.957 227.974 113.542 228.189 114.191C228.403 114.841 228.449 115.535 228.322 116.207C228.283 116.428 228.231 116.646 228.168 116.861L222.606 140.549C222.529 140.76 222.478 140.98 222.452 141.203C222.433 141.454 222.508 141.704 222.663 141.902C222.818 142.101 223.041 142.234 223.289 142.276C223.536 142.323 223.792 142.281 224.011 142.158C224.23 142.034 224.397 141.836 224.484 141.6C224.544 141.402 224.591 141.2 224.626 140.996L229.662 119.549C229.881 118.483 230.504 117.543 231.402 116.925C232.299 116.308 233.4 116.062 234.474 116.239C235.549 116.416 236.513 117.002 237.165 117.874C237.817 118.746 238.107 119.836 237.973 120.917C237.919 121.258 237.84 121.594 237.736 121.924L232.198 145.51C231.979 146.441 232.213 147.028 232.893 147.187C233.573 147.347 234.069 146.932 234.287 146.001C235.57 140.538 236.847 135.101 238.129 129.639C238.279 128.842 238.671 128.11 239.251 127.543C239.83 126.976 240.57 126.601 241.37 126.469C242.15 126.273 242.97 126.317 243.724 126.593C244.479 126.87 245.133 127.367 245.601 128.02C246.008 128.536 246.288 129.14 246.418 129.785C246.548 130.429 246.525 131.095 246.35 131.728C245.399 135.781 244.447 139.834 243.495 143.887C241.722 151.438 239.949 158.99 238.205 166.416C237.556 169.256 236.305 171.924 234.536 174.239C233.104 176.2 231.243 177.807 229.095 178.936C226.947 180.066 224.568 180.69 222.142 180.758C215.289 181.142 208.515 179.148 202.963 175.113C199.712 172.741 197.264 169.432 195.947 165.63L188.167 144.467C187.872 143.744 187.736 142.965 187.768 142.185C187.8 141.404 188 140.639 188.353 139.943C188.694 139.192 189.219 138.54 189.88 138.047C190.54 137.554 191.315 137.237 192.131 137.124C192.948 137.01 193.78 137.106 194.549 137.4C195.319 137.695 196.002 138.18 196.534 138.809C197.095 139.419 197.55 140.118 197.881 140.878C198.982 143.315 199.996 145.784 201.035 148.259L201.139 148.496L201.264 148.525Z" fill="white"/>
</g>
<rect x="8" y="193.927" width="420" height="5.68073" rx="2.84036" fill="#6DBBEE"/>
<g opacity="0.5">
<path d="M24.7451 211.226H66.7632" stroke="#73B4E8" stroke-width="5" stroke-linecap="round"/>
<path d="M361.484 233.817H403.502" stroke="#73B4E8" stroke-width="5" stroke-linecap="round"/>
<path d="M147.208 246.46H189.226" stroke="#73B4E8" stroke-width="5" stroke-linecap="round"/>
<path d="M96.4497 224.984H138.468" stroke="#BDE2FF" stroke-width="3" stroke-linecap="round"/>
<path d="M260.911 246.46H302.929" stroke="#32A5FF" stroke-width="3" stroke-linecap="round"/>
<path d="M369.237 207.564H411.255" stroke="#BDE2FF" stroke-width="3" stroke-linecap="round"/>
<path d="M360.715 260.76H402.733" stroke="#BDE2FF" stroke-width="3" stroke-linecap="round"/>
<path d="M202.07 211.226H244.088" stroke="#BDE2FF" stroke-width="3" stroke-linecap="round"/>
<path d="M53.626 253.623H79.9215" stroke="#32A5FF" stroke-width="3" stroke-linecap="round"/>
<path d="M305.384 224.984H331.679" stroke="#32A5FF" stroke-width="3" stroke-linecap="round"/>
</g>
<g style="mix-blend-mode:lighten">
<rect x="14.9272" y="207.168" width="406.146" height="53.5928" fill="url(#paint3_linear_3113_38614)"/>
</g>
<defs>
<linearGradient id="paint0_linear_3113_38614" x1="50.6634" y1="93.9753" x2="62.5792" y2="218.859" gradientUnits="userSpaceOnUse">
<stop stop-color="#90F9E1"/>
<stop offset="0.95469" stop-color="#69B3EF"/>
</linearGradient>
<linearGradient id="paint1_linear_3113_38614" x1="292.908" y1="57.9925" x2="455.654" y2="272.428" gradientUnits="userSpaceOnUse">
<stop stop-color="#90F9E1"/>
<stop offset="0.95469" stop-color="#69B3EF"/>
</linearGradient>
<linearGradient id="paint2_linear_3113_38614" x1="185.457" y1="87.183" x2="214.632" y2="230.384" gradientUnits="userSpaceOnUse">
<stop stop-color="#90F9E1"/>
<stop offset="0.95469" stop-color="#69B3EF"/>
</linearGradient>
<linearGradient id="paint3_linear_3113_38614" x1="179.795" y1="156.51" x2="239.63" y2="284.5" gradientUnits="userSpaceOnUse">
<stop stop-color="#8CF2E0" stop-opacity="0"/>
<stop offset="1" stop-color="#8CF2E0"/>
</linearGradient>
<clipPath id="clip0_3113_38614">
<rect width="420" height="157" fill="white" transform="translate(8 36.928)"/>
</clipPath>
</defs>
</svg>
