<svg width="501" height="298" viewBox="0 0 501 298" fill="none" xmlns="http://www.w3.org/2000/svg">
<g clip-path="url(#clip0_3113_38727)">
<path d="M221.025 162.606L221.475 149.466L213.415 146.826C213.068 142.373 212.346 137.957 211.255 133.626L218.095 128.626L213.455 116.286L204.995 116.966C202.989 112.99 200.647 109.193 197.995 105.616L202.375 98.306L193.375 88.696L185.815 92.566C182.415 89.6601 178.783 87.038 174.955 84.726L176.175 76.326L164.175 70.886L158.675 77.326C154.432 75.9687 150.084 74.9653 145.675 74.326L143.675 66.096L130.495 65.646L127.895 73.716C123.446 74.0657 119.034 74.7849 114.705 75.866L109.625 69.066L97.2849 73.676L97.9649 82.136C93.9912 84.1723 90.1946 86.5372 86.6149 89.206L79.2549 84.726L69.6049 93.726L73.4749 101.326C70.5683 104.709 67.9586 108.335 65.6749 112.166L57.2849 110.906L51.8049 122.906L58.2849 128.396C56.918 132.636 55.9144 136.985 55.2849 141.396L46.9549 143.486L46.5049 156.626L54.6049 159.266C54.9399 163.716 55.6593 168.13 56.7549 172.456L49.9149 177.456L54.5649 189.806L63.0249 189.126C65.0256 193.105 67.3677 196.902 70.0249 200.476L65.6349 207.786L74.6349 217.396L82.1949 213.526C85.5855 216.431 89.2113 219.05 93.0349 221.356L91.7749 229.746L103.775 235.196L109.305 228.756C113.548 230.126 117.896 231.146 122.305 231.806L124.305 240.036L137.485 240.486L140.085 232.416C144.536 232.062 148.951 231.343 153.285 230.266L158.285 237.066L170.625 232.456L169.985 223.996C173.951 221.947 177.747 219.583 181.335 216.926L188.605 221.306L198.255 212.306L194.385 204.706C197.292 201.324 199.902 197.697 202.185 193.866L210.575 195.126L216.055 183.126L209.575 177.626C210.965 173.389 211.985 169.039 212.625 164.626L221.025 162.606ZM132.235 205.176C121.923 204.828 111.946 201.429 103.566 195.409C95.1856 189.39 88.7791 181.02 85.1565 171.359C81.5339 161.698 80.858 151.179 83.2143 141.134C85.5706 131.089 90.8532 121.968 98.3939 114.925C105.935 107.883 115.395 103.235 125.577 101.57C135.76 99.9043 146.208 101.296 155.599 105.57C164.991 109.843 172.904 116.806 178.337 125.577C183.771 134.348 186.481 144.534 186.125 154.846C185.65 168.666 179.707 181.731 169.601 191.169C159.495 200.607 146.055 205.646 132.235 205.176Z" fill="#CCD7FF" fill-opacity="0.3"/>
<path d="M292.905 141.083L296.215 137.993L294.905 135.383C295.904 134.214 296.804 132.963 297.595 131.643L300.495 132.073L302.365 127.933L300.145 126.043C300.623 124.579 300.974 123.077 301.195 121.553L304.045 120.843L304.185 116.303L301.405 115.403C301.283 113.866 301.035 112.341 300.665 110.843L303.015 109.093L301.415 104.843L298.505 105.073C297.803 103.702 296.99 102.391 296.075 101.153L297.585 98.6532L294.475 95.3332L291.875 96.6632C290.703 95.6662 289.453 94.7665 288.135 93.9732L288.555 91.0732L284.425 89.1832L282.525 91.4132C281.058 90.9565 279.556 90.6221 278.035 90.4132L277.325 87.5732L272.785 87.4032L271.875 90.2032C270.343 90.3203 268.824 90.5678 267.335 90.9432L265.595 88.5932L261.335 90.1832L261.575 93.1032C260.2 93.7981 258.889 94.6112 257.655 95.5332L255.135 94.0232L251.815 97.1132L253.105 99.6632C252.098 100.829 251.195 102.081 250.405 103.403L247.515 102.973L245.635 107.113L247.865 109.013C247.402 110.475 247.068 111.974 246.865 113.493L244.005 114.203L243.865 118.743L246.655 119.643C246.769 121.181 247.013 122.707 247.385 124.203L245.025 125.943L246.625 130.193L249.545 129.973C250.247 131.344 251.059 132.655 251.975 133.893L250.465 136.393L253.575 139.713L256.175 138.383C257.344 139.383 258.595 140.283 259.915 141.073L259.485 143.963L263.625 145.853L265.525 143.633C266.993 144.085 268.494 144.42 270.015 144.633L270.725 147.473L275.265 147.643L276.175 144.843C277.706 144.727 279.225 144.479 280.715 144.103L282.455 146.453L286.715 144.863L286.485 141.943C287.856 141.247 289.164 140.434 290.395 139.513L292.905 141.083ZM269.285 121.953C268.412 121.017 267.835 119.844 267.629 118.581C267.423 117.317 267.596 116.021 268.127 114.857C268.658 113.692 269.522 112.711 270.61 112.037C271.698 111.364 272.962 111.028 274.241 111.073C275.52 111.118 276.758 111.541 277.796 112.289C278.835 113.037 279.628 114.076 280.076 115.275C280.524 116.474 280.606 117.779 280.312 119.025C280.018 120.27 279.361 121.401 278.425 122.273C277.803 122.859 277.072 123.316 276.272 123.618C275.473 123.919 274.622 124.059 273.768 124.029C272.914 123.999 272.075 123.801 271.298 123.444C270.522 123.088 269.824 122.581 269.245 121.953H269.285Z" fill="#CCD7FF" fill-opacity="0.3"/>
<path d="M363.112 204.155H363.042L345.722 203.565C345.372 203.559 345.028 203.464 344.724 203.289C344.42 203.114 344.165 202.865 343.982 202.565L339.312 194.715C336.795 193.795 334.36 192.664 332.032 191.335L324.562 192.625C324.214 192.689 323.856 192.664 323.52 192.552C323.185 192.44 322.883 192.245 322.642 191.985L310.812 179.325C310.564 179.063 310.388 178.741 310.3 178.391C310.212 178.041 310.217 177.674 310.312 177.325L312.202 169.915C311.031 167.514 310.074 165.015 309.342 162.445L301.812 157.245C301.52 157.045 301.284 156.774 301.125 156.457C300.966 156.141 300.889 155.789 300.902 155.435L301.492 138.115C301.504 137.766 301.601 137.424 301.776 137.121C301.95 136.818 302.196 136.562 302.492 136.375L310.362 131.705C311.27 129.194 312.398 126.768 313.732 124.455L312.352 116.925C312.288 116.576 312.313 116.216 312.425 115.878C312.536 115.541 312.732 115.237 312.992 114.995L325.652 103.175C325.914 102.926 326.236 102.748 326.586 102.659C326.936 102.57 327.303 102.572 327.652 102.665L335.092 104.565C337.487 103.394 339.98 102.433 342.542 101.695L347.742 94.1654C347.936 93.8663 348.205 93.6242 348.524 93.4642C348.842 93.3042 349.197 93.2321 349.552 93.2554L366.862 93.8554C367.214 93.8628 367.559 93.9582 367.864 94.1329C368.17 94.3075 368.427 94.5559 368.612 94.8554L373.282 102.715C375.782 103.633 378.197 104.764 380.502 106.095L388.062 104.705C388.41 104.641 388.769 104.666 389.105 104.777C389.441 104.889 389.743 105.085 389.982 105.345L401.812 118.005C402.059 118.269 402.234 118.59 402.322 118.94C402.409 119.29 402.406 119.657 402.312 120.005L400.412 127.435C401.584 129.832 402.547 132.324 403.292 134.885L410.812 140.085C411.104 140.286 411.341 140.557 411.5 140.873C411.659 141.19 411.736 141.541 411.722 141.895L411.132 159.205C411.121 159.556 411.023 159.899 410.849 160.204C410.675 160.509 410.429 160.767 410.132 160.955L402.262 165.625C401.349 168.131 400.221 170.553 398.892 172.865L400.272 180.405C400.337 180.753 400.312 181.112 400.2 181.448C400.088 181.784 399.893 182.086 399.632 182.325L386.892 194.155C386.63 194.404 386.308 194.58 385.958 194.668C385.608 194.755 385.241 194.751 384.892 194.655L377.492 192.765C375.081 193.932 372.575 194.892 370.002 195.635L364.852 203.155C364.667 203.452 364.411 203.699 364.108 203.873C363.804 204.048 363.462 204.144 363.112 204.155ZM347.022 199.385L362.022 199.895L367.022 192.705C367.299 192.286 367.724 191.986 368.212 191.865C371.026 191.096 373.757 190.047 376.362 188.735C376.817 188.516 377.333 188.463 377.822 188.585L384.822 190.375L395.822 180.125L394.562 172.895C394.465 172.39 394.558 171.867 394.822 171.425C396.308 168.949 397.531 166.325 398.472 163.595C398.631 163.101 398.966 162.681 399.412 162.415L406.942 157.955L407.452 142.955L400.252 137.955C399.873 137.696 399.589 137.321 399.442 136.885C399.442 136.835 399.442 136.775 399.442 136.715C398.672 133.951 397.627 131.271 396.322 128.715C396.091 128.258 396.034 127.732 396.162 127.235L397.962 120.155L387.712 109.155L380.522 110.475C380.02 110.566 379.502 110.474 379.062 110.215C376.581 108.727 373.954 107.497 371.222 106.545C371.066 106.495 370.915 106.428 370.772 106.345C370.484 106.165 370.244 105.918 370.072 105.625L365.562 98.0754L350.562 97.5554L345.562 104.765C345.264 105.188 344.824 105.49 344.322 105.615C341.537 106.376 338.837 107.418 336.262 108.725C335.809 108.957 335.285 109.014 334.792 108.885L327.712 107.085L316.712 117.335L318.032 124.505C318.111 124.958 318.044 125.423 317.842 125.835L317.742 126.005C316.255 128.491 315.032 131.125 314.092 133.865C313.927 134.335 313.601 134.732 313.172 134.985L305.642 139.455L305.132 154.455L312.342 159.455C312.753 159.737 313.051 160.155 313.182 160.635C313.932 163.443 314.974 166.165 316.292 168.755C316.364 168.903 316.421 169.057 316.462 169.215C316.538 169.544 316.538 169.886 316.462 170.215L314.662 177.215L324.912 188.215L332.052 186.905C332.551 186.814 333.066 186.906 333.502 187.165C336.002 188.651 338.646 189.88 341.392 190.835C341.888 190.983 342.307 191.316 342.562 191.765L347.022 199.385ZM356.292 180.415C355.922 180.415 355.552 180.415 355.182 180.415C346.869 180.269 338.951 176.845 333.15 170.889C327.349 164.933 324.135 156.927 324.209 148.613C324.282 140.299 327.636 132.35 333.541 126.497C339.445 120.644 347.423 117.36 355.737 117.36C364.052 117.36 372.029 120.644 377.934 126.497C383.839 132.35 387.193 140.299 387.266 148.613C387.339 156.927 384.126 164.933 378.325 170.889C372.524 176.845 364.605 180.269 356.292 180.415ZM356.292 121.325C349.028 121.451 342.107 124.44 337.036 129.644C331.966 134.848 329.156 141.843 329.218 149.109C329.281 156.374 332.211 163.321 337.371 168.436C342.53 173.551 349.502 176.421 356.767 176.421C364.033 176.421 371.004 173.551 376.164 168.436C381.324 163.321 384.254 156.374 384.316 149.109C384.379 141.843 381.569 134.848 376.498 129.644C371.428 124.44 364.507 121.451 357.242 121.325H356.292Z" fill="#CCD7FF" fill-opacity="0.3"/>
<path d="M318.434 95.6932L311.254 93.7732L309.333 86.5932L312.143 83.7932L315.103 89.9232L321.243 92.8932L318.434 95.6932Z" fill="#CCD7FF" fill-opacity="0.5"/>
<path d="M318.874 90.8929C319.184 90.5823 319.43 90.2136 319.599 89.8078C319.767 89.402 319.853 88.9671 319.853 88.5279C319.853 88.0886 319.767 87.6537 319.599 87.2479C319.43 86.8421 319.184 86.4734 318.874 86.1629C318.563 85.8523 318.194 85.6059 317.788 85.4378C317.383 85.2698 316.948 85.1832 316.509 85.1832C316.069 85.1832 315.634 85.2698 315.229 85.4378C314.823 85.6059 314.454 85.8523 314.144 86.1629L317.714 80.8029L322.494 83.2229L323.544 88.2229L318.874 90.8929Z" fill="#CCD7FF" fill-opacity="0.5"/>
<path d="M311.573 84.3732L316.833 79.1132L323.993 81.0232L325.923 88.1932L320.663 93.4532L313.493 91.5232L311.573 84.3732ZM321.123 88.6732C321.591 88.2045 321.91 87.6076 322.039 86.9579C322.168 86.3081 322.102 85.6347 321.848 85.0228C321.594 84.4108 321.165 83.8878 320.614 83.5199C320.063 83.1519 319.416 82.9555 318.753 82.9555C318.091 82.9555 317.443 83.1519 316.892 83.5199C316.342 83.8878 315.912 84.4108 315.659 85.0228C315.405 85.6347 315.338 86.3081 315.467 86.9579C315.596 87.6076 315.915 88.2045 316.383 88.6732C317.017 89.2946 317.87 89.6411 318.757 89.6373C319.645 89.6336 320.495 89.2799 321.123 88.6532V88.6732Z" fill="#F0F0F0"/>
<path d="M95.9217 59.8157L99.1217 63.0156C99.5219 63.409 100.061 63.6293 100.622 63.6293C101.183 63.6293 101.721 63.409 102.122 63.0156C102.513 62.6142 102.731 62.076 102.731 61.5156C102.731 60.9553 102.513 60.4171 102.122 60.0156L98.9317 56.8256C98.5302 56.4347 97.992 56.2159 97.4317 56.2159C96.8713 56.2159 96.3331 56.4347 95.9317 56.8256C95.54 57.2241 95.3198 57.7599 95.3179 58.3186C95.316 58.8773 95.5327 59.4146 95.9217 59.8157Z" fill="#F0F0F0"/>
<path d="M93.6722 51.8649C94.5072 51.6327 95.3919 51.6494 96.2176 51.913C97.0432 52.1765 97.774 52.6755 98.32 53.3485C98.8661 54.0215 99.2038 54.8394 99.2915 55.7017C99.3793 56.5639 99.2134 57.433 98.8141 58.2023C98.4148 58.9715 97.7996 59.6075 97.044 60.032C96.2883 60.4565 95.4252 60.6511 94.5605 60.5919C93.6958 60.5327 92.8672 60.2223 92.1765 59.6988C91.4858 59.1753 90.9629 58.4614 90.6722 57.6449C90.4877 57.0685 90.4189 56.4613 90.47 55.8582C90.521 55.255 90.6908 54.668 90.9697 54.1308C91.2485 53.5936 91.6308 53.1168 92.0946 52.7279C92.5585 52.3391 93.0946 52.0458 93.6722 51.8649Z" fill="#CCD7FF" fill-opacity="0.5"/>
<path d="M90.1916 57.1102L90.6548 58.3995L100.16 54.9849L99.6969 53.6956L90.1916 57.1102Z" fill="#F0F0F0"/>
<path d="M150.754 169.944L134.976 168.596L141.539 90.3646L111.098 87.7635L41.0278 158.899L38.5871 187.984L102.232 193.428L100.234 217.215L130.68 219.797L132.678 196.01L148.456 197.358L150.754 169.944ZM70.8921 163.167L107.917 125.994L104.561 166.053L70.8921 163.167Z" fill="#90CAF9"/>
<path d="M150.754 169.944L134.976 168.596L141.539 90.3646L111.098 87.7635L41.0278 158.899L38.5871 187.984L102.232 193.428L100.234 217.215L130.68 219.797L132.678 196.01L148.456 197.358L150.754 169.944ZM70.8921 163.167L107.917 125.994L104.561 166.053L70.8921 163.167Z" fill="url(#paint0_linear_3113_38727)"/>
<path fill-rule="evenodd" clip-rule="evenodd" d="M279.716 134.504C281.368 139.093 282.443 143.87 282.916 148.724C284.083 159.134 283.982 169.648 282.616 180.034C279.543 204.021 273.276 221.054 263.816 231.134C254.356 241.214 239.833 244.977 220.246 242.424C209.226 240.997 200.559 238.067 194.246 233.634C187.861 229.123 182.803 222.983 179.596 215.854C177.076 210.567 175.483 203.591 174.816 194.924C174.185 185.468 174.52 175.972 175.816 166.584C179.063 141.464 185.796 124.464 196.016 115.584C206.236 106.704 220.496 103.457 238.796 105.844C247.609 106.991 254.683 109.027 260.016 111.954C264.913 114.503 269.235 118.029 272.716 122.314C275.656 125.997 278.016 130.108 279.716 134.504ZM224.707 209.636C226.248 209.836 227.778 209.966 229.201 210.014L229.195 210.037C236.315 210.309 241.435 208.632 244.847 204.995C249.447 200.082 252.612 191.143 254.247 178.424C254.991 172.8 255.048 167.105 254.419 161.467C254.199 159.14 253.692 156.849 252.907 154.647C252.139 152.672 251.074 150.827 249.748 149.173C248.233 147.343 246.363 145.839 244.251 144.751C241.807 143.417 238.353 142.472 233.995 141.881C232.478 141.687 231.001 141.563 229.608 141.515C222.818 141.279 217.651 142.779 213.825 146.097C210.548 148.943 206.197 155.775 204.089 172.142C203.383 177.247 203.201 182.411 203.545 187.553C203.87 191.834 204.614 195.229 205.748 197.59L205.777 197.655C207.19 200.83 209.434 203.563 212.272 205.567C215.118 207.563 219.299 208.933 224.707 209.636Z" fill="url(#paint1_linear_3113_38727)"/>
<path d="M409.569 172.682L393.869 170.562L404.249 92.7518L373.969 88.6718L300.519 156.292L296.659 185.222L359.949 193.762L356.789 217.432L387.069 221.512L390.229 197.852L405.929 199.972L409.569 172.682ZM330.149 161.962L368.909 126.632L363.589 166.472L330.149 161.962Z" fill="#90CAF9"/>
<path d="M409.569 172.682L393.869 170.562L404.249 92.7518L373.969 88.6718L300.519 156.292L296.659 185.222L359.949 193.762L356.789 217.432L387.069 221.512L390.229 197.852L405.929 199.972L409.569 172.682ZM330.149 161.962L368.909 126.632L363.589 166.472L330.149 161.962Z" fill="url(#paint2_linear_3113_38727)"/>
<g style="mix-blend-mode:darken">
<path d="M377.491 221.512H377.361C377.231 221.487 377.116 221.413 377.042 221.304C376.967 221.195 376.938 221.062 376.961 220.932L400.361 92.9917C400.388 92.8633 400.463 92.75 400.571 92.6755C400.679 92.601 400.811 92.571 400.941 92.5917C401.071 92.6161 401.186 92.6907 401.261 92.7993C401.335 92.908 401.364 93.0418 401.341 93.1717L377.991 221.102C377.968 221.217 377.905 221.321 377.814 221.396C377.723 221.471 377.609 221.512 377.491 221.512Z" fill="#235579"/>
</g>
<g style="mix-blend-mode:darken">
<path d="M398.19 95.1429C398.182 95.3604 398.088 95.5658 397.929 95.7139C397.77 95.8621 397.558 95.9409 397.34 95.9329C397.123 95.925 396.917 95.8309 396.769 95.6715C396.621 95.5121 396.542 95.3004 396.55 95.0829C396.558 94.8654 396.652 94.66 396.812 94.5119C396.971 94.3637 397.183 94.285 397.4 94.2929C397.618 94.3009 397.823 94.3949 397.971 94.5543C398.12 94.7137 398.198 94.9254 398.19 95.1429Z" fill="#235579"/>
</g>
<g style="mix-blend-mode:darken">
<path d="M394.861 112.442C394.855 112.604 394.801 112.76 394.706 112.892C394.611 113.023 394.479 113.123 394.327 113.18C394.175 113.236 394.01 113.246 393.852 113.209C393.695 113.172 393.551 113.088 393.441 112.969C393.331 112.851 393.258 112.702 393.232 112.542C393.206 112.382 393.229 112.218 393.296 112.07C393.363 111.923 393.473 111.799 393.611 111.713C393.749 111.628 393.909 111.586 394.071 111.592C394.179 111.596 394.285 111.621 394.383 111.665C394.481 111.71 394.569 111.774 394.642 111.853C394.716 111.932 394.773 112.025 394.81 112.126C394.848 112.227 394.865 112.334 394.861 112.442Z" fill="#235579"/>
</g>
<g style="mix-blend-mode:darken">
<path d="M391.531 129.772C391.527 129.88 391.502 129.985 391.457 130.083C391.413 130.181 391.349 130.27 391.27 130.343C391.191 130.416 391.098 130.473 390.997 130.511C390.896 130.549 390.789 130.566 390.681 130.562C390.574 130.559 390.468 130.535 390.37 130.492C390.272 130.448 390.184 130.385 390.111 130.307C390.037 130.229 389.98 130.137 389.942 130.036C389.905 129.936 389.887 129.829 389.891 129.722C389.894 129.613 389.918 129.506 389.962 129.407C390.006 129.308 390.07 129.219 390.149 129.144C390.228 129.07 390.321 129.012 390.423 128.974C390.524 128.935 390.633 128.918 390.741 128.922C390.958 128.932 391.162 129.027 391.309 129.186C391.457 129.345 391.537 129.555 391.531 129.772Z" fill="#235579"/>
</g>
<g style="mix-blend-mode:darken">
<path d="M384.971 147.773C384.949 147.974 384.853 148.159 384.703 148.294C384.552 148.428 384.358 148.503 384.156 148.503C383.954 148.503 383.759 148.428 383.609 148.294C383.459 148.159 383.363 147.974 383.341 147.773C383.328 147.658 383.34 147.542 383.375 147.433C383.41 147.323 383.468 147.222 383.545 147.136C383.622 147.05 383.716 146.981 383.821 146.934C383.927 146.887 384.041 146.863 384.156 146.863C384.271 146.863 384.385 146.887 384.491 146.934C384.596 146.981 384.69 147.05 384.767 147.136C384.844 147.222 384.902 147.323 384.937 147.433C384.972 147.542 384.984 147.658 384.971 147.773Z" fill="#235579"/>
</g>
<g style="mix-blend-mode:darken">
<path d="M384.861 164.343C384.859 164.451 384.834 164.558 384.79 164.656C384.746 164.755 384.682 164.844 384.603 164.917C384.524 164.991 384.43 165.048 384.329 165.085C384.227 165.122 384.119 165.138 384.011 165.133C383.849 165.127 383.693 165.073 383.561 164.978C383.43 164.883 383.33 164.751 383.273 164.599C383.217 164.447 383.206 164.282 383.244 164.124C383.281 163.966 383.365 163.823 383.483 163.713C383.602 163.603 383.751 163.53 383.911 163.504C384.071 163.478 384.235 163.5 384.383 163.568C384.53 163.635 384.654 163.745 384.739 163.883C384.825 164.021 384.867 164.181 384.861 164.343Z" fill="#235579"/>
</g>
<g style="mix-blend-mode:darken">
<path d="M381.53 181.643C381.526 181.805 381.474 181.963 381.38 182.096C381.286 182.228 381.155 182.33 381.003 182.388C380.851 182.446 380.686 182.458 380.527 182.421C380.369 182.385 380.225 182.302 380.113 182.184C380.002 182.065 379.928 181.917 379.902 181.756C379.875 181.596 379.897 181.431 379.964 181.283C380.031 181.135 380.141 181.01 380.279 180.925C380.417 180.839 380.578 180.797 380.74 180.803C380.956 180.81 381.16 180.903 381.308 181.06C381.456 181.218 381.536 181.427 381.53 181.643Z" fill="#235579"/>
</g>
<g style="mix-blend-mode:darken">
<path d="M378.201 198.942C378.193 199.161 378.1 199.367 377.94 199.517C377.781 199.667 377.57 199.748 377.351 199.742C377.243 199.739 377.138 199.713 377.04 199.669C376.941 199.624 376.853 199.56 376.78 199.481C376.707 199.402 376.649 199.31 376.612 199.209C376.574 199.108 376.557 199 376.561 198.892C376.564 198.785 376.589 198.679 376.633 198.581C376.677 198.482 376.74 198.394 376.819 198.32C376.897 198.246 376.99 198.188 377.09 198.15C377.191 198.112 377.298 198.094 377.406 198.097C377.514 198.101 377.62 198.125 377.718 198.169C377.816 198.214 377.905 198.277 377.979 198.355C378.052 198.434 378.11 198.526 378.148 198.627C378.186 198.727 378.204 198.835 378.201 198.942Z" fill="#235579"/>
</g>
<g style="mix-blend-mode:darken">
<path d="M384.151 148.223C384.038 148.223 383.929 148.184 383.842 148.113C383.754 148.042 383.694 147.943 383.671 147.833C383.656 147.769 383.654 147.702 383.665 147.637C383.677 147.572 383.7 147.51 383.736 147.454C383.771 147.398 383.817 147.35 383.871 147.312C383.925 147.274 383.986 147.247 384.051 147.233L386.531 146.703C386.596 146.688 386.663 146.687 386.729 146.699C386.794 146.71 386.857 146.735 386.913 146.772C386.969 146.808 387.017 146.855 387.054 146.91C387.092 146.965 387.118 147.028 387.131 147.093C387.144 147.157 387.144 147.224 387.132 147.288C387.119 147.353 387.094 147.414 387.058 147.469C387.022 147.524 386.975 147.571 386.921 147.607C386.866 147.644 386.805 147.67 386.741 147.683L384.261 148.213L384.151 148.223Z" fill="#235579"/>
</g>
<g style="mix-blend-mode:darken">
<path d="M392.44 139.013C391.261 142.073 390.259 145.198 389.44 148.373C388.69 151.903 388.65 159.803 388.65 159.803" fill="#235579"/>
</g>
<g style="mix-blend-mode:darken">
<path d="M388.65 160.302C388.518 160.297 388.392 160.242 388.299 160.147C388.206 160.052 388.153 159.925 388.15 159.792C388.15 159.472 388.21 151.792 388.96 148.272C389.774 145.07 390.776 141.918 391.96 138.832C391.98 138.767 392.014 138.706 392.058 138.653C392.103 138.601 392.158 138.558 392.22 138.528C392.282 138.498 392.349 138.481 392.418 138.478C392.487 138.475 392.555 138.487 392.619 138.512C392.683 138.536 392.742 138.574 392.791 138.623C392.839 138.671 392.878 138.729 392.903 138.793C392.929 138.857 392.941 138.925 392.939 138.994C392.936 139.063 392.92 139.13 392.89 139.192C391.712 142.229 390.71 145.331 389.89 148.482C389.16 151.922 389.11 159.722 389.1 159.802C389.101 159.927 389.055 160.047 388.972 160.139C388.889 160.232 388.774 160.29 388.65 160.302Z" fill="#235579"/>
</g>
<path d="M178.382 156.841L182.232 155.801L183.262 151.951L181.762 150.451L180.172 153.741L176.872 155.331L178.382 156.841Z" fill="#E0E0E0"/>
<path d="M178.163 154.261C177.862 153.918 177.703 153.472 177.718 153.016C177.733 152.559 177.921 152.126 178.244 151.803C178.567 151.48 179.001 151.292 179.457 151.277C179.914 151.261 180.359 151.42 180.703 151.721L178.793 148.851L176.163 150.131L175.603 152.831L178.163 154.261Z" fill="#E0E0E0"/>
<path d="M182.063 150.751L179.243 147.931L175.393 148.931L174.393 152.781L177.163 155.631L181.013 154.631L182.063 150.751ZM176.943 153.061C176.757 152.899 176.607 152.7 176.502 152.478C176.396 152.255 176.337 152.013 176.329 151.767C176.321 151.52 176.364 151.275 176.454 151.046C176.545 150.817 176.681 150.609 176.856 150.434C177.03 150.26 177.238 150.124 177.467 150.033C177.696 149.942 177.942 149.9 178.188 149.908C178.434 149.916 178.676 149.975 178.899 150.08C179.122 150.186 179.32 150.336 179.483 150.521C179.783 150.865 179.942 151.31 179.927 151.767C179.912 152.223 179.724 152.657 179.401 152.98C179.078 153.303 178.644 153.491 178.188 153.506C177.731 153.521 177.286 153.362 176.943 153.061Z" fill="#F0F0F0"/>
</g>
<rect x="18" y="201.928" width="420" height="5.68073" rx="2.84036" fill="#6DBBEE"/>
<g opacity="0.5">
<path d="M57.0752 217.748H99.0933" stroke="#73B4E8" stroke-width="5" stroke-linecap="round"/>
<path d="M393.814 240.339H435.833" stroke="#73B4E8" stroke-width="5" stroke-linecap="round"/>
<path d="M179.538 252.981H221.556" stroke="#73B4E8" stroke-width="5" stroke-linecap="round"/>
<path d="M128.78 231.506H170.798" stroke="#BDE2FF" stroke-width="3" stroke-linecap="round"/>
<path d="M293.241 252.981H335.259" stroke="#32A5FF" stroke-width="3" stroke-linecap="round"/>
<path d="M401.567 214.086H443.585" stroke="#BDE2FF" stroke-width="3" stroke-linecap="round"/>
<path d="M393.045 267.282H435.063" stroke="#BDE2FF" stroke-width="3" stroke-linecap="round"/>
<path d="M234.4 217.748H276.419" stroke="#BDE2FF" stroke-width="3" stroke-linecap="round"/>
<path d="M85.9561 260.144H112.252" stroke="#32A5FF" stroke-width="3" stroke-linecap="round"/>
<path d="M337.714 231.506H364.009" stroke="#32A5FF" stroke-width="3" stroke-linecap="round"/>
</g>
<g style="mix-blend-mode:lighten">
<rect x="47.2573" y="213.689" width="406.146" height="53.5928" fill="url(#paint3_linear_3113_38727)"/>
</g>
<defs>
<linearGradient id="paint0_linear_3113_38727" x1="84.0054" y1="90.9733" x2="72.5979" y2="226.343" gradientUnits="userSpaceOnUse">
<stop stop-color="#90F9E1"/>
<stop offset="0.95469" stop-color="#69B3EF"/>
</linearGradient>
<linearGradient id="paint1_linear_3113_38727" x1="208.244" y1="108.352" x2="216.924" y2="259.525" gradientUnits="userSpaceOnUse">
<stop stop-color="#90F9E1"/>
<stop offset="0.95469" stop-color="#69B3EF"/>
</linearGradient>
<linearGradient id="paint2_linear_3113_38727" x1="320.177" y1="104.276" x2="344.639" y2="237.471" gradientUnits="userSpaceOnUse">
<stop stop-color="#90F9E1"/>
<stop offset="0.95469" stop-color="#69B3EF"/>
</linearGradient>
<linearGradient id="paint3_linear_3113_38727" x1="212.125" y1="163.032" x2="271.96" y2="291.022" gradientUnits="userSpaceOnUse">
<stop stop-color="#8CF2E0" stop-opacity="0"/>
<stop offset="1" stop-color="#8CF2E0"/>
</linearGradient>
<clipPath id="clip0_3113_38727">
<rect width="420" height="157" fill="white" transform="translate(18.3242 45.0918)"/>
</clipPath>
</defs>
</svg>
