<svg width="372" height="215" viewBox="0 0 372 215" fill="none" xmlns="http://www.w3.org/2000/svg">
<path fill-rule="evenodd" clip-rule="evenodd" d="M214.538 72.9351L266.274 11.9683L293.21 87.2565L214.538 72.9351ZM223.982 69.5582L264.483 21.8367L285.565 80.7647L223.982 69.5582Z" fill="#EBEBEB"/>
<path fill-rule="evenodd" clip-rule="evenodd" d="M264.794 37.836L258.55 36.6963L254.791 59.7677L260.186 60.7446L264.794 37.836ZM254.253 62.6634L259.644 63.645L258.662 69.0357L253.271 68.0541L254.253 62.6634Z" fill="#EBEBEB"/>
<path d="M125.136 69.3718L128.446 66.2818L127.136 63.6718C128.136 62.5023 129.035 61.2512 129.826 59.9318L132.726 60.3618L134.596 56.2218L132.376 54.3318C132.854 52.868 133.206 51.3658 133.426 49.8418L136.276 49.1318L136.416 44.5918L133.636 43.6918C133.514 42.1542 133.267 40.6291 132.896 39.1318L135.246 37.3818L133.646 33.1318L130.736 33.3618C130.034 31.9911 129.222 30.68 128.306 29.4418L129.816 26.9418L126.706 23.6218L124.106 24.9518C122.935 23.9547 121.684 23.0551 120.366 22.2618L120.786 19.3618L116.656 17.4718L114.756 19.7018C113.29 19.2451 111.788 18.9106 110.266 18.7018L109.556 15.8618L105.016 15.6918L104.106 18.4918C102.575 18.6088 101.056 18.8564 99.5662 19.2318L97.8262 16.8818L93.5662 18.4718L93.8062 21.3918C92.4316 22.0867 91.12 22.8997 89.8862 23.8218L87.3662 22.3118L84.0462 25.4018L85.3362 27.9518C84.3296 29.1179 83.4262 30.3693 82.6362 31.6918L79.7462 31.2618L77.8662 35.4018L80.0962 37.3018C79.6339 38.7634 79.2993 40.2623 79.0962 41.7818L76.2362 42.4918L76.0962 47.0318L78.8862 47.9318C79 49.4697 79.2442 50.9952 79.6162 52.4918L77.2562 54.2318L78.8562 58.4818L81.7762 58.2618C82.478 59.6325 83.2907 60.9435 84.2062 62.1818L82.6962 64.6818L85.8062 68.0018L88.4062 66.6718C89.575 67.672 90.8261 68.5719 92.1462 69.3618L91.7162 72.2518L95.8562 74.1418L97.7562 71.9218C99.224 72.3737 100.725 72.7081 102.246 72.9218L102.956 75.7618L107.496 75.9318L108.406 73.1318C109.938 73.0154 111.457 72.7678 112.946 72.3918L114.686 74.7418L118.946 73.1518L118.716 70.2318C120.087 69.5359 121.395 68.7229 122.626 67.8018L125.136 69.3718ZM101.516 50.2418C100.643 49.306 100.067 48.1323 99.8608 46.8691C99.6547 45.6059 99.8279 44.31 100.359 43.1452C100.889 41.9805 101.753 40.9993 102.842 40.3257C103.93 39.6522 105.194 39.3166 106.473 39.3614C107.752 39.4062 108.989 39.8293 110.028 40.5773C111.066 41.3253 111.86 42.3646 112.307 43.5636C112.755 44.7626 112.837 46.0675 112.543 47.3132C112.25 48.5589 111.593 49.6894 110.656 50.5618C110.035 51.1478 109.303 51.6048 108.504 51.9062C107.704 52.2076 106.853 52.3475 105.999 52.3177C105.146 52.288 104.306 52.0891 103.53 51.7328C102.753 51.3765 102.055 50.8697 101.476 50.2418H101.516Z" fill="#EBEBEB"/>
<path d="M67.5761 17.2718L60.3961 15.3518L58.4761 8.17183L61.2861 5.37183L64.2461 11.5018L70.3861 14.4718L67.5761 17.2718Z" fill="#E0E0E0"/>
<path d="M68.0166 12.4715C68.3272 12.1609 68.5736 11.7922 68.7416 11.3864C68.9097 10.9806 68.9962 10.5457 68.9962 10.1065C68.9962 9.66725 68.9097 9.23233 68.7416 8.82654C68.5736 8.42075 68.3272 8.05205 68.0166 7.74147C67.7061 7.43089 67.3373 7.18453 66.9315 7.01645C66.5258 6.84837 66.0909 6.76186 65.6516 6.76186C65.2124 6.76186 64.7775 6.84837 64.3717 7.01645C63.9659 7.18453 63.5972 7.43089 63.2866 7.74147L66.8566 2.38147L71.6366 4.80147L72.6866 9.80147L68.0166 12.4715Z" fill="#E0E0E0"/>
<path d="M60.7163 5.95177L65.9763 0.691772L73.1363 2.60178L75.0663 9.77177L69.8063 15.0318L62.6363 13.1018L60.7163 5.95177ZM70.2663 10.2518C70.7345 9.78314 71.0532 9.18621 71.1822 8.53647C71.3112 7.88672 71.2446 7.21333 70.991 6.60139C70.7373 5.98946 70.308 5.46646 69.7571 5.0985C69.2063 4.73055 68.5588 4.53416 67.8963 4.53416C67.2339 4.53416 66.5864 4.73055 66.0355 5.0985C65.4847 5.46646 65.0553 5.98946 64.8016 6.60139C64.548 7.21333 64.4815 7.88672 64.6104 8.53647C64.7394 9.18621 65.0582 9.78314 65.5263 10.2518C66.1599 10.8732 67.013 11.2197 67.9004 11.216C68.7879 11.2122 69.638 10.8586 70.2663 10.2318V10.2518Z" fill="#F0F0F0"/>
<path d="M29.9222 188.118L56.5837 177.361C59.302 183.015 63.1651 187.009 68.173 189.345C73.1606 191.618 78.1795 192.016 83.2296 190.538C89.0011 188.849 93.1655 185.22 95.7229 179.652C98.2599 174.021 98.0648 166.747 95.1375 157.829C92.3931 149.468 88.3396 143.798 82.9768 140.819C77.6593 137.76 71.8197 137.161 65.4579 139.023C57.5221 141.346 51.4937 146.742 47.3726 155.212L23.9362 158.711L14.8364 83.6819L87.9314 62.2871L95.951 86.7199L43.8106 101.981L47.0748 126.381C52.2843 121.665 58.1028 118.367 64.5302 116.486C76.7946 112.896 88.5723 114.065 99.8631 119.992C111.154 125.919 119.005 135.603 123.416 149.042C127.096 160.252 126.936 171.262 122.936 182.073C117.501 196.833 106.454 206.651 89.7954 211.527C76.4815 215.424 64.5192 215.226 53.9085 210.932C43.2977 206.639 35.3023 199.034 29.9222 188.118Z" fill="#90CAF9"/>
<path d="M29.9222 188.118L56.5837 177.361C59.302 183.015 63.1651 187.009 68.173 189.345C73.1606 191.618 78.1795 192.016 83.2296 190.538C89.0011 188.849 93.1655 185.22 95.7229 179.652C98.2599 174.021 98.0648 166.747 95.1375 157.829C92.3931 149.468 88.3396 143.798 82.9768 140.819C77.6593 137.76 71.8197 137.161 65.4579 139.023C57.5221 141.346 51.4937 146.742 47.3726 155.212L23.9362 158.711L14.8364 83.6819L87.9314 62.2871L95.951 86.7199L43.8106 101.981L47.0748 126.381C52.2843 121.665 58.1028 118.367 64.5302 116.486C76.7946 112.896 88.5723 114.065 99.8631 119.992C111.154 125.919 119.005 135.603 123.416 149.042C127.096 160.252 126.936 171.262 122.936 182.073C117.501 196.833 106.454 206.651 89.7954 211.527C76.4815 215.424 64.5192 215.226 53.9085 210.932C43.2977 206.639 35.3023 199.034 29.9222 188.118Z" fill="url(#paint0_linear_2926_40922)"/>
<path d="M29.0894 74.7251H28.9094C24.4094 72.9751 21.7194 71.2751 20.3194 69.2251C19.2235 69.4328 18.0898 69.2784 17.0894 68.7851C15.9176 68.2116 14.9454 67.2987 14.2994 66.1652C13.9599 66.4257 13.56 66.5963 13.1369 66.6609C12.7139 66.7256 12.2813 66.6824 11.8794 66.5351C10.647 66.074 9.59535 65.2292 8.87942 64.1251C8.4316 64.4587 7.87492 64.6122 7.31943 64.5552C4.31943 64.3152 0.319425 58.3951 0.0294249 52.0951C0.0264756 51.9622 0.0745885 51.8331 0.16387 51.7345C0.253152 51.636 0.37681 51.5753 0.509421 51.5651C0.575094 51.5625 0.640654 51.5728 0.702345 51.5954C0.764036 51.6181 0.820651 51.6528 0.868948 51.6973C0.917246 51.7419 0.95628 51.7956 0.983816 51.8553C1.01135 51.9149 1.02685 51.9795 1.02942 52.0451C1.30942 58.0451 5.13942 63.3752 7.40942 63.5552C7.57458 63.5737 7.74178 63.5594 7.9014 63.5131C8.06101 63.4667 8.20987 63.3893 8.33942 63.2851C7.55733 61.8594 7.06619 60.2925 6.89453 58.6755C6.72287 57.0584 6.87409 55.4233 7.33942 53.8651C8.19942 50.8651 8.95942 49.6851 9.87942 49.8651C11.5994 50.2951 11.3694 56.8651 10.4594 61.1551C10.3215 61.9289 10.0364 62.6689 9.61942 63.3351C10.2089 64.3237 11.0989 65.098 12.1594 65.5451C12.4421 65.6528 12.7497 65.677 13.0457 65.615C13.3418 65.5529 13.6138 65.4072 13.8294 65.1952C13.0494 63.2652 12.8294 60.6251 13.9494 57.2651C15.3494 52.8351 15.9494 52.7152 16.2594 52.6352C16.376 52.6106 16.4971 52.6181 16.6098 52.6569C16.7224 52.6956 16.8225 52.7641 16.8994 52.8552C17.8294 53.9052 16.7194 60.7851 15.5594 64.1851C15.4236 64.5943 15.2353 64.9842 14.9994 65.3451C15.536 66.4267 16.41 67.3043 17.4894 67.8451C18.1974 68.1894 18.9847 68.3379 19.7694 68.2752C19.6794 68.0852 19.5994 67.8952 19.5194 67.6952C18.7294 65.5452 19.1194 63.0751 20.7094 60.1151C21.7594 58.1651 22.6194 57.2452 23.4194 57.2452C23.6318 57.248 23.8389 57.3117 24.0161 57.4286C24.1934 57.5456 24.3333 57.711 24.4194 57.9051C25.2894 59.5151 24.6594 64.8252 22.9394 67.4652C22.5367 68.0704 21.9766 68.5544 21.3194 68.8651C22.6594 70.6251 25.2094 72.1751 29.3194 73.7551C29.3811 73.7774 29.4376 73.8117 29.4857 73.8561C29.5339 73.9006 29.5726 73.9542 29.5996 74.0139C29.6266 74.0736 29.6414 74.138 29.6431 74.2035C29.6448 74.269 29.6334 74.3342 29.6094 74.3951C29.5706 74.4993 29.4987 74.5879 29.4049 74.6475C29.311 74.7071 29.2002 74.7343 29.0894 74.7251ZM23.4094 58.2551C23.4094 58.2551 22.8394 58.2552 21.5794 60.6052C20.1294 63.2852 19.7594 65.4952 20.4494 67.3552C20.5331 67.5855 20.6333 67.8094 20.7494 68.0252C21.2911 67.8013 21.7516 67.4176 22.0694 66.9251C23.4694 64.7851 24.1394 60.3852 23.6194 58.6652C23.5494 58.3152 23.4094 58.2551 23.4094 58.2551ZM16.2294 54.0451C15.6881 55.1837 15.24 56.3642 14.8894 57.5751C14.1225 59.6738 13.9903 61.9519 14.5094 64.1251L14.5994 63.8651C15.6495 60.6954 16.2093 57.3839 16.2594 54.0451H16.2294ZM9.64942 50.8951C9.47942 51.0451 8.98942 51.6751 8.29942 54.1151C7.48334 56.8535 7.74079 59.7998 9.01942 62.3552C9.22461 61.9081 9.37567 61.4381 9.46942 60.9551C10.5394 56.0451 10.2394 51.6051 9.67942 50.8951H9.64942Z" fill="#263238"/>
<path d="M109.042 120.819C108.188 121.553 107.153 122.047 106.045 122.248C105.952 122.263 105.857 122.241 105.78 122.187C105.704 122.132 105.651 122.05 105.634 121.958C105.627 121.913 105.628 121.866 105.638 121.821C105.649 121.776 105.668 121.734 105.695 121.697C105.722 121.66 105.756 121.628 105.795 121.604C105.834 121.58 105.878 121.564 105.924 121.558C108.797 121.063 110.618 118.184 110.436 116.928C110.429 116.845 110.406 116.764 110.368 116.691C110.329 116.617 110.277 116.552 110.213 116.499C109.276 117.384 108.068 117.927 106.785 118.041C104.689 118.341 104.363 118.173 104.201 117.959C104.154 117.898 104.125 117.826 104.115 117.749C104.106 117.673 104.118 117.595 104.149 117.525C104.46 116.801 107.831 115.87 109.407 115.685C109.596 115.663 109.788 115.663 109.977 115.683C110.299 115.258 110.477 114.74 110.484 114.206C110.485 113.903 110.419 113.604 110.289 113.33L110.181 113.42C109.391 114.233 108.216 114.587 106.577 114.512C105.451 114.466 104.868 114.266 104.681 113.88C104.63 113.77 104.612 113.648 104.628 113.528C104.645 113.408 104.695 113.295 104.774 113.203C105.359 112.387 107.865 111.622 109.308 111.815C109.626 111.854 109.929 111.973 110.189 112.161C110.618 111.237 110.731 109.862 110.579 107.898C110.575 107.852 110.58 107.805 110.594 107.761C110.608 107.717 110.63 107.675 110.66 107.64C110.69 107.604 110.727 107.575 110.769 107.554C110.81 107.533 110.855 107.52 110.902 107.516C110.995 107.51 111.087 107.54 111.158 107.6C111.23 107.66 111.275 107.746 111.284 107.839C111.464 110.12 111.293 111.645 110.719 112.691C111.01 113.127 111.163 113.64 111.158 114.164C111.151 114.787 110.965 115.394 110.623 115.914C110.757 116.021 110.868 116.153 110.951 116.304C111.033 116.454 111.085 116.619 111.103 116.79C111.299 117.942 110.476 119.612 109.042 120.819ZM105.412 117.483C105.709 117.463 106.118 117.423 106.68 117.337C107.589 117.239 108.46 116.923 109.22 116.414C107.914 116.624 106.637 116.983 105.412 117.483ZM105.364 113.608C105.764 113.769 106.194 113.844 106.626 113.826C108.045 113.893 109.059 113.619 109.687 112.943L109.859 112.798C109.68 112.663 109.468 112.577 109.245 112.55C107.774 112.334 105.669 113.204 105.364 113.608Z" fill="#263238"/>
<path d="M366.971 52.9059L367.491 51.6559C367.844 51.4566 368.179 51.2257 368.491 50.9659H369.651L371.011 48.9659L370.571 47.8959C370.739 47.5395 370.873 47.1678 370.971 46.7859L371.971 45.8659L371.551 43.5159L370.291 42.9959C370.093 42.6413 369.862 42.3064 369.601 41.9959V40.8359L367.651 39.4759L366.571 39.9259C366.176 39.7868 365.767 39.6929 365.351 39.6459L364.431 38.6459L362.091 39.0659L361.561 40.3259C361.19 40.5183 360.838 40.746 360.511 41.0059H359.361L358.001 43.0059L358.441 44.0759C358.306 44.472 358.212 44.8808 358.161 45.2959L357.161 46.2259L357.581 48.5659L358.841 49.0859C359.031 49.4423 359.259 49.7775 359.521 50.0859V51.2359L361.521 52.5959L362.591 52.1559C362.991 52.2859 363.403 52.3763 363.821 52.4259L364.741 53.4259L366.971 52.9059ZM361.971 46.4259C361.876 45.9041 361.938 45.366 362.15 44.8797C362.361 44.3934 362.712 43.9807 363.158 43.6938C363.604 43.407 364.125 43.2589 364.655 43.2684C365.185 43.2778 365.701 43.4443 366.136 43.7468C366.572 44.0492 366.908 44.4741 367.102 44.9677C367.296 45.4612 367.339 46.0012 367.226 46.5192C367.113 47.0373 366.849 47.5102 366.467 47.8781C366.085 48.246 365.603 48.4923 365.081 48.5859C364.382 48.7084 363.664 48.5502 363.081 48.1457C362.499 47.7412 362.1 47.1231 361.971 46.4259Z" fill="#CDCDCD"/>
<path d="M339.581 46.2763L338.811 45.6263C340.461 43.5797 342.5 41.8803 344.811 40.6263L345.281 41.5063C343.084 42.7027 341.146 44.3242 339.581 46.2763Z" fill="#CDCDCD"/>
<path d="M347.56 40.5869L347.17 39.6669C350.863 38.0622 354.901 37.4155 358.91 37.7869L358.81 38.7869C354.968 38.4248 351.098 39.0441 347.56 40.5869Z" fill="#CDCDCD"/>
<path d="M345.671 47.506L344.851 46.946C347.26 43.6927 350.767 41.4225 354.721 40.556L354.911 41.556C351.216 42.3631 347.935 44.4756 345.671 47.506Z" fill="#CDCDCD"/>
<path fill-rule="evenodd" clip-rule="evenodd" d="M364.387 97.7383C365.319 102.526 365.651 107.411 365.377 112.28C364.939 122.747 363.232 133.121 360.295 143.177C353.592 166.412 344.796 182.287 333.906 190.803C323.017 199.319 308.089 200.818 289.123 195.302C278.45 192.208 270.333 187.987 264.771 182.641C259.151 177.208 255.09 170.367 253.011 162.831C252.001 159.463 251.414 155.545 251.25 151.075L260.771 154.289L267.912 163.737L283.859 160.909C282.078 158.889 281.049 157.274 280.256 155.319C282.753 161.151 288.023 165.792 297.606 168.795C321.245 176.204 327.921 160.105 333.649 139.46C339.377 118.815 341.987 101.441 318.347 94.0325C294.707 86.6237 288.031 102.723 282.303 123.368C279.371 133.936 277.256 143.647 279.061 151.603C279.002 151.383 278.943 151.158 278.882 150.927L269.065 155.443L261.574 148.52L251.206 149.173C251.182 146.74 251.275 144.155 251.486 141.417C252.307 131.975 254.089 122.642 256.805 113.562C263.853 89.2336 273.105 73.4624 284.562 66.2486C296.019 59.0349 310.608 58.0057 328.328 63.1611C336.863 65.6413 343.542 68.735 348.365 72.4424C352.815 75.7096 356.548 79.8547 359.333 84.6217C361.675 88.7112 363.38 93.1343 364.387 97.7383ZM279.061 151.603C279.353 152.889 279.747 154.129 280.256 155.319C279.815 154.229 279.446 153.034 279.061 151.603Z" fill="#CDCDCD"/>
<path d="M296.758 175.38C296.726 175.484 296.675 175.58 296.605 175.663C296.536 175.747 296.451 175.815 296.355 175.865C296.259 175.915 296.154 175.945 296.046 175.953C295.939 175.962 295.83 175.949 295.728 175.915C295.573 175.866 295.437 175.772 295.335 175.645C295.234 175.519 295.173 175.365 295.159 175.203C295.145 175.042 295.179 174.88 295.257 174.738C295.336 174.596 295.454 174.48 295.598 174.405C295.742 174.331 295.905 174.3 296.066 174.318C296.227 174.336 296.379 174.401 296.503 174.506C296.628 174.61 296.718 174.749 296.763 174.904C296.808 175.06 296.806 175.226 296.758 175.38Z" fill="#263238"/>
<path d="M300.32 169.921C300.288 170.025 300.237 170.121 300.167 170.204C300.098 170.288 300.013 170.356 299.917 170.406C299.821 170.456 299.716 170.486 299.609 170.494C299.501 170.503 299.392 170.49 299.29 170.456C299.135 170.407 298.999 170.313 298.897 170.186C298.796 170.06 298.735 169.906 298.721 169.744C298.707 169.583 298.741 169.421 298.819 169.279C298.898 169.137 299.016 169.021 299.16 168.946C299.304 168.872 299.467 168.841 299.628 168.859C299.789 168.877 299.941 168.942 300.065 169.047C300.19 169.151 300.28 169.29 300.325 169.445C300.37 169.601 300.368 169.767 300.32 169.921Z" fill="#263238"/>
<path d="M293.423 181.551C293.376 181.706 293.284 181.844 293.158 181.947C293.032 182.05 292.878 182.113 292.716 182.128C292.554 182.144 292.392 182.111 292.249 182.033C292.106 181.956 291.989 181.838 291.913 181.694C291.837 181.55 291.806 181.387 291.823 181.225C291.841 181.064 291.905 180.911 292.01 180.786C292.114 180.661 292.253 180.57 292.409 180.525C292.565 180.479 292.731 180.481 292.886 180.53C293.092 180.595 293.264 180.739 293.364 180.93C293.465 181.121 293.486 181.344 293.423 181.551Z" fill="#263238"/>
<path d="M290.557 187.117C290.491 187.325 290.345 187.499 290.152 187.601C289.959 187.703 289.733 187.725 289.524 187.661C289.421 187.629 289.326 187.576 289.243 187.507C289.161 187.437 289.093 187.353 289.043 187.257C288.993 187.161 288.963 187.057 288.954 186.949C288.945 186.842 288.957 186.734 288.989 186.631C289.021 186.528 289.073 186.433 289.142 186.35C289.211 186.267 289.295 186.198 289.391 186.148C289.486 186.098 289.59 186.067 289.698 186.057C289.805 186.047 289.913 186.059 290.016 186.09C290.119 186.122 290.214 186.174 290.297 186.243C290.38 186.312 290.449 186.396 290.499 186.492C290.549 186.587 290.58 186.691 290.59 186.799C290.6 186.906 290.588 187.014 290.557 187.117Z" fill="#263238"/>
<path d="M287.516 192.295C287.466 192.449 287.373 192.586 287.246 192.687C287.119 192.788 286.966 192.85 286.804 192.863C286.643 192.877 286.481 192.843 286.339 192.765C286.196 192.687 286.081 192.568 286.006 192.424C285.931 192.28 285.901 192.117 285.919 191.956C285.937 191.795 286.002 191.643 286.106 191.519C286.211 191.395 286.349 191.304 286.505 191.259C286.661 191.214 286.826 191.216 286.981 191.265C287.085 191.296 287.181 191.348 287.264 191.417C287.347 191.486 287.416 191.571 287.466 191.667C287.515 191.763 287.545 191.868 287.554 191.976C287.563 192.083 287.55 192.192 287.516 192.295Z" fill="#263238"/>
<path d="M351.761 74.5062L331.546 101.556C331.197 101.974 331.267 102.185 331.502 101.963C331.935 101.556 345.759 83.4239 352.095 74.5062C352.159 74.4161 352.095 74.0394 351.761 74.5062Z" fill="black" stroke="black"/>
<circle cx="348.669" cy="76.2589" r="0.756073" fill="black"/>
<circle cx="344.769" cy="80.5567" r="0.756073" fill="black"/>
<circle cx="341.485" cy="85.3789" r="0.756073" fill="black"/>
<circle cx="337.03" cy="90.8705" r="0.756073" fill="black"/>
<circle cx="331.361" cy="97.3966" r="0.756073" fill="black"/>
<path d="M339.629 91.2673C340.676 90.6581 342.983 89.2579 343.84 88.5313C344.698 87.8047 346.014 85.9394 346.564 85.0976L347.107 82.391L345.652 83.4972L339.629 91.2673Z" fill="black" stroke="black"/>
<path d="M332.761 96.144C332.172 96.1072 332.172 96.144 331.546 96.6964L331.988 97.1383L332.467 96.6964C332.467 96.6964 333.086 97.0047 333.203 96.6964C333.321 96.388 333.233 96.1735 332.761 96.144Z" fill="black"/>
<path d="M301.144 170.927C297.298 178.53 289.567 194.05 289.414 195.306C289.222 196.877 289.795 196.913 290.59 195.403C291.227 194.195 299.032 177.915 302.854 169.925C302.794 169.248 302.367 168.5 301.144 170.927Z" fill="black"/>
<path d="M69.2143 156.195C67.9603 155.485 66.882 154.501 66.0589 153.318C65.2359 152.135 64.6892 150.782 64.4592 149.36C64.4464 149.293 64.4472 149.225 64.4617 149.158C64.4761 149.092 64.504 149.029 64.5434 148.974C64.5829 148.919 64.6332 148.872 64.6912 148.837C64.7492 148.802 64.8138 148.779 64.881 148.77C64.9482 148.76 65.0166 148.765 65.0821 148.783C65.1475 148.8 65.2086 148.832 65.2617 148.874C65.3148 148.916 65.3587 148.969 65.3907 149.028C65.4228 149.088 65.4424 149.154 65.4483 149.222C65.8969 152.475 68.9355 155.617 70.9254 155.671C71.1208 155.685 71.3166 155.653 71.4983 155.58C70.8676 154.812 70.4359 153.901 70.2411 152.927C70.0464 151.952 70.0947 150.945 70.3817 149.993C70.7502 148.756 71.3711 147.132 72.3983 147.405C73.8276 147.77 73.9373 151.715 73.3559 154.369C73.2691 154.813 73.1034 155.238 72.8665 155.623C73.3035 156.037 73.8231 156.354 74.3913 156.552C74.6405 156.655 74.9084 156.705 75.1779 156.699C75.4475 156.692 75.7127 156.63 75.9568 156.515C75.594 155.775 75.3915 154.966 75.3625 154.142C75.3335 153.318 75.4788 152.498 75.7887 151.734C76.6874 149.117 77.1585 148.829 77.5345 148.751C77.6549 148.728 77.7792 148.739 77.8935 148.783C78.0078 148.827 78.1076 148.902 78.1817 149C78.9331 149.885 78.3312 153.929 77.5604 156.005C77.4837 156.222 77.3789 156.429 77.2487 156.62C77.5585 156.963 77.9265 157.248 78.3357 157.462C79.0773 157.874 79.9246 158.058 80.7703 157.989C80.6861 157.845 80.6153 157.697 80.5445 157.549C80.0544 156.303 80.2855 154.829 81.3586 153.108C82.1927 151.771 82.8934 151.161 83.5774 151.205C83.7956 151.224 84.0036 151.306 84.176 151.441C84.3484 151.576 84.4778 151.759 84.5485 151.966C84.814 152.936 84.865 153.952 84.6978 154.944C84.5305 155.935 84.1492 156.878 83.5803 157.708C83.3153 158.039 82.9832 158.31 82.6058 158.503C84.1028 159.62 86.6395 160.322 88.8774 160.838C88.9431 160.854 89.0051 160.882 89.0598 160.922C89.1145 160.961 89.1609 161.011 89.1964 161.069C89.2318 161.126 89.2555 161.19 89.2663 161.257C89.277 161.323 89.2745 161.392 89.2589 161.457C89.2433 161.523 89.2149 161.585 89.1753 161.64C89.1358 161.694 89.0858 161.741 89.0283 161.776C88.9709 161.812 88.907 161.835 88.8403 161.846C88.7736 161.857 88.7055 161.854 88.6398 161.839C85.9194 161.212 83.0659 160.384 81.4991 158.918C80.2566 159.146 78.9737 158.954 77.8525 158.372C77.3558 158.112 76.9081 157.768 76.5294 157.354C76.1594 157.57 75.7447 157.698 75.3173 157.729C74.8899 157.759 74.4613 157.691 74.0644 157.53C73.3501 157.276 72.6981 156.874 72.1518 156.348C71.7661 156.594 71.314 156.713 70.8576 156.691C70.2813 156.641 69.7217 156.473 69.2143 156.195ZM72.1875 148.419C71.7569 148.963 71.4638 149.603 71.3328 150.284C71.0974 151.062 71.0529 151.884 71.203 152.682C71.3531 153.48 71.6934 154.23 72.195 154.868C72.2897 154.651 72.3598 154.423 72.4042 154.19C73.0003 151.286 72.552 148.851 72.1875 148.419ZM77.5498 150.159C77.2439 150.778 76.9836 151.418 76.7709 152.074C76.3184 153.212 76.2835 154.473 76.6723 155.633C77.2868 153.875 77.5839 152.022 77.5498 150.159ZM83.5544 152.225C83.5544 152.225 83.1295 152.223 82.2502 153.649C81.3709 155.076 81.1102 156.233 81.5034 157.183C81.6005 157.4 81.7225 157.604 81.867 157.793C82.2287 157.661 82.5502 157.437 82.8005 157.145C83.6705 155.821 84.0062 154.216 83.74 152.655C83.6701 152.328 83.5812 152.238 83.5544 152.225Z" fill="#263238"/>
<path d="M136.51 191.612L139.22 186.912L136.51 182.212H133.61L135.25 186.912L133.61 191.612H136.51Z" fill="#263238"/>
<path d="M133.8 189.362C133.466 189.383 133.131 189.336 132.816 189.223C132.5 189.109 132.212 188.933 131.968 188.704C131.723 188.475 131.529 188.198 131.396 187.89C131.262 187.583 131.194 187.252 131.194 186.917C131.194 186.582 131.262 186.251 131.396 185.943C131.529 185.636 131.723 185.359 131.968 185.13C132.212 184.901 132.5 184.724 132.816 184.611C133.131 184.498 133.466 184.45 133.8 184.472L129.2 183.552L127.97 187.272L130.03 190.412L133.8 189.362Z" fill="#263238"/>
<path d="M134.2 182.212H128.77L126.06 186.912L128.77 191.612H134.2L136.91 186.912L134.2 182.212ZM131.49 189.362C131.005 189.364 130.53 189.222 130.126 188.954C129.722 188.686 129.406 188.304 129.219 187.856C129.032 187.409 128.983 186.916 129.076 186.44C129.169 185.964 129.402 185.527 129.744 185.183C130.086 184.839 130.523 184.605 130.998 184.51C131.474 184.414 131.967 184.462 132.415 184.647C132.864 184.833 133.247 185.147 133.516 185.55C133.786 185.953 133.93 186.427 133.93 186.912C133.93 187.56 133.673 188.182 133.216 188.641C132.759 189.1 132.138 189.359 131.49 189.362Z" fill="#90CAF9"/>
<path d="M325.53 181.892L323.52 178.402L325.53 174.912H327.68L326.47 178.402L327.68 181.892H325.53Z" fill="#90CAF9"/>
<path d="M327.54 180.222C327.789 180.24 328.04 180.207 328.276 180.124C328.513 180.042 328.729 179.911 328.913 179.741C329.096 179.57 329.243 179.364 329.343 179.134C329.443 178.905 329.494 178.657 329.494 178.407C329.494 178.156 329.443 177.909 329.343 177.679C329.243 177.45 329.096 177.243 328.913 177.073C328.729 176.903 328.513 176.772 328.276 176.689C328.04 176.606 327.789 176.573 327.54 176.592L330.96 175.912L331.87 178.672L330.35 181.002L327.54 180.222Z" fill="#90CAF9"/>
<path d="M327.25 174.912H331.25L333.25 178.402L331.25 181.892H327.25L325.25 178.402L327.25 174.912ZM329.25 180.222C329.61 180.224 329.963 180.119 330.263 179.92C330.564 179.721 330.799 179.438 330.938 179.105C331.077 178.773 331.115 178.407 331.046 178.053C330.977 177.699 330.804 177.374 330.55 177.118C330.296 176.863 329.972 176.689 329.618 176.618C329.265 176.547 328.899 176.582 328.565 176.719C328.232 176.857 327.947 177.09 327.747 177.39C327.547 177.689 327.44 178.041 327.44 178.402C327.438 178.641 327.484 178.879 327.575 179.1C327.666 179.321 327.8 179.523 327.97 179.692C328.139 179.861 328.34 179.995 328.561 180.086C328.783 180.177 329.02 180.223 329.26 180.222H329.25Z" fill="#263238"/>
<path d="M250.64 186.532H255.16C255.726 186.529 256.268 186.303 256.667 185.902C257.066 185.501 257.29 184.958 257.29 184.392C257.29 183.826 257.066 183.283 256.667 182.882C256.268 182.481 255.726 182.255 255.16 182.252H250.64C250.072 182.252 249.528 182.477 249.127 182.879C248.725 183.28 248.5 183.824 248.5 184.392C248.5 184.96 248.725 185.504 249.127 185.905C249.528 186.306 250.072 186.532 250.64 186.532Z" fill="#263238"/>
<path d="M243.37 182.492C243.79 181.729 244.423 181.105 245.193 180.698C245.962 180.291 246.834 180.118 247.701 180.201C248.568 180.283 249.391 180.618 250.07 181.162C250.749 181.707 251.254 182.439 251.522 183.267C251.79 184.096 251.81 184.984 251.579 185.824C251.348 186.663 250.876 187.417 250.222 187.991C249.568 188.566 248.76 188.937 247.898 189.057C247.036 189.178 246.157 189.044 245.37 188.672C244.289 188.114 243.472 187.152 243.097 185.994C242.722 184.836 242.821 183.577 243.37 182.492Z" fill="#90CAF9"/>
<path d="M244.589 188.671L245.829 189.255L250.135 180.119L248.896 179.535L244.589 188.671Z" fill="#263238"/>
<path d="M118.14 149.886L96.5527 152.956L99.6223 174.543L121.21 171.474L118.14 149.886Z" fill="#37474F"/>
<path d="M109.905 169.416C113.887 168.85 116.655 165.163 116.089 161.181C115.523 157.2 111.836 154.431 107.855 154.997C103.873 155.563 101.104 159.25 101.671 163.232C102.237 167.213 105.923 169.982 109.905 169.416Z" fill="#455A64"/>
<path d="M107.149 159.484L105.524 159.715L106.37 165.665L107.995 165.434L107.149 159.484Z" fill="#263238"/>
<path d="M111.669 158.841L110.043 159.073L110.889 165.022L112.515 164.791L111.669 158.841Z" fill="#263238"/>
<path d="M179.29 146.135C180.29 148.255 176.45 163.445 175.29 166.565C174.13 169.685 169.9 187.095 167.86 187.845C165.82 188.595 155.93 188.385 154.53 187.845C153.13 187.305 154.53 184.335 156.14 183.295C157.75 182.255 159.68 180.665 159.68 180.665C159.68 180.665 156.79 153.775 157.33 150.765C157.87 147.755 176.69 140.445 179.29 146.135Z" fill="#52B1FF"/>
<path d="M179.29 146.135C180.29 148.255 176.45 163.445 175.29 166.565C174.13 169.685 169.9 187.095 167.86 187.845C165.82 188.595 155.93 188.385 154.53 187.845C153.13 187.305 154.53 184.335 156.14 183.295C157.75 182.255 159.68 180.665 159.68 180.665C159.68 180.665 156.79 153.775 157.33 150.765C157.87 147.755 176.69 140.445 179.29 146.135Z" fill="url(#paint1_linear_2926_40922)"/>
<path opacity="0.1" d="M179.29 146.135C180.29 148.255 176.45 163.445 175.29 166.565C174.13 169.685 169.9 187.095 167.86 187.845C165.82 188.595 155.93 188.385 154.53 187.845C153.13 187.305 154.53 184.335 156.14 183.295C157.75 182.255 159.68 180.665 159.68 180.665C159.68 180.665 156.79 153.775 157.33 150.765C157.87 147.755 176.69 140.445 179.29 146.135Z" fill="black"/>
<path opacity="0.1" d="M158.61 186.675C158.719 186.138 158.941 185.63 159.26 185.185C159.579 184.749 159.959 184.362 160.39 184.035C160.807 183.705 161.292 183.469 161.81 183.345C161.825 183.338 161.843 183.337 161.859 183.343C161.875 183.348 161.889 183.359 161.898 183.374C161.906 183.389 161.909 183.406 161.906 183.423C161.902 183.44 161.893 183.455 161.88 183.465C161.7 183.625 161.5 183.765 161.33 183.935C161.16 184.105 160.97 184.285 160.81 184.465C160.481 184.816 160.196 185.206 159.96 185.625C159.71 186.035 159.48 186.455 159.26 186.895C159.04 187.335 158.93 187.805 158.76 188.265C158.76 188.291 158.749 188.317 158.73 188.336C158.712 188.354 158.686 188.365 158.66 188.365C158.633 188.365 158.608 188.354 158.589 188.336C158.57 188.317 158.56 188.291 158.56 188.265C158.46 187.738 158.477 187.195 158.61 186.675Z" fill="black"/>
<path opacity="0.1" d="M155.72 185.095C156.27 184.146 157.117 183.405 158.13 182.985C158.2 182.985 158.27 183.035 158.21 183.085C157.445 183.687 156.795 184.422 156.29 185.255C156.037 185.68 155.874 186.151 155.808 186.641C155.743 187.131 155.777 187.629 155.91 188.105C155.91 188.105 155.91 188.165 155.84 188.105C155.548 187.661 155.383 187.147 155.362 186.617C155.341 186.086 155.464 185.56 155.72 185.095Z" fill="black"/>
<path opacity="0.1" d="M158.149 165.615L171.739 178.475C173.239 173.545 174.639 168.185 175.249 166.595C176.449 163.475 180.249 148.285 179.249 146.165C176.639 140.475 157.769 147.785 157.249 150.795C157.039 152.185 157.539 158.885 158.149 165.615Z" fill="black"/>
<path d="M230.62 161.335C231.17 161.855 236.52 156.795 237.34 154.425C238.16 152.055 234.74 145.365 235.34 144.225C235.94 143.085 238.89 142.175 240.4 143.925C241.91 145.675 245.78 155.265 244.98 159.365C244.18 163.465 235.95 172.615 235.08 172.615C234.21 172.615 230.62 161.335 230.62 161.335Z" fill="#52B1FF"/>
<path d="M230.62 161.335C231.17 161.855 236.52 156.795 237.34 154.425C238.16 152.055 234.74 145.365 235.34 144.225C235.94 143.085 238.89 142.175 240.4 143.925C241.91 145.675 245.78 155.265 244.98 159.365C244.18 163.465 235.95 172.615 235.08 172.615C234.21 172.615 230.62 161.335 230.62 161.335Z" fill="url(#paint2_linear_2926_40922)"/>
<path opacity="0.1" d="M230.62 161.335C230.62 161.335 234.23 172.535 235.08 172.585C235.71 172.585 240.29 167.725 243.03 163.495L235.54 157.185C233.65 159.415 231 161.695 230.62 161.335Z" fill="black"/>
<path d="M200.4 115.075H156C156 115.075 152.7 144.315 153.06 148.185C153.42 152.055 172.93 180.725 178.98 184.425C185.03 188.125 219.81 188.305 228.27 186.425C234.85 184.975 240.34 176.575 237.61 163.645C236.42 157.985 221 144.505 218.85 141.925C216.7 139.345 200.4 115.075 200.4 115.075Z" fill="#C7C7C7"/>
<path d="M153.06 148.185C153.42 152.055 172.93 180.725 178.99 184.425C185.05 188.125 219.81 188.305 228.28 186.425C234.85 184.975 240.35 176.575 237.61 163.635C236.42 157.985 221.01 144.505 218.86 141.925C217.54 140.345 210.92 130.625 205.98 123.325C202.85 118.705 200.4 115.055 200.4 115.055H156C156 115.055 155.17 122.395 154.39 130.205C153.61 138.015 152.88 146.255 153.06 148.185Z" fill="#52B1FF"/>
<path d="M153.06 148.185C153.42 152.055 172.93 180.725 178.99 184.425C185.05 188.125 219.81 188.305 228.28 186.425C234.85 184.975 240.35 176.575 237.61 163.635C236.42 157.985 221.01 144.505 218.86 141.925C217.54 140.345 210.92 130.625 205.98 123.325C202.85 118.705 200.4 115.055 200.4 115.055H156C156 115.055 155.17 122.395 154.39 130.205C153.61 138.015 152.88 146.255 153.06 148.185Z" fill="url(#paint3_linear_2926_40922)"/>
<path opacity="0.1" d="M154.39 130.225C178.25 137.585 199.47 127.115 205.98 123.345C202.85 118.725 200.4 115.075 200.4 115.075H156C156 115.075 155.21 122.415 154.39 130.225Z" fill="black"/>
<path d="M229.12 162.255C229.12 162.255 216.9 154.585 208.33 155.965C199.76 157.345 196.73 174.965 200.84 184.855C200.84 184.855 193.02 187.175 193.02 190.955C193.02 193.105 197.49 193.795 203.93 193.635C210.37 193.475 223.19 193.355 223.47 191.735C223.529 190.4 223.24 189.073 222.63 187.885C222.63 187.885 234.2 186.585 236.47 178.885C238.74 171.185 231.05 163.545 229.12 162.255Z" fill="#52B1FF"/>
<path d="M229.12 162.255C229.12 162.255 216.9 154.585 208.33 155.965C199.76 157.345 196.73 174.965 200.84 184.855C200.84 184.855 193.02 187.175 193.02 190.955C193.02 193.105 197.49 193.795 203.93 193.635C210.37 193.475 223.19 193.355 223.47 191.735C223.529 190.4 223.24 189.073 222.63 187.885C222.63 187.885 234.2 186.585 236.47 178.885C238.74 171.185 231.05 163.545 229.12 162.255Z" fill="url(#paint4_linear_2926_40922)"/>
<path opacity="0.1" d="M212.43 185.725C215.705 187.065 219.185 187.837 222.72 188.005C222.79 188.005 222.81 188.125 222.72 188.135C219.115 188.491 215.492 187.673 212.39 185.805C212.35 185.785 212.38 185.695 212.43 185.725Z" fill="black"/>
<path opacity="0.1" d="M198.05 193.685C198.475 192.246 199.424 191.019 200.71 190.245C201.407 189.763 202.168 189.379 202.97 189.105C203.89 188.795 204.83 188.625 205.76 188.335C205.83 188.335 205.89 188.425 205.76 188.455C204.965 188.743 204.195 189.097 203.46 189.515C202.713 189.901 201.989 190.328 201.29 190.795C200.138 191.631 199.125 192.643 198.29 193.795C198.26 193.925 198.01 193.855 198.05 193.685Z" fill="black"/>
<path opacity="0.1" d="M199.63 187.615C199.646 187.615 199.661 187.621 199.672 187.632C199.683 187.644 199.69 187.659 199.69 187.675C199.69 187.691 199.683 187.706 199.672 187.717C199.661 187.729 199.646 187.735 199.63 187.735C197.263 188.723 195.376 190.596 194.37 192.955C194.37 193.055 194.15 193.055 194.17 192.955C194.365 191.588 195.006 190.323 195.993 189.358C196.98 188.392 198.259 187.779 199.63 187.615Z" fill="black"/>
<path opacity="0.1" d="M195.82 187.065C195.82 187.065 195.82 187.125 195.82 187.115C197.343 186.214 198.954 185.473 200.63 184.905C200.83 185.255 201.04 185.605 201.27 185.905C201.27 185.975 201.42 185.905 201.38 185.845C199.92 182.759 199.187 179.379 199.24 175.965C199.246 174.157 199.353 172.351 199.56 170.555C199.979 167.405 200.962 164.357 202.46 161.555C203.303 159.795 204.605 158.296 206.23 157.215C207.983 156.361 209.94 156.015 211.88 156.215C213.882 156.349 215.862 156.715 217.78 157.305C219.729 157.844 221.639 158.512 223.5 159.305C219.933 157.279 216.007 155.965 211.94 155.435C209.833 155.141 207.686 155.49 205.78 156.435C203.987 157.574 202.535 159.177 201.58 161.075C199.689 164.758 198.64 168.816 198.51 172.955C198.51 173.425 198.51 173.905 198.51 174.375C198.51 175.005 198.51 175.625 198.51 176.255C198.525 179.225 199.249 182.15 200.62 184.785C198.828 185.049 197.157 185.843 195.82 187.065Z" fill="black"/>
<path d="M193.639 149.905C194.639 152.015 190.799 167.205 189.639 170.325C188.479 173.445 184.209 190.855 182.209 191.615C180.209 192.375 170.279 192.155 168.879 191.615C167.479 191.075 168.879 188.105 170.489 187.065C172.099 186.025 174.019 184.435 174.019 184.435C174.019 184.435 171.139 157.545 171.669 154.535C172.199 151.525 191.039 144.205 193.639 149.905Z" fill="#52B1FF"/>
<path d="M193.639 149.905C194.639 152.015 190.799 167.205 189.639 170.325C188.479 173.445 184.209 190.855 182.209 191.615C180.209 192.375 170.279 192.155 168.879 191.615C167.479 191.075 168.879 188.105 170.489 187.065C172.099 186.025 174.019 184.435 174.019 184.435C174.019 184.435 171.139 157.545 171.669 154.535C172.199 151.525 191.039 144.205 193.639 149.905Z" fill="url(#paint5_linear_2926_40922)"/>
<path opacity="0.1" d="M186.98 178.765C187.89 176.025 189.08 173.365 189.98 170.635C189.98 170.525 190.19 170.575 190.15 170.685C189.45 172.885 188.92 175.145 188.26 177.365C188.36 177.215 188.45 177.055 188.54 176.905C189.196 176.064 189.725 175.13 190.11 174.135C190.116 174.111 190.132 174.091 190.154 174.079C190.175 174.066 190.201 174.063 190.225 174.07C190.248 174.076 190.269 174.092 190.281 174.114C190.293 174.135 190.296 174.161 190.29 174.185C190.145 174.653 189.947 175.102 189.7 175.525C189.44 176.015 189.17 176.525 188.9 176.995C188.63 177.465 188.19 178.255 187.8 178.865C187.8 178.915 187.8 178.955 187.8 178.995C186.95 181.758 185.948 184.472 184.8 187.125C184.785 187.149 184.762 187.167 184.736 187.177C184.709 187.187 184.68 187.188 184.653 187.18C184.626 187.172 184.602 187.156 184.585 187.133C184.568 187.111 184.559 187.083 184.56 187.055C185.227 184.253 186.034 181.486 186.98 178.765Z" fill="black"/>
<path opacity="0.1" d="M171.259 158.815C171.259 158.765 171.369 158.745 171.379 158.815C171.669 160.815 171.789 162.915 171.999 164.965C172.209 167.015 172.469 169.215 172.699 171.345C173.169 175.575 173.879 179.795 174.219 184.035C174.219 184.215 173.909 184.235 173.859 184.035C172.842 179.957 172.157 175.803 171.809 171.615C171.589 169.535 171.459 167.455 171.359 165.375C171.205 163.192 171.171 161.002 171.259 158.815Z" fill="black"/>
<path opacity="0.1" d="M172.48 190.225C172.581 189.687 172.8 189.179 173.12 188.735C173.44 188.296 173.824 187.909 174.26 187.585C174.675 187.251 175.16 187.015 175.68 186.895C175.694 186.892 175.71 186.895 175.723 186.901C175.737 186.908 175.748 186.919 175.754 186.932C175.761 186.946 175.763 186.961 175.761 186.976C175.758 186.991 175.751 187.005 175.74 187.015C175.56 187.185 175.36 187.315 175.19 187.485L174.67 188.015C174.347 188.371 174.062 188.76 173.82 189.175C173.58 189.585 173.34 190.005 173.13 190.445C172.92 190.885 172.79 191.355 172.62 191.815C172.613 191.835 172.6 191.852 172.583 191.865C172.566 191.877 172.546 191.884 172.525 191.884C172.503 191.884 172.483 191.877 172.466 191.865C172.449 191.852 172.436 191.835 172.43 191.815C172.325 191.288 172.342 190.744 172.48 190.225Z" fill="black"/>
<path opacity="0.1" d="M169.58 188.615C170.132 187.665 170.983 186.923 172 186.505C172.06 186.505 172.13 186.555 172.07 186.605C171.305 187.205 170.658 187.94 170.16 188.775C169.902 189.198 169.735 189.669 169.67 190.16C169.605 190.651 169.642 191.149 169.78 191.625C169.78 191.625 169.78 191.685 169.71 191.625C169.416 191.182 169.249 190.668 169.226 190.138C169.203 189.608 169.326 189.081 169.58 188.615Z" fill="black"/>
<path d="M172.99 74.4248C173.47 72.6648 169.09 66.4249 167.42 64.3749C165.75 62.3249 156.56 59.1548 153.62 60.7648C152.47 61.3948 150.33 65.8148 147.44 69.6448C142.96 75.5848 137.74 81.8148 139.64 83.4848C144.24 87.5548 154.75 81.1348 158.16 78.9848C161.57 76.8348 164.68 74.2048 165.51 74.2948C166.61 74.4148 168.91 76.1548 169.84 76.2948C170.492 76.3388 171.143 76.1835 171.705 75.8496C172.268 75.5157 172.716 75.0188 172.99 74.4248Z" fill="#52B1FF"/>
<path d="M172.99 74.4248C173.47 72.6648 169.09 66.4249 167.42 64.3749C165.75 62.3249 156.56 59.1548 153.62 60.7648C152.47 61.3948 150.33 65.8148 147.44 69.6448C142.96 75.5848 137.74 81.8148 139.64 83.4848C144.24 87.5548 154.75 81.1348 158.16 78.9848C161.57 76.8348 164.68 74.2048 165.51 74.2948C166.61 74.4148 168.91 76.1548 169.84 76.2948C170.492 76.3388 171.143 76.1835 171.705 75.8496C172.268 75.5157 172.716 75.0188 172.99 74.4248Z" fill="url(#paint6_linear_2926_40922)"/>
<path opacity="0.1" d="M172.99 74.4248C173.47 72.6648 169.09 66.4249 167.42 64.3749C165.75 62.3249 156.56 59.1548 153.62 60.7648C152.47 61.3948 150.33 65.8148 147.44 69.6448C142.96 75.5848 137.74 81.8148 139.64 83.4848C144.24 87.5548 154.75 81.1348 158.16 78.9848C161.57 76.8348 164.68 74.2048 165.51 74.2948C166.61 74.4148 168.91 76.1548 169.84 76.2948C170.492 76.3388 171.143 76.1835 171.705 75.8496C172.268 75.5157 172.716 75.0188 172.99 74.4248Z" fill="black"/>
<path d="M194.21 68.2049C204.94 74.6249 209.7 91.6849 209.99 94.4149C210.23 96.6349 215.34 104.515 214.43 112.985C213.84 118.425 204.06 125.655 196.1 125.585C194.64 125.585 182.25 130.065 171.78 129.345C161.31 128.625 153.39 121.195 153.08 120.565C152.77 119.935 144.21 118.715 143.71 109.965C142.86 95.9649 157.11 72.2049 161.18 68.9649C167.93 63.6149 186.87 63.8449 194.21 68.2049Z" fill="#52B1FF"/>
<path d="M194.21 68.2049C204.94 74.6249 209.7 91.6849 209.99 94.4149C210.23 96.6349 215.34 104.515 214.43 112.985C213.84 118.425 204.06 125.655 196.1 125.585C194.64 125.585 182.25 130.065 171.78 129.345C161.31 128.625 153.39 121.195 153.08 120.565C152.77 119.935 144.21 118.715 143.71 109.965C142.86 95.9649 157.11 72.2049 161.18 68.9649C167.93 63.6149 186.87 63.8449 194.21 68.2049Z" fill="url(#paint7_linear_2926_40922)"/>
<path d="M189.11 75.6148C188.91 73.7148 194.48 68.0048 196.56 66.1148C198.64 64.2248 208.7 62.5048 211.48 64.6648C212.57 65.5148 214.06 70.4448 216.42 74.9048C220.07 81.8148 224.42 89.1448 222.22 90.5648C216.76 94.0248 206.92 85.6248 203.74 82.8148C200.56 80.0048 197.74 76.8148 196.89 76.7348C195.73 76.6748 193.05 78.0948 192.08 78.0448C191.398 77.9846 190.75 77.7206 190.22 77.2872C189.691 76.8538 189.304 76.2711 189.11 75.6148Z" fill="#52B1FF"/>
<path d="M189.11 75.6148C188.91 73.7148 194.48 68.0048 196.56 66.1148C198.64 64.2248 208.7 62.5048 211.48 64.6648C212.57 65.5148 214.06 70.4448 216.42 74.9048C220.07 81.8148 224.42 89.1448 222.22 90.5648C216.76 94.0248 206.92 85.6248 203.74 82.8148C200.56 80.0048 197.74 76.8148 196.89 76.7348C195.73 76.6748 193.05 78.0948 192.08 78.0448C191.398 77.9846 190.75 77.7206 190.22 77.2872C189.691 76.8538 189.304 76.2711 189.11 75.6148Z" fill="url(#paint8_linear_2926_40922)"/>
<path opacity="0.1" d="M189.11 75.6148C188.91 73.7148 194.48 68.0048 196.56 66.1148C198.64 64.2248 208.7 62.5048 211.48 64.6648C212.57 65.5148 214.06 70.4448 216.42 74.9048C220.07 81.8148 224.42 89.1448 222.22 90.5648C216.76 94.0248 206.92 85.6248 203.74 82.8148C200.56 80.0048 197.74 76.8148 196.89 76.7348C195.73 76.6748 193.05 78.0948 192.08 78.0448C191.398 77.9846 190.75 77.7206 190.22 77.2872C189.691 76.8538 189.304 76.2711 189.11 75.6148Z" fill="black"/>
<path opacity="0.1" d="M169.51 99.5448C176.09 99.6048 179.09 106.655 179.88 108.485C180.67 110.315 184.74 114.485 184.88 118.915C185.02 123.345 176.65 128.215 167.88 126.665C159.11 125.115 154.48 120.175 154.53 115.715C154.53 112.125 157.95 109.015 158.33 108.075C158.71 107.135 163.52 99.4848 169.51 99.5448Z" fill="black"/>
<path opacity="0.1" d="M185.689 111.925C186.569 112.926 187.312 114.039 187.899 115.235C188.512 116.439 188.946 117.726 189.189 119.055C189.467 120.433 189.317 121.864 188.759 123.155C188.458 123.792 188.021 124.355 187.479 124.805C186.942 125.214 186.336 125.526 185.689 125.725C186.772 125.059 187.6 124.048 188.039 122.855C188.393 121.673 188.448 120.423 188.199 119.215C187.982 117.963 187.647 116.734 187.199 115.545C186.729 114.335 186.209 113.125 185.689 111.925Z" fill="black"/>
<path opacity="0.1" d="M155.54 109.295C154.97 110.005 154.43 110.695 153.93 111.395C153.437 112.079 153.012 112.809 152.66 113.575C152.33 114.322 152.134 115.12 152.08 115.935C152.089 116.792 152.248 117.642 152.55 118.445C151.881 117.78 151.443 116.917 151.3 115.985C151.201 115.025 151.356 114.056 151.75 113.175C152.543 111.494 153.878 110.127 155.54 109.295Z" fill="black"/>
<path d="M258.35 203.475C247.58 203.475 235.69 203.285 223.74 203.065C217.58 202.955 212.74 202.865 209.68 202.865C194.15 202.865 189.68 182.865 185.36 163.605C184.76 160.915 184.16 158.225 183.53 155.605C182.29 150.435 181.28 145.225 180.29 140.175C177.29 124.565 174.62 111.095 167.74 110.355C158.65 109.355 150.56 122.975 147.61 144.185L145.61 143.915C148.72 121.555 157.69 107.255 167.93 108.365C176.28 109.255 179.04 123.365 182.23 139.795C183.23 144.795 184.23 150.015 185.45 155.135C186.09 157.785 186.69 160.495 187.3 163.195C191.64 182.575 195.74 200.885 209.66 200.885C212.71 200.885 217.59 200.975 223.76 201.085C237.28 201.345 255.76 201.685 271.46 201.375C296.88 200.875 299.89 198.875 300.2 198.265C300.2 194.105 273.36 189.105 263.26 187.215C253.16 185.325 252.66 185.215 252.77 183.985C252.88 182.755 254.12 182.855 256.02 182.855H297.96C311.11 182.855 315.35 163.935 317.89 152.625C318.324 150.197 318.97 147.811 319.82 145.495C322.76 139.375 330.2 140.265 330.51 140.305L330.25 142.305C329.99 142.305 323.93 141.565 321.62 146.375C320.851 148.558 320.256 150.798 319.84 153.075C317.17 164.965 312.72 184.865 297.96 184.865H261.56L263.65 185.255C288.07 189.815 302.21 193.425 302.21 198.355C302.206 198.624 302.146 198.889 302.034 199.133C301.922 199.378 301.761 199.596 301.56 199.775C298.59 202.665 280.92 203.475 258.35 203.475Z" fill="#263238"/>
<path d="M152.961 142.717L140.703 141.982L140.262 149.339L152.52 150.074L152.961 142.717Z" fill="#455A64"/>
<path d="M150.784 140.25L143.138 139.792L142.998 142.128L150.644 142.586L150.784 140.25Z" fill="#37474F"/>
<path d="M144.326 149.59L142.879 149.503L142.543 155.113L143.99 155.2L144.326 149.59Z" fill="#52B1FF"/>
<path d="M144.326 149.59L142.879 149.503L142.543 155.113L143.99 155.2L144.326 149.59Z" fill="url(#paint9_linear_2926_40922)"/>
<path d="M149.867 149.911L148.429 149.825L148.093 155.435L149.53 155.521L149.867 149.911Z" fill="#52B1FF"/>
<path d="M149.867 149.911L148.429 149.825L148.093 155.435L149.53 155.521L149.867 149.911Z" fill="url(#paint10_linear_2926_40922)"/>
<path d="M334.26 135.145V147.425H339.63V135.145H334.26Z" fill="#455A64"/>
<path d="M329.93 137.455V145.115H334.27V137.455H329.93Z" fill="#37474F"/>
<path d="M161.209 110.215C161.209 110.215 163.819 113.215 164.829 112.595C165.839 111.975 168.369 106.015 168.369 106.015C168.369 106.015 168.979 113.575 170.929 113.785C172.879 113.995 176.219 111.005 176.219 111.005L168.329 105.535L161.209 110.215Z" fill="#52B1FF"/>
<path d="M161.209 110.215C161.209 110.215 163.819 113.215 164.829 112.595C165.839 111.975 168.369 106.015 168.369 106.015C168.369 106.015 168.979 113.575 170.929 113.785C172.879 113.995 176.219 111.005 176.219 111.005L168.329 105.535L161.209 110.215Z" fill="url(#paint11_linear_2926_40922)"/>
<path opacity="0.1" d="M161.209 110.215C161.209 110.215 163.819 113.215 164.829 112.595C165.839 111.975 168.369 106.015 168.369 106.015C168.369 106.015 168.979 113.575 170.929 113.785C172.879 113.995 176.219 111.005 176.219 111.005L168.329 105.535L161.209 110.215Z" fill="black"/>
<path opacity="0.1" d="M199.86 100.825C200.637 98.3921 200.909 95.8264 200.66 93.2848C200.547 91.9702 200.241 90.6795 199.75 89.4548C199.483 88.8234 199.147 88.2231 198.75 87.6648C198.367 87.087 197.917 86.5566 197.41 86.0848C197.156 85.8489 196.885 85.6317 196.6 85.4348C196.31 85.2348 196.01 85.0748 195.72 84.8948L195.27 84.6448L194.8 84.4548C194.474 84.3142 194.14 84.194 193.8 84.0948C192.503 83.714 191.145 83.5851 189.8 83.7148C187.224 83.9602 184.77 84.9273 182.72 86.5048C184.997 85.6375 187.413 85.1935 189.85 85.1948C190.998 85.2095 192.137 85.4122 193.22 85.7948C193.49 85.8748 193.74 86.0248 194 86.1248L194.38 86.2948L194.74 86.5248C194.97 86.6748 195.22 86.8048 195.45 86.9648C195.671 87.1236 195.882 87.2974 196.08 87.4848C196.904 88.2388 197.565 89.1545 198.02 90.1748C198.514 91.2376 198.88 92.3555 199.11 93.5048C199.61 95.9127 199.861 98.3656 199.86 100.825Z" fill="black"/>
<path opacity="0.1" d="M151.08 95.7149C151.188 93.6345 151.523 91.5722 152.08 89.5649C152.558 87.7038 153.607 86.0393 155.08 84.8049C155.449 84.5354 155.844 84.3042 156.26 84.1148C156.664 83.9386 157.092 83.8208 157.53 83.7648C158.491 83.6556 159.463 83.6758 160.42 83.8248C162.478 84.1894 164.504 84.7144 166.48 85.3948C165.65 84.6946 164.748 84.0845 163.79 83.5748C163.31 83.3248 162.79 83.0949 162.31 82.8749C161.796 82.668 161.272 82.4878 160.74 82.3349C159.634 81.9947 158.473 81.8658 157.32 81.9548C156.699 82.0002 156.091 82.1489 155.52 82.3948C154.966 82.6314 154.442 82.9336 153.96 83.2948C153.012 84.017 152.24 84.9433 151.7 86.0049C151.196 87.0213 150.859 88.1117 150.7 89.2348C150.348 91.3965 150.477 93.6092 151.08 95.7149Z" fill="black"/>
<path d="M183.569 97.6848C183.569 97.5748 183.829 97.8348 183.819 97.9648C183.579 100.965 183.819 104.465 186.819 105.595C186.909 105.595 186.889 105.785 186.819 105.765C183.149 105.135 182.819 100.505 183.569 97.6848Z" fill="#263238"/>
<path d="M186.67 94.6648C192.01 94.5248 192 104.275 187.05 104.405C182.1 104.535 182.21 94.7748 186.67 94.6648Z" fill="#263238"/>
<path d="M162.94 95.3148C162.94 95.2048 162.67 95.4348 162.66 95.5648C162.48 98.5648 161.66 101.995 158.66 102.705C158.57 102.705 158.56 102.875 158.66 102.875C162.33 102.755 163.3 98.2148 162.94 95.3148Z" fill="#263238"/>
<path d="M160.3 91.8949C155.04 91.0149 153.68 100.675 158.56 101.485C163.44 102.295 164.72 92.6149 160.3 91.8949Z" fill="#263238"/>
<path d="M168.12 105.735C169.12 106.045 175.66 103.965 175.12 101.965C174.57 99.8048 165.31 99.2948 164.12 100.695C162.93 102.095 167.13 105.415 168.12 105.735Z" fill="#263238"/>
<path d="M176.34 110.905C175.288 111.7 174.166 112.399 172.99 112.995C172.427 113.296 171.807 113.474 171.17 113.515C170.79 113.585 170.47 113.075 170.25 112.585C169.851 111.557 169.572 110.487 169.42 109.395C169.22 108.305 169.11 107.185 168.99 106.095L168.68 103.095L167.77 106.045C167.49 106.955 167.16 107.865 166.83 108.775C166.498 109.681 166.104 110.563 165.65 111.415C165.539 111.626 165.408 111.827 165.26 112.015C165.138 112.202 164.982 112.365 164.8 112.495C164.629 112.577 164.434 112.598 164.25 112.555C163.998 112.485 163.756 112.384 163.53 112.255C162.634 111.672 161.834 110.954 161.16 110.125C161.644 111.078 162.326 111.916 163.16 112.585C163.421 112.787 163.715 112.943 164.03 113.045C164.223 113.093 164.421 113.12 164.62 113.125C164.842 113.126 165.061 113.075 165.26 112.975C165.54 112.82 165.79 112.617 166 112.375C166.181 112.17 166.348 111.953 166.5 111.725C167.058 110.874 167.536 109.973 167.93 109.035C168.33 108.125 168.67 107.205 168.93 106.275L167.7 106.185C167.788 107.316 167.942 108.441 168.16 109.555C168.27 110.122 168.41 110.683 168.58 111.235C168.745 111.813 168.969 112.373 169.25 112.905C169.406 113.205 169.604 113.481 169.84 113.725C169.991 113.881 170.171 114.006 170.37 114.095C170.499 114.157 170.637 114.198 170.78 114.215C170.903 114.23 171.027 114.23 171.15 114.215C171.921 114.133 172.661 113.869 173.31 113.445C174.435 112.747 175.456 111.891 176.34 110.905Z" fill="#263238"/>
<path d="M126.109 145.505C130.081 145.273 134.066 145.545 137.969 146.315C133.998 146.545 130.013 146.273 126.109 145.505Z" fill="#263238"/>
<path d="M154.899 151.835C156.775 152.487 158.603 153.268 160.369 154.175C162.149 155.051 163.863 156.053 165.499 157.175C161.755 155.846 158.193 154.048 154.899 151.825V151.835Z" fill="#263238"/>
<path d="M132.459 165.615C134.427 162.158 136.826 158.966 139.599 156.115C138.631 157.858 137.539 159.529 136.329 161.115C135.148 162.705 133.855 164.209 132.459 165.615Z" fill="#263238"/>
<path d="M121.209 133.685C122.759 134.175 124.269 134.735 125.769 135.315C127.269 135.895 128.769 136.515 130.249 137.145C131.729 137.775 133.249 138.425 134.659 139.145C136.069 139.865 137.579 140.535 138.999 141.315C137.449 140.815 135.939 140.255 134.439 139.675C132.939 139.095 131.439 138.475 129.959 137.845C128.479 137.215 126.959 136.565 125.549 135.845C124.139 135.125 122.639 134.455 121.209 133.685Z" fill="#263238"/>
<path d="M156.339 142.545C157.733 141.845 159.185 141.269 160.679 140.825C162.163 140.354 163.685 140.019 165.229 139.825C162.436 141.216 159.432 142.139 156.339 142.555V142.545Z" fill="#263238"/>
<path d="M141.959 137.485C141.139 136.185 140.399 134.855 139.669 133.485C138.939 132.115 138.239 130.785 137.549 129.415C136.859 128.045 136.199 126.675 135.549 125.275C134.899 123.875 134.299 122.485 133.759 121.045C134.579 122.345 135.329 123.685 136.059 125.045C136.789 126.405 137.489 127.745 138.179 129.105C138.869 130.465 139.519 131.845 140.179 133.245C140.839 134.645 141.419 136.045 141.959 137.485Z" fill="#263238"/>
<path d="M162.209 169.115C161.319 168.115 160.489 167.025 159.679 165.955C158.869 164.885 158.089 163.775 157.309 162.675C156.529 161.575 155.799 160.445 155.089 159.295C154.379 158.145 153.669 156.995 153.029 155.805C153.919 156.805 154.749 157.895 155.559 158.965C156.369 160.035 157.159 161.145 157.929 162.245C158.699 163.345 159.439 164.475 160.149 165.625C160.859 166.775 161.569 167.915 162.209 169.115Z" fill="#263238"/>
<defs>
<linearGradient id="paint0_linear_2926_40922" x1="19.1407" y1="99.3163" x2="75.4567" y2="227.519" gradientUnits="userSpaceOnUse">
<stop stop-color="#90F9E1"/>
<stop offset="0.95469" stop-color="#69B3EF"/>
</linearGradient>
<linearGradient id="paint1_linear_2926_40922" x1="154.942" y1="154.82" x2="173.915" y2="188.797" gradientUnits="userSpaceOnUse">
<stop stop-color="#90F9E1"/>
<stop offset="0.95469" stop-color="#69B3EF"/>
</linearGradient>
<linearGradient id="paint2_linear_2926_40922" x1="231.18" y1="150.173" x2="244.894" y2="170.982" gradientUnits="userSpaceOnUse">
<stop stop-color="#90F9E1"/>
<stop offset="0.95469" stop-color="#69B3EF"/>
</linearGradient>
<linearGradient id="paint3_linear_2926_40922" x1="156.333" y1="132.725" x2="174.895" y2="200.634" gradientUnits="userSpaceOnUse">
<stop stop-color="#90F9E1"/>
<stop offset="0.95469" stop-color="#69B3EF"/>
</linearGradient>
<linearGradient id="paint4_linear_2926_40922" x1="203.142" y1="124.779" x2="195.798" y2="196.238" gradientUnits="userSpaceOnUse">
<stop stop-color="#90F9E1"/>
<stop offset="0.95469" stop-color="#69B3EF"/>
</linearGradient>
<linearGradient id="paint5_linear_2926_40922" x1="169.291" y1="158.587" x2="188.27" y2="192.568" gradientUnits="userSpaceOnUse">
<stop stop-color="#90F9E1"/>
<stop offset="0.95469" stop-color="#69B3EF"/>
</linearGradient>
<linearGradient id="paint6_linear_2926_40922" x1="140.546" y1="66.2881" x2="145.987" y2="89.6526" gradientUnits="userSpaceOnUse">
<stop stop-color="#90F9E1"/>
<stop offset="0.95469" stop-color="#69B3EF"/>
</linearGradient>
<linearGradient id="paint7_linear_2926_40922" x1="146.416" y1="80.6475" x2="163.893" y2="140.409" gradientUnits="userSpaceOnUse">
<stop stop-color="#90F9E1"/>
<stop offset="0.95469" stop-color="#69B3EF"/>
</linearGradient>
<linearGradient id="paint8_linear_2926_40922" x1="190.409" y1="70.4143" x2="197.301" y2="96.4866" gradientUnits="userSpaceOnUse">
<stop stop-color="#90F9E1"/>
<stop offset="0.95469" stop-color="#69B3EF"/>
</linearGradient>
<linearGradient id="paint9_linear_2926_40922" x1="142.853" y1="150.873" x2="145.476" y2="153.25" gradientUnits="userSpaceOnUse">
<stop stop-color="#90F9E1"/>
<stop offset="0.95469" stop-color="#69B3EF"/>
</linearGradient>
<linearGradient id="paint10_linear_2926_40922" x1="148.403" y1="151.195" x2="151.022" y2="153.553" gradientUnits="userSpaceOnUse">
<stop stop-color="#90F9E1"/>
<stop offset="0.95469" stop-color="#69B3EF"/>
</linearGradient>
<linearGradient id="paint11_linear_2926_40922" x1="161.79" y1="107.547" x2="163.216" y2="115.605" gradientUnits="userSpaceOnUse">
<stop stop-color="#90F9E1"/>
<stop offset="0.95469" stop-color="#69B3EF"/>
</linearGradient>
</defs>
</svg>
