<svg width="380" height="209" viewBox="0 0 380 209" fill="none" xmlns="http://www.w3.org/2000/svg">
<path d="M339.511 16.6797L332.331 14.7597L330.411 7.57967L333.221 4.77966L336.181 10.9097L342.321 13.8797L339.511 16.6797Z" fill="#E0E0E0"/>
<path d="M339.952 11.8793C340.262 11.5687 340.509 11.2 340.677 10.7942C340.845 10.3884 340.931 9.95353 340.931 9.51431C340.931 9.07508 340.845 8.64016 340.677 8.23438C340.509 7.82859 340.262 7.45988 339.952 7.14931C339.641 6.83873 339.272 6.59237 338.867 6.42429C338.461 6.2562 338.026 6.16969 337.587 6.16969C337.147 6.16969 336.713 6.2562 336.307 6.42429C335.901 6.59237 335.532 6.83873 335.222 7.14931L338.792 1.78931L343.572 4.2093L344.622 9.2093L339.952 11.8793Z" fill="#E0E0E0"/>
<path d="M332.651 5.35961L337.911 0.0996094L345.071 2.00961L347.001 9.17961L341.741 14.4396L334.571 12.5096L332.651 5.35961ZM342.201 9.65961C342.67 9.19097 342.988 8.59405 343.117 7.94431C343.246 7.29456 343.18 6.62117 342.926 6.00923C342.672 5.3973 342.243 4.87429 341.692 4.50634C341.141 4.13839 340.494 3.94199 339.831 3.94199C339.169 3.94199 338.521 4.13839 337.971 4.50634C337.42 4.87429 336.99 5.3973 336.737 6.00923C336.483 6.62117 336.417 7.29456 336.546 7.94431C336.674 8.59405 336.993 9.19097 337.461 9.65961C338.095 10.2811 338.948 10.6275 339.835 10.6238C340.723 10.6201 341.573 10.2664 342.201 9.63961V9.65961Z" fill="#F0F0F0"/>
<path d="M46.2913 208.07L50.1413 207.03L51.1712 203.18L49.6712 201.68L48.0813 204.97L44.7812 206.56L46.2913 208.07Z" fill="#E0E0E0"/>
<path d="M46.0717 205.49C45.7708 205.147 45.6118 204.701 45.627 204.245C45.6421 203.788 45.8302 203.355 46.1532 203.032C46.4762 202.709 46.9099 202.521 47.3664 202.506C47.8229 202.49 48.2681 202.649 48.6117 202.95L46.7017 200.08L44.0717 201.36L43.5117 204.06L46.0717 205.49Z" fill="#E0E0E0"/>
<path d="M49.9718 201.98L47.1518 199.16L43.3018 200.16L42.3018 204.01L45.0718 206.86L48.9218 205.86L49.9718 201.98ZM44.8518 204.29C44.6664 204.128 44.5163 203.929 44.4108 203.707C44.3053 203.484 44.2466 203.242 44.2385 202.996C44.2303 202.749 44.2728 202.504 44.3633 202.275C44.4538 202.046 44.5905 201.838 44.7647 201.663C44.9389 201.489 45.1471 201.353 45.3763 201.262C45.6055 201.171 45.8508 201.129 46.0971 201.137C46.3434 201.145 46.5854 201.204 46.8081 201.309C47.0308 201.415 47.2294 201.565 47.3918 201.75C47.6926 202.094 47.8516 202.539 47.8365 202.996C47.8214 203.452 47.6333 203.886 47.3103 204.209C46.9873 204.532 46.5536 204.72 46.0971 204.735C45.6406 204.75 45.1954 204.591 44.8518 204.29Z" fill="#F0F0F0"/>
<path d="M196.177 89.6146L199.377 92.8146C199.777 93.2079 200.315 93.4283 200.877 93.4283C201.438 93.4283 201.976 93.2079 202.377 92.8146C202.768 92.4132 202.986 91.8749 202.986 91.3146C202.986 90.7542 202.768 90.216 202.377 89.8146L199.187 86.6246C198.785 86.2337 198.247 86.0149 197.687 86.0149C197.126 86.0149 196.588 86.2337 196.187 86.6246C195.795 87.023 195.575 87.5589 195.573 88.1176C195.571 88.6763 195.788 89.2135 196.177 89.6146Z" fill="#F0F0F0"/>
<path d="M193.927 81.7276C194.762 81.4954 195.647 81.5121 196.472 81.7757C197.298 82.0392 198.029 82.5381 198.575 83.2112C199.121 83.8842 199.459 84.7021 199.546 85.5643C199.634 86.4266 199.468 87.2957 199.069 88.0649C198.67 88.8342 198.054 89.4701 197.299 89.8946C196.543 90.3191 195.68 90.5137 194.815 90.4546C193.951 90.3954 193.122 90.085 192.431 89.5614C191.741 89.0379 191.218 88.3241 190.927 87.5076C190.743 86.9312 190.674 86.3239 190.725 85.7208C190.776 85.1177 190.946 84.5307 191.225 83.9935C191.503 83.4562 191.886 82.9795 192.35 82.5906C192.813 82.2017 193.349 81.9085 193.927 81.7276Z" fill="#E0E0E0"/>
<path d="M190.446 86.9729L190.91 88.2622L200.415 84.8476L199.952 83.5583L190.446 86.9729Z" fill="#F0F0F0"/>
<path d="M59.106 166.343H32.626V177.533H59.106V166.343Z" fill="#EBEBEB"/>
<path d="M44.3262 180.453H17.8462V191.643H44.3262V180.453Z" fill="#DBDBDB"/>
<path d="M73.876 180.453H47.396V191.643H73.876V180.453Z" fill="#EBEBEB"/>
<path d="M29.1334 83.1858H28.9534C24.4534 81.4358 21.7634 79.7358 20.3634 77.6858C19.2675 77.8935 18.1338 77.7391 17.1334 77.2458C15.9615 76.6723 14.9893 75.7594 14.3434 74.6258C14.0038 74.8864 13.604 75.0569 13.1809 75.1216C12.7578 75.1863 12.3252 75.143 11.9234 74.9958C10.691 74.5347 9.63929 73.6899 8.92337 72.5858C8.47555 72.9194 7.91887 73.0729 7.36337 73.0158C4.36337 72.7758 0.36337 66.8558 0.0733702 60.5558C0.0704209 60.4229 0.118534 60.2938 0.207815 60.1952C0.297097 60.0967 0.420755 60.036 0.553366 60.0258C0.61904 60.0232 0.6846 60.0335 0.74629 60.0561C0.807981 60.0788 0.864596 60.1134 0.912893 60.158C0.961191 60.2026 1.00023 60.2563 1.02776 60.316C1.0553 60.3756 1.0708 60.4402 1.07337 60.5058C1.35337 66.5058 5.18337 71.8358 7.45337 72.0158C7.61853 72.0344 7.78573 72.0201 7.94534 71.9738C8.10495 71.9274 8.25382 71.85 8.38337 71.7458C7.60127 70.3201 7.11014 68.7532 6.93847 67.1361C6.76681 65.5191 6.91803 63.884 7.38337 62.3258C8.24337 59.3258 9.00337 58.1458 9.92337 58.3258C11.6434 58.7558 11.4134 65.3258 10.5034 69.6158C10.3655 70.3896 10.0803 71.1296 9.66337 71.7958C10.2529 72.7844 11.1428 73.5587 12.2034 74.0058C12.486 74.1135 12.7936 74.1377 13.0897 74.0757C13.3857 74.0136 13.6577 73.8679 13.8734 73.6558C13.0934 71.7258 12.8734 69.0858 13.9934 65.7258C15.3934 61.2958 15.9934 61.1758 16.3034 61.0958C16.42 61.0713 16.541 61.0788 16.6537 61.1176C16.7664 61.1563 16.8665 61.2248 16.9434 61.3158C17.8734 62.3658 16.7634 69.2458 15.6034 72.6458C15.4675 73.055 15.2793 73.4449 15.0434 73.8058C15.5799 74.8874 16.4539 75.765 17.5334 76.3058C18.2414 76.6501 19.0286 76.7986 19.8134 76.7358C19.7234 76.5458 19.6434 76.3558 19.5634 76.1558C18.7734 74.0058 19.1634 71.5358 20.7534 68.5758C21.8034 66.6258 22.6634 65.7058 23.4634 65.7058C23.6757 65.7087 23.8828 65.7723 24.0601 65.8893C24.2373 66.0063 24.3773 66.1717 24.4634 66.3658C25.3334 67.9758 24.7034 73.2858 22.9834 75.9258C22.5806 76.5311 22.0206 77.0151 21.3634 77.3258C22.7034 79.0858 25.2534 80.6358 29.3634 82.2158C29.425 82.2381 29.4816 82.2724 29.5297 82.3168C29.5778 82.3613 29.6165 82.4149 29.6436 82.4746C29.6706 82.5343 29.6854 82.5987 29.6871 82.6642C29.6888 82.7297 29.6773 82.7949 29.6534 82.8558C29.6145 82.96 29.5427 83.0486 29.4488 83.1082C29.3549 83.1678 29.2442 83.195 29.1334 83.1858ZM23.4534 66.7158C23.4534 66.7158 22.8834 66.7158 21.6234 69.0658C20.1734 71.7458 19.8034 73.9558 20.4934 75.8158C20.577 76.0461 20.6773 76.2701 20.7934 76.4858C21.335 76.262 21.7955 75.8783 22.1134 75.3858C23.5134 73.2458 24.1834 68.8458 23.6634 67.1258C23.5934 66.7758 23.4534 66.7158 23.4534 66.7158ZM16.2734 62.5058C15.7321 63.6444 15.2839 64.8249 14.9334 66.0358C14.1664 68.1345 14.0342 70.4125 14.5534 72.5858L14.6434 72.3258C15.6935 69.1561 16.2533 65.8446 16.3034 62.5058H16.2734ZM9.69337 59.3558C9.52337 59.5058 9.03337 60.1358 8.34337 62.5758C7.52728 65.3142 7.78473 68.2605 9.06337 70.8158C9.26855 70.3688 9.41962 69.8988 9.51336 69.4158C10.5834 64.5058 10.2834 60.0658 9.72336 59.3558H9.69337Z" fill="#263238"/>
<path d="M136.109 124.328C134.511 124.343 132.937 123.932 131.549 123.138C131.435 123.069 131.352 122.958 131.319 122.829C131.285 122.7 131.303 122.563 131.369 122.448C131.402 122.391 131.446 122.342 131.498 122.303C131.551 122.264 131.61 122.235 131.674 122.22C131.737 122.204 131.803 122.201 131.867 122.211C131.932 122.221 131.994 122.243 132.049 122.278C135.619 124.368 140.229 122.908 141.179 121.378C141.248 121.282 141.297 121.173 141.322 121.058C141.348 120.943 141.351 120.824 141.329 120.708C139.504 120.813 137.696 120.298 136.199 119.248C133.649 117.658 133.449 117.178 133.469 116.798C133.474 116.689 133.508 116.583 133.568 116.491C133.628 116.4 133.711 116.326 133.809 116.278C134.809 115.778 139.319 117.848 141.199 119.088C141.425 119.237 141.633 119.412 141.819 119.608C142.558 119.44 143.224 119.041 143.719 118.468C143.998 118.14 144.2 117.754 144.309 117.338H144.109C142.509 117.498 140.909 116.808 139.199 115.228C138.019 114.148 137.569 113.398 137.719 112.808C137.765 112.642 137.857 112.493 137.984 112.377C138.112 112.262 138.27 112.186 138.439 112.158C139.819 111.808 143.239 113.268 144.629 114.798C144.939 115.13 145.16 115.536 145.269 115.978C146.579 115.368 147.959 113.978 149.589 111.708C149.627 111.654 149.676 111.608 149.731 111.572C149.787 111.537 149.849 111.513 149.914 111.502C149.979 111.491 150.046 111.493 150.11 111.507C150.175 111.522 150.236 111.549 150.289 111.588C150.396 111.666 150.469 111.783 150.491 111.913C150.514 112.044 150.484 112.178 150.409 112.288C148.519 114.928 146.939 116.428 145.359 117.038C145.278 117.777 144.974 118.474 144.489 119.038C143.913 119.707 143.156 120.197 142.309 120.448C142.357 120.686 142.357 120.932 142.309 121.171C142.261 121.409 142.166 121.636 142.029 121.838C141.189 123.268 138.769 124.328 136.109 124.328ZM135.219 117.388C135.559 117.638 136.039 117.968 136.729 118.388C137.805 119.113 139.04 119.566 140.329 119.708C138.72 118.743 137.005 117.964 135.219 117.388ZM138.709 113.138C138.997 113.679 139.395 114.152 139.879 114.528C141.359 115.898 142.709 116.528 144.009 116.368H144.329C144.258 116.057 144.107 115.771 143.889 115.538C142.489 113.958 139.409 112.978 138.709 113.138Z" fill="#263238"/>
<path d="M131.937 65.1528H105.457V76.3428H131.937V65.1528Z" fill="#EBEBEB"/>
<path d="M117.157 79.2629H90.6772V90.4529H117.157V79.2629Z" fill="#DBDBDB"/>
<path d="M146.707 79.2629H120.227V90.4529H146.707V79.2629Z" fill="#EBEBEB"/>
<path d="M310.087 128.118H283.607V139.308H310.087V128.118Z" fill="#EBEBEB"/>
<path d="M295.307 142.228H268.827V153.418H295.307V142.228Z" fill="#DBDBDB"/>
<path d="M324.857 142.228H298.377V153.418H324.857V142.228Z" fill="#EBEBEB"/>
<path d="M261.376 48.4635H234.896V59.6535H261.376V48.4635Z" fill="#EBEBEB"/>
<path d="M246.597 62.5735H220.117V73.7635H246.597V62.5735Z" fill="#DBDBDB"/>
<path d="M276.146 62.5735H249.667V73.7635H276.146V62.5735Z" fill="#EBEBEB"/>
<path d="M352.618 168.624L347.296 191.834L259.702 171.749C262.662 163.192 267.411 155.545 273.948 148.807C280.499 142.009 292.259 133.723 309.227 123.947C322.898 116.037 331.436 110.506 334.841 107.356C339.462 102.986 342.351 98.282 343.506 93.2428C344.784 87.6699 344.251 83.0547 341.907 79.3972C339.636 75.6939 335.863 73.2374 330.586 72.0275C325.369 70.8312 320.859 71.4507 317.055 73.886C313.252 76.3212 310.277 81.1305 308.131 88.3139L283.802 80.1145C288.438 66.7001 295.355 57.8962 304.554 53.7027C313.753 49.5093 324.221 48.7583 335.96 51.4499C348.825 54.3998 358.138 60.1858 363.899 68.8078C369.659 77.4299 372.244 85.8934 370.954 97.5473C369.608 103.417 367.256 108.774 363.899 113.621C360.614 118.421 356.023 123.203 350.125 127.967C346.218 131.127 339.493 135.419 329.95 140.844C320.406 146.269 314.295 149.922 311.617 151.805C308.999 153.7 304.817 155.292 302.996 157.246L352.618 168.624Z" fill="#90CAF9"/>
<path d="M352.618 168.624L347.296 191.834L259.702 171.749C262.662 163.192 267.411 155.545 273.948 148.807C280.499 142.009 292.259 133.723 309.227 123.947C322.898 116.037 331.436 110.506 334.841 107.356C339.462 102.986 342.351 98.282 343.506 93.2428C344.784 87.6699 344.251 83.0547 341.907 79.3972C339.636 75.6939 335.863 73.2374 330.586 72.0275C325.369 70.8312 320.859 71.4507 317.055 73.886C313.252 76.3212 310.277 81.1305 308.131 88.3139L283.802 80.1145C288.438 66.7001 295.355 57.8962 304.554 53.7027C313.753 49.5093 324.221 48.7583 335.96 51.4499C348.825 54.3998 358.138 60.1858 363.899 68.8078C369.659 77.4299 372.244 85.8934 370.954 97.5473C369.608 103.417 367.256 108.774 363.899 113.621C360.614 118.421 356.023 123.203 350.125 127.967C346.218 131.127 339.493 135.419 329.95 140.844C320.406 146.269 314.295 149.922 311.617 151.805C308.999 153.7 304.817 155.292 302.996 157.246L352.618 168.624Z" fill="url(#paint0_linear_2926_40923)"/>
<path fill-rule="evenodd" clip-rule="evenodd" d="M340.286 132.169C340.572 132.952 340.859 133.74 341.138 134.534C341.464 134.66 342.158 134.702 342.322 133.863C342.148 133.29 341.973 132.717 341.798 132.147C340.074 126.516 338.421 121.119 339.314 117.533C340.458 112.938 343.718 108.943 347.022 104.893C350.188 101.013 353.394 97.0824 354.819 92.5271C359.66 77.0521 356.849 60.65 356.849 60.65C356.88 60.5217 356.86 60.3864 356.791 60.2733C356.723 60.1603 356.613 60.0788 356.485 60.0467C356.357 60.018 356.223 60.0399 356.111 60.1077C355.998 60.1754 355.916 60.2839 355.882 60.4105C355.882 60.4105 358.169 76.3091 353.171 91.9398C351.725 96.4615 348.589 100.525 345.497 104.531C342.247 108.743 339.045 112.892 337.904 117.447C336.687 122.305 338.446 127.125 340.286 132.169Z" fill="#263238"/>
<path d="M354.078 70.3871C354.057 70.6037 353.95 70.8029 353.782 70.9411C353.614 71.0792 353.398 71.1449 353.181 71.1237C352.965 71.1025 352.765 70.9961 352.627 70.828C352.489 70.6598 352.423 70.4437 352.444 70.2271C352.466 70.0105 352.572 69.8112 352.74 69.6731C352.908 69.5349 353.125 69.4692 353.341 69.4904C353.558 69.5117 353.757 69.618 353.895 69.7862C354.033 69.9543 354.099 70.1705 354.078 70.3871Z" fill="#263238"/>
<path d="M350.986 86.7086C350.97 86.87 350.907 87.023 350.804 87.1483C350.701 87.2737 350.564 87.3657 350.408 87.4128C350.253 87.4599 350.088 87.4599 349.933 87.4129C349.777 87.3659 349.64 87.274 349.537 87.1487C349.434 87.0234 349.37 86.8704 349.354 86.7091C349.338 86.5478 349.37 86.3853 349.447 86.2422C349.523 86.0992 349.64 85.982 349.783 85.9054C349.926 85.8288 350.088 85.7963 350.25 85.812C350.357 85.8224 350.461 85.8539 350.556 85.9046C350.651 85.9554 350.735 86.0243 350.804 86.1076C350.872 86.1909 350.924 86.2868 350.955 86.39C350.986 86.4931 350.997 86.6014 350.986 86.7086Z" fill="#263238"/>
<path d="M342.315 102.447C342.304 102.554 342.273 102.658 342.222 102.753C342.171 102.849 342.102 102.933 342.019 103.001C341.936 103.07 341.84 103.121 341.737 103.152C341.634 103.183 341.525 103.194 341.418 103.184C341.311 103.174 341.207 103.144 341.112 103.095C341.017 103.045 340.933 102.977 340.864 102.894C340.795 102.812 340.744 102.717 340.712 102.614C340.681 102.511 340.67 102.404 340.681 102.297C340.69 102.189 340.721 102.083 340.771 101.987C340.821 101.891 340.89 101.805 340.973 101.736C341.057 101.667 341.153 101.614 341.257 101.582C341.361 101.551 341.47 101.54 341.578 101.55C341.794 101.574 341.991 101.681 342.129 101.848C342.267 102.016 342.333 102.231 342.315 102.447Z" fill="#263238"/>
<path d="M333.672 113.936C333.638 114.135 333.531 114.314 333.373 114.439C333.214 114.565 333.016 114.627 332.814 114.615C332.613 114.602 332.423 114.516 332.281 114.373C332.139 114.229 332.055 114.038 332.045 113.837C332.039 113.721 332.058 113.606 332.1 113.499C332.142 113.391 332.206 113.294 332.288 113.213C332.37 113.132 332.468 113.069 332.576 113.028C332.684 112.988 332.799 112.971 332.914 112.978C333.029 112.985 333.142 113.016 333.244 113.069C333.346 113.123 333.436 113.197 333.507 113.288C333.579 113.378 333.63 113.482 333.659 113.594C333.687 113.706 333.692 113.822 333.672 113.936Z" fill="#263238"/>
<path d="M336.463 130.708C336.454 130.815 336.423 130.92 336.373 131.016C336.323 131.112 336.254 131.196 336.17 131.265C336.087 131.334 335.99 131.385 335.886 131.416C335.783 131.447 335.674 131.456 335.566 131.444C335.405 131.428 335.252 131.365 335.127 131.262C335.001 131.159 334.909 131.022 334.862 130.866C334.815 130.711 334.815 130.546 334.862 130.391C334.909 130.235 335.001 130.098 335.126 129.995C335.252 129.892 335.405 129.828 335.566 129.812C335.727 129.796 335.89 129.828 336.033 129.905C336.176 129.981 336.293 130.098 336.37 130.241C336.446 130.384 336.479 130.546 336.463 130.708Z" fill="#263238"/>
<path d="M353.31 59.9522C353.289 60.1697 353.183 60.3701 353.015 60.5099C352.847 60.6497 352.631 60.7176 352.413 60.6989C352.306 60.6884 352.201 60.6569 352.106 60.6062C352.011 60.5555 351.927 60.4865 351.859 60.4032C351.79 60.32 351.739 60.224 351.708 60.1209C351.676 60.0178 351.666 59.9095 351.676 59.8022C351.686 59.6949 351.717 59.5906 351.767 59.4953C351.817 59.4 351.886 59.3154 351.968 59.2465C352.051 59.1776 352.147 59.1257 352.25 59.0937C352.353 59.0618 352.461 59.0504 352.568 59.0603C352.675 59.0701 352.78 59.101 352.875 59.1511C352.97 59.2013 353.055 59.2698 353.124 59.3526C353.193 59.4354 353.245 59.531 353.277 59.6339C353.308 59.7368 353.32 59.8449 353.31 59.9522Z" fill="#263238"/>
<path d="M332.826 114.335C332.713 114.328 332.607 114.283 332.524 114.207C332.441 114.131 332.387 114.028 332.371 113.917C332.36 113.851 332.362 113.785 332.377 113.721C332.392 113.656 332.42 113.596 332.459 113.542C332.497 113.489 332.546 113.443 332.602 113.409C332.659 113.374 332.721 113.351 332.787 113.341L335.294 112.963C335.36 112.953 335.427 112.955 335.492 112.971C335.557 112.987 335.618 113.015 335.672 113.055C335.725 113.095 335.77 113.145 335.804 113.202C335.838 113.259 335.86 113.323 335.869 113.389C335.879 113.454 335.875 113.52 335.858 113.584C335.842 113.648 335.813 113.707 335.774 113.76C335.734 113.812 335.685 113.856 335.628 113.89C335.572 113.923 335.509 113.945 335.444 113.954L332.936 114.332L332.826 114.335Z" fill="#263238"/>
<path d="M357.498 73.9047C357.558 77.1832 357.428 80.4625 357.109 83.726C356.605 87.2993 353.935 94.7348 353.935 94.7348" fill="#263238"/>
<path d="M353.046 95.0211C353.173 95.0682 353.313 95.0658 353.437 95.0144C353.561 94.9631 353.66 94.8666 353.713 94.7449C353.835 94.4492 357.477 88.3164 358.261 83.7286C358.909 79.9408 358.066 77.2022 358.128 73.8893C358.134 73.8207 358.126 73.7513 358.104 73.6856C358.082 73.6198 358.046 73.559 357.999 73.5071C357.952 73.4551 357.895 73.4131 357.832 73.3836C357.768 73.3542 357.699 73.3379 357.629 73.3358C357.559 73.3337 357.489 73.3459 357.425 73.3716C357.36 73.3972 357.302 73.4359 357.253 73.485C357.205 73.5341 357.168 73.5927 357.143 73.6571C357.119 73.7215 357.109 73.7903 357.113 73.8592C357.064 77.1247 356.824 80.3819 356.393 83.6144C355.767 87.0781 352.834 94.3057 352.813 94.3836C352.765 94.4983 352.762 94.6271 352.805 94.745C352.848 94.8629 352.934 94.9614 353.046 95.0211Z" fill="#263238"/>
<path d="M272.453 160.07H167.386V173.984H272.453V160.07Z" fill="#76CAEB"/>
<path d="M188.978 160.07L181.352 173.983H167.788L175.413 160.07H188.978Z" fill="#E7E5E5"/>
<path d="M216.794 160.07L209.169 173.983H195.598L203.218 160.07H216.794Z" fill="#E7E5E5"/>
<path d="M244.605 160.07L236.98 173.983H223.409L231.035 160.07H244.605Z" fill="#E7E5E5"/>
<path d="M272.417 160.07L264.791 173.983H251.221L258.846 160.07H272.417Z" fill="#E7E5E5"/>
<path d="M252.238 191.643H266.691L255.983 125.994H241.536L252.238 191.643Z" fill="#E7E5E5"/>
<path d="M175.171 191.643H189.623L178.921 125.994H164.469L175.171 191.643Z" fill="#E7E5E5"/>
<path d="M258.154 191.643H272.607L261.899 125.994H247.452L258.154 191.643Z" fill="#C5C4C4"/>
<path d="M175.171 191.643H189.623L178.921 125.994H164.469L175.171 191.643Z" fill="#C5C4C4"/>
<path d="M173.207 126L172.308 131.525L171.343 137.465L162.505 191.643H148.058L156.891 137.465L157.861 131.525L158.76 126H173.207Z" fill="#E7E5E5"/>
<path d="M171.118 126C170.355 131.484 169.539 136.962 168.711 142.44L166.161 158.863L163.493 175.262L162.114 183.455L160.677 191.643L161.86 183.42L163.09 175.197L165.634 158.78L168.302 142.375C169.213 136.914 170.136 131.448 171.118 126Z" fill="#C5C4C4"/>
<path d="M172.307 131.525L171.343 137.464H156.891L157.861 131.525H172.307Z" fill="#C5C4C4"/>
<path d="M256.19 126L255.291 131.525L254.32 137.465L245.488 191.643H231.035L239.874 137.465L240.844 131.525L241.743 126H256.19Z" fill="#E7E5E5"/>
<path d="M254.054 126C253.291 131.484 252.474 136.962 251.646 142.44L249.096 158.863L246.428 175.262L245.05 183.455L243.612 191.643L244.795 183.42L246.026 175.197L248.576 158.78L251.244 142.375C252.149 136.914 253.072 131.448 254.054 126Z" fill="#C5C4C4"/>
<path d="M255.29 131.525H240.844L239.874 137.464H254.32L255.29 131.525Z" fill="#C5C4C4"/>
<path d="M254.551 162.566H149.484V176.48H254.551V162.566Z" fill="#76CAEB"/>
<path d="M171.076 162.566L163.451 176.48H149.886L157.512 162.566H171.076Z" fill="#E7E5E5"/>
<path d="M198.893 162.566L191.268 176.48H177.697L185.323 162.566H198.893Z" fill="#E7E5E5"/>
<path d="M226.704 162.566L219.078 176.48H205.508L213.133 162.566H226.704Z" fill="#E7E5E5"/>
<path d="M254.515 162.566L246.889 176.48H233.319L240.944 162.566H254.515Z" fill="#E7E5E5"/>
<path d="M273.423 106.643H149.484V131.531H273.423V106.643Z" fill="#76CAEB"/>
<path d="M174.957 106.643L165.965 131.524H149.957L158.955 106.643H174.957Z" fill="#E7E5E5"/>
<path d="M207.767 106.643L198.775 131.524H182.761L191.759 106.643H207.767Z" fill="#E7E5E5"/>
<path d="M240.571 106.643L231.579 131.524H215.571L224.569 106.643H240.571Z" fill="#E7E5E5"/>
<path d="M273.381 106.643L264.389 131.524H248.375L257.373 106.643H273.381Z" fill="#E7E5E5"/>
<path d="M57.9143 168.243L81.9299 158.554C84.3784 163.646 87.8581 167.244 92.369 169.348C96.8617 171.396 101.382 171.754 105.931 170.423C111.13 168.901 114.881 165.633 117.185 160.617C119.47 155.546 119.294 148.993 116.657 140.96C114.185 133.428 110.534 128.321 105.704 125.638C100.914 122.882 95.6538 122.343 89.9234 124.02C82.7751 126.113 77.345 130.973 73.6329 138.603L52.5223 141.755L44.3257 74.1714L110.167 54.8999L117.39 76.9079L70.4244 90.6548L73.3646 112.633C78.0572 108.385 83.2982 105.414 89.0877 103.72C100.135 100.486 110.744 101.539 120.914 106.878C131.084 112.217 138.156 120.94 142.13 133.045C145.444 143.143 145.3 153.06 141.697 162.798C136.801 176.093 126.851 184.937 111.846 189.329C99.853 192.839 89.0779 192.661 79.5201 188.793C69.9624 184.926 62.7605 178.076 57.9143 168.243Z" fill="#90CAF9"/>
<path d="M57.9143 168.243L81.9299 158.554C84.3784 163.646 87.8581 167.244 92.369 169.348C96.8617 171.396 101.382 171.754 105.931 170.423C111.13 168.901 114.881 165.633 117.185 160.617C119.47 155.546 119.294 148.993 116.657 140.96C114.185 133.428 110.534 128.321 105.704 125.638C100.914 122.882 95.6538 122.343 89.9234 124.02C82.7751 126.113 77.345 130.973 73.6329 138.603L52.5223 141.755L44.3257 74.1714L110.167 54.8999L117.39 76.9079L70.4244 90.6548L73.3646 112.633C78.0572 108.385 83.2982 105.414 89.0877 103.72C100.135 100.486 110.744 101.539 120.914 106.878C131.084 112.217 138.156 120.94 142.13 133.045C145.444 143.143 145.3 153.06 141.697 162.798C136.801 176.093 126.851 184.937 111.846 189.329C99.853 192.839 89.0779 192.661 79.5201 188.793C69.9624 184.926 62.7605 178.076 57.9143 168.243Z" fill="url(#paint1_linear_2926_40923)"/>
<defs>
<linearGradient id="paint0_linear_2926_40923" x1="264.02" y1="84.4507" x2="314.054" y2="206.812" gradientUnits="userSpaceOnUse">
<stop stop-color="#90F9E1"/>
<stop offset="0.95469" stop-color="#69B3EF"/>
</linearGradient>
<linearGradient id="paint1_linear_2926_40923" x1="48.2028" y1="88.2543" x2="98.9299" y2="203.733" gradientUnits="userSpaceOnUse">
<stop stop-color="#90F9E1"/>
<stop offset="0.95469" stop-color="#69B3EF"/>
</linearGradient>
</defs>
</svg>
