<svg width="437" height="298" viewBox="0 0 437 298" fill="none" xmlns="http://www.w3.org/2000/svg">
<g clip-path="url(#clip0_3113_38675)">
<g clip-path="url(#clip1_3113_38675)">
<path d="M194.88 168.58L195.33 155.44L187.27 152.8C186.924 148.347 186.201 143.931 185.11 139.6L191.95 134.6L187.31 122.26L178.85 122.94C176.845 118.964 174.503 115.167 171.85 111.59L176.23 104.28L167.23 94.6698L159.67 98.5398C156.271 95.6339 152.639 93.0118 148.81 90.6998L150.03 82.2998L138.03 76.8598L132.53 83.2998C128.287 81.9425 123.939 80.9391 119.53 80.2998L117.53 72.0698L104.35 71.6198L101.75 79.6898C97.3017 80.0396 92.8898 80.7587 88.5603 81.8398L83.4804 75.0398L71.1404 79.6498L71.8204 88.1098C67.8466 90.1461 64.0501 92.511 60.4704 95.1798L53.1104 90.6998L43.4604 99.6998L47.3303 107.3C44.4237 110.682 41.8141 114.309 39.5304 118.14L31.1404 116.88L25.6604 128.88L32.1404 134.37C30.7734 138.61 29.7698 142.959 29.1404 147.37L20.8104 149.46L20.3604 162.6L28.4604 165.24C28.7954 169.69 29.5147 174.103 30.6104 178.43L23.7704 183.43L28.4204 195.78L36.8804 195.1C38.8811 199.078 41.2232 202.876 43.8804 206.45L39.4904 213.76L48.4904 223.37L56.0504 219.5C59.441 222.405 63.0667 225.024 66.8904 227.33L65.6304 235.72L77.6304 241.17L83.1604 234.73C87.4032 236.099 91.7511 237.119 96.1604 237.78L98.1604 246.01L111.34 246.46L113.94 238.39C118.392 238.036 122.807 237.317 127.14 236.24L132.14 243.04L144.48 238.43L143.84 229.97C147.807 227.921 151.602 225.556 155.19 222.9L162.46 227.28L172.11 218.28L168.24 210.68C171.148 207.298 173.758 203.671 176.04 199.84L184.43 201.1L189.91 189.1L183.43 183.6C184.82 179.363 185.841 175.013 186.48 170.6L194.88 168.58ZM106.09 211.15C95.7783 210.801 85.8012 207.403 77.4211 201.383C69.0411 195.364 62.6346 186.994 59.012 177.333C55.3894 167.672 54.7135 157.153 57.0698 147.108C59.426 137.063 64.7087 127.942 72.2494 120.899C79.7901 113.857 89.2501 109.209 99.4327 107.543C109.615 105.878 120.063 107.27 129.455 111.544C138.846 115.817 146.759 122.78 152.193 131.551C157.626 140.322 160.336 150.508 159.98 160.82C159.506 174.639 153.562 187.705 143.456 197.143C133.351 206.581 119.91 211.619 106.09 211.15Z" fill="#CCD7FF" fill-opacity="0.3"/>
<path d="M266.76 147.057L270.07 143.967L268.76 141.357C269.76 140.188 270.659 138.937 271.45 137.617L274.35 138.047L276.22 133.907L274 132.017C274.478 130.553 274.83 129.051 275.05 127.527L277.9 126.817L278.04 122.277L275.26 121.377C275.138 119.839 274.891 118.314 274.52 116.817L276.87 115.067L275.27 110.817L272.36 111.047C271.658 109.676 270.846 108.365 269.93 107.127L271.44 104.627L268.33 101.307L265.73 102.637C264.559 101.64 263.308 100.74 261.99 99.9471L262.41 97.0471L258.28 95.1571L256.38 97.3871C254.914 96.9304 253.412 96.5959 251.89 96.3871L251.18 93.5471L246.64 93.3771L245.73 96.1771C244.199 96.2941 242.68 96.5417 241.19 96.9171L239.45 94.5671L235.19 96.1571L235.43 99.0771C234.056 99.772 232.744 100.585 231.51 101.507L228.99 99.9971L225.67 103.087L226.96 105.637C225.954 106.803 225.05 108.055 224.26 109.377L221.37 108.947L219.49 113.087L221.72 114.987C221.258 116.449 220.923 117.948 220.72 119.467L217.86 120.177L217.72 124.717L220.51 125.617C220.624 127.155 220.868 128.68 221.24 130.177L218.88 131.917L220.48 136.167L223.4 135.947C224.102 137.318 224.915 138.629 225.83 139.867L224.32 142.367L227.43 145.687L230.03 144.357C231.199 145.357 232.45 146.257 233.77 147.047L233.34 149.937L237.48 151.827L239.38 149.607C240.848 150.059 242.349 150.393 243.87 150.607L244.58 153.447L249.12 153.617L250.03 150.817C251.562 150.701 253.081 150.453 254.57 150.077L256.31 152.427L260.57 150.837L260.34 147.917C261.711 147.221 263.019 146.408 264.25 145.487L266.76 147.057ZM243.14 127.927C242.267 126.991 241.691 125.818 241.485 124.554C241.279 123.291 241.452 121.995 241.983 120.831C242.513 119.666 243.377 118.685 244.466 118.011C245.554 117.338 246.818 117.002 248.097 117.047C249.376 117.091 250.613 117.515 251.652 118.263C252.69 119.011 253.484 120.05 253.931 121.249C254.379 122.448 254.461 123.753 254.167 124.998C253.874 126.244 253.217 127.375 252.28 128.247C251.659 128.833 250.927 129.29 250.128 129.591C249.328 129.893 248.477 130.033 247.623 130.003C246.77 129.973 245.93 129.774 245.154 129.418C244.377 129.062 243.679 128.555 243.1 127.927H243.14Z" fill="#CCD7FF" fill-opacity="0.3"/>
<path d="M336.968 210.129H336.898L319.578 209.539C319.227 209.533 318.883 209.438 318.579 209.263C318.275 209.088 318.02 208.839 317.838 208.539L313.168 200.689C310.651 199.768 308.216 198.638 305.888 197.309L298.418 198.599C298.07 198.663 297.711 198.638 297.376 198.526C297.04 198.414 296.738 198.219 296.498 197.959L284.668 185.299C284.42 185.037 284.243 184.715 284.156 184.365C284.068 184.014 284.072 183.647 284.168 183.299L286.058 175.889C284.887 173.488 283.93 170.988 283.198 168.419L275.668 163.219C275.376 163.019 275.139 162.748 274.98 162.431C274.821 162.115 274.745 161.763 274.758 161.409L275.348 144.089C275.36 143.74 275.457 143.398 275.631 143.095C275.806 142.791 276.052 142.535 276.348 142.349L284.218 137.679C285.125 135.168 286.253 132.742 287.588 130.429L286.208 122.899C286.143 122.55 286.168 122.189 286.28 121.852C286.392 121.515 286.587 121.211 286.848 120.969L299.508 109.149C299.77 108.9 300.091 108.722 300.441 108.633C300.791 108.544 301.159 108.546 301.508 108.639L308.948 110.539C311.343 109.368 313.836 108.407 316.398 107.669L321.598 100.139C321.791 99.8401 322.061 99.5981 322.379 99.4381C322.697 99.2781 323.052 99.206 323.408 99.2292L340.718 99.8292C341.07 99.8367 341.414 99.9321 341.72 100.107C342.026 100.281 342.283 100.53 342.468 100.829L347.138 108.689C349.637 109.607 352.053 110.738 354.358 112.069L361.918 110.679C362.266 110.615 362.625 110.639 362.96 110.751C363.296 110.863 363.598 111.059 363.838 111.319L375.668 123.979C375.914 124.243 376.09 124.564 376.177 124.914C376.265 125.264 376.262 125.631 376.168 125.979L374.268 133.409C375.439 135.806 376.403 138.298 377.148 140.859L384.668 146.059C384.96 146.26 385.196 146.531 385.356 146.847C385.515 147.164 385.591 147.515 385.578 147.869L384.988 165.179C384.976 165.53 384.879 165.873 384.704 166.178C384.53 166.483 384.284 166.741 383.988 166.929L376.118 171.599C375.204 174.105 374.077 176.527 372.748 178.839L374.128 186.379C374.192 186.727 374.168 187.086 374.056 187.422C373.944 187.758 373.748 188.06 373.488 188.299L360.748 200.129C360.486 200.378 360.164 200.554 359.813 200.642C359.463 200.729 359.096 200.725 358.748 200.629L351.348 198.739C348.937 199.905 346.431 200.865 343.858 201.609L338.708 209.129C338.522 209.426 338.266 209.673 337.963 209.847C337.66 210.021 337.318 210.118 336.968 210.129ZM320.878 205.359L335.878 205.869L340.878 198.679C341.155 198.26 341.58 197.96 342.068 197.839C344.882 197.07 347.612 196.021 350.218 194.709C350.672 194.49 351.189 194.437 351.678 194.559L358.678 196.349L369.678 186.099L368.418 178.869C368.321 178.364 368.413 177.841 368.678 177.399C370.163 174.923 371.386 172.299 372.328 169.569C372.487 169.074 372.821 168.655 373.268 168.389L380.798 163.929L381.308 148.929L374.108 143.929C373.729 143.67 373.444 143.295 373.298 142.859C373.298 142.809 373.298 142.749 373.298 142.689C372.527 139.925 371.482 137.245 370.178 134.689C369.946 134.232 369.89 133.706 370.018 133.209L371.818 126.129L361.568 115.129L354.378 116.449C353.876 116.54 353.358 116.448 352.918 116.189C350.437 114.701 347.81 113.471 345.078 112.519C344.921 112.469 344.77 112.402 344.628 112.319C344.34 112.139 344.1 111.892 343.928 111.599L339.418 104.049L324.418 103.529L319.418 110.739C319.12 111.162 318.68 111.464 318.178 111.589C315.393 112.35 312.692 113.392 310.118 114.699C309.664 114.931 309.141 114.988 308.648 114.859L301.568 113.059L290.568 123.309L291.888 130.479C291.966 130.932 291.9 131.397 291.698 131.809L291.598 131.979C290.111 134.465 288.887 137.099 287.948 139.839C287.782 140.309 287.457 140.706 287.028 140.959L279.498 145.429L278.988 160.429L286.198 165.429C286.609 165.711 286.907 166.129 287.038 166.609C287.787 169.417 288.83 172.139 290.148 174.729C290.219 174.877 290.276 175.031 290.318 175.189C290.393 175.518 290.393 175.86 290.318 176.189L288.518 183.189L298.768 194.189L305.908 192.879C306.407 192.788 306.922 192.88 307.358 193.139C309.858 194.625 312.501 195.854 315.248 196.809C315.743 196.956 316.163 197.29 316.418 197.739L320.878 205.359ZM330.148 186.389C329.778 186.389 329.408 186.389 329.038 186.389C320.725 186.243 312.806 182.819 307.005 176.863C301.204 170.907 297.991 162.9 298.064 154.587C298.137 146.273 301.491 138.324 307.396 132.471C313.301 126.618 321.279 123.334 329.593 123.334C337.907 123.334 345.885 126.618 351.79 132.471C357.694 138.324 361.048 146.273 361.122 154.587C361.195 162.9 357.981 170.907 352.18 176.863C346.379 182.819 338.461 186.243 330.148 186.389ZM330.148 127.299C322.883 127.424 315.962 130.414 310.892 135.618C305.821 140.821 303.011 147.817 303.074 155.083C303.136 162.348 306.067 169.294 311.226 174.41C316.386 179.525 323.357 182.395 330.623 182.395C337.888 182.395 344.86 179.525 350.019 174.41C355.179 169.294 358.109 162.348 358.172 155.083C358.234 147.817 355.425 140.821 350.354 135.618C345.283 130.414 338.362 127.424 331.098 127.299H330.148Z" fill="#CCD7FF" fill-opacity="0.3"/>
<path d="M292.289 101.667L285.109 99.7471L283.189 92.5671L285.999 89.7671L288.959 95.8971L295.099 98.8671L292.289 101.667Z" fill="#CCD7FF"/>
<path d="M292.729 96.8668C293.04 96.5562 293.286 96.1875 293.454 95.7817C293.622 95.3759 293.709 94.941 293.709 94.5018C293.709 94.0626 293.622 93.6277 293.454 93.2219C293.286 92.8161 293.04 92.4474 292.729 92.1368C292.418 91.8262 292.05 91.5799 291.644 91.4118C291.238 91.2437 290.803 91.1572 290.364 91.1572C289.925 91.1572 289.49 91.2437 289.084 91.4118C288.678 91.5799 288.31 91.8262 287.999 92.1368L291.569 86.7768L296.349 89.1968L297.399 94.1968L292.729 96.8668Z" fill="#E0E0E0"/>
<path d="M285.429 90.3471L290.689 85.0871L297.849 86.9971L299.779 94.1671L294.519 99.4271L287.349 97.4971L285.429 90.3471ZM294.979 94.6471C295.447 94.1785 295.766 93.5815 295.895 92.9318C296.024 92.282 295.957 91.6087 295.703 90.9967C295.45 90.3848 295.02 89.8618 294.47 89.4938C293.919 89.1259 293.271 88.9295 292.609 88.9295C291.946 88.9295 291.299 89.1259 290.748 89.4938C290.197 89.8618 289.768 90.3848 289.514 90.9967C289.26 91.6087 289.194 92.282 289.323 92.9318C289.452 93.5815 289.771 94.1785 290.239 94.6471C290.872 95.2686 291.725 95.615 292.613 95.6113C293.5 95.6075 294.35 95.2539 294.979 94.6271V94.6471Z" fill="#F0F0F0"/>
<path d="M69.7772 65.7895L72.9772 68.9895C73.3774 69.3828 73.916 69.6032 74.4772 69.6032C75.0383 69.6032 75.5769 69.3828 75.9772 68.9895C76.3681 68.5881 76.5869 68.0499 76.5869 67.4895C76.5869 66.9292 76.3681 66.391 75.9772 65.9895L72.7872 62.7995C72.3857 62.4086 71.8475 62.1898 71.2872 62.1898C70.7268 62.1898 70.1886 62.4086 69.7872 62.7995C69.3955 63.198 69.1752 63.7338 69.1734 64.2925C69.1715 64.8512 69.3882 65.3885 69.7772 65.7895Z" fill="#F0F0F0"/>
<path d="M67.5277 57.8388C68.3627 57.6066 69.2474 57.6233 70.073 57.8869C70.8987 58.1504 71.6294 58.6493 72.1755 59.3224C72.7216 59.9954 73.0592 60.8133 73.147 61.6755C73.2348 62.5378 73.0688 63.4069 72.6696 64.1762C72.2703 64.9454 71.6551 65.5813 70.8994 66.0058C70.1438 66.4303 69.2807 66.625 68.416 66.5658C67.5513 66.5066 66.7227 66.1962 66.032 65.6727C65.3412 65.1491 64.8184 64.4353 64.5277 63.6188C64.3431 63.0424 64.2744 62.4351 64.3254 61.832C64.3765 61.2289 64.5463 60.6419 64.8251 60.1047C65.104 59.5674 65.4863 59.0907 65.9501 58.7018C66.4139 58.313 66.9501 58.0197 67.5277 57.8388Z" fill="#E0E0E0"/>
<path d="M64.0471 63.0841L64.5103 64.3734L74.0155 60.9588L73.5524 59.6695L64.0471 63.0841Z" fill="#F0F0F0"/>
<path d="M140.76 161.78L124.982 160.432L131.545 82.2009L101.104 79.5997L31.0337 150.735L28.593 179.82L92.2379 185.265L90.24 209.051L120.686 211.633L122.684 187.847L138.461 189.195L140.76 161.78ZM60.898 155.003L97.9226 117.831L94.5668 157.889L60.898 155.003Z" fill="url(#paint0_linear_3113_38675)"/>
<path d="M140.76 161.78L124.982 160.432L131.545 82.2009L101.104 79.5997L31.0337 150.735L28.593 179.82L92.2379 185.265L90.24 209.051L120.686 211.633L122.684 187.847L138.461 189.195L140.76 161.78ZM60.898 155.003L97.9226 117.831L94.5668 157.889L60.898 155.003Z" fill="url(#paint1_linear_3113_38675)"/>
<path fill-rule="evenodd" clip-rule="evenodd" d="M269.722 106.29C271.374 110.879 272.449 115.656 272.922 120.51C274.089 130.921 273.988 141.434 272.622 151.82C269.548 175.807 263.282 192.84 253.822 202.92C244.362 213 229.838 216.763 210.252 214.21C199.232 212.783 190.565 209.853 184.252 205.42C177.867 200.909 172.808 194.769 169.602 187.64C167.082 182.353 165.488 175.377 164.822 166.71C164.19 157.254 164.525 147.758 165.822 138.37C169.068 113.25 175.802 96.2501 186.022 87.3701C196.242 78.4901 210.502 75.2435 228.802 77.6301C237.615 78.7768 244.688 80.8135 250.022 83.7401C254.919 86.2888 259.241 89.8147 262.722 94.1001C265.662 97.7836 268.022 101.894 269.722 106.29ZM214.713 181.422C216.254 181.623 217.783 181.753 219.206 181.8L219.2 181.823C226.321 182.095 231.441 180.418 234.853 176.781C239.453 171.868 242.618 162.929 244.253 150.211C244.997 144.586 245.054 138.892 244.425 133.253C244.205 130.926 243.697 128.635 242.913 126.433C242.145 124.459 241.079 122.613 239.754 120.96C238.239 119.129 236.369 117.625 234.257 116.537C231.812 115.203 228.358 114.258 224.001 113.668C222.483 113.473 221.007 113.349 219.614 113.302C212.824 113.065 207.657 114.565 203.831 117.883C200.554 120.729 196.202 127.561 194.094 143.928C193.389 149.033 193.207 154.197 193.551 159.339C193.876 163.62 194.62 167.015 195.754 169.377L195.783 169.442C197.196 172.616 199.44 175.35 202.278 177.354C205.124 179.349 209.305 180.719 214.713 181.422Z" fill="url(#paint2_linear_3113_38675)"/>
<path d="M214.24 71.6198L218.09 70.5799L219.12 66.7299L217.62 65.2299L216.03 68.5198L212.73 70.1099L214.24 71.6198Z" fill="#CCD7FF"/>
<path d="M214.02 69.0403C213.72 68.6966 213.561 68.2514 213.576 67.7949C213.591 67.3384 213.779 66.9047 214.102 66.5817C214.425 66.2587 214.859 66.0706 215.315 66.0555C215.772 66.0404 216.217 66.1994 216.56 66.5002L214.65 63.6302L212.02 64.9102L211.46 67.6103L214.02 69.0403Z" fill="#E0E0E0"/>
<path d="M217.92 65.5303L215.1 62.7103L211.25 63.7103L210.25 67.5603L213.02 70.4103L216.87 69.4103L217.92 65.5303ZM212.8 67.8403C212.615 67.678 212.465 67.4793 212.36 67.2567C212.254 67.034 212.195 66.792 212.187 66.5457C212.179 66.2994 212.222 66.0541 212.312 65.8249C212.403 65.5957 212.539 65.3875 212.713 65.2133C212.888 65.039 213.096 64.9024 213.325 64.8119C213.554 64.7214 213.8 64.6789 214.046 64.6871C214.292 64.6952 214.534 64.7539 214.757 64.8593C214.979 64.9648 215.178 65.115 215.34 65.3004C215.641 65.644 215.8 66.0892 215.785 66.5457C215.77 67.0022 215.582 67.4359 215.259 67.7589C214.936 68.0819 214.502 68.27 214.046 68.2851C213.589 68.3002 213.144 68.1412 212.8 67.8403Z" fill="#F0F0F0"/>
<path fill-rule="evenodd" clip-rule="evenodd" d="M399.62 197.387C395.36 199.762 390.822 201.598 386.109 202.853C376.026 205.695 365.636 207.303 355.166 207.642C330.998 208.504 313.173 205.087 301.691 197.389C290.209 189.691 284.137 175.972 283.476 156.231C283.094 145.125 284.578 136.098 287.927 129.148C291.341 122.116 296.578 116.127 303.092 111.806C305.978 109.797 309.519 108.02 313.716 106.473L313.625 116.522L306.87 126.248L314.521 140.523C315.887 138.202 317.101 136.721 318.712 135.359C313.947 139.547 311.177 145.999 311.306 156.041C311.624 180.813 329.001 182.146 350.403 181.162C371.806 180.179 389.128 177.251 388.81 152.48C388.493 127.708 371.115 126.375 349.713 127.359C338.757 127.862 328.87 128.875 321.871 133.067C322.062 132.942 322.257 132.815 322.458 132.686L315.111 124.762L319.358 115.488L315.51 105.839C317.814 105.059 320.3 104.343 322.968 103.69C332.196 101.532 341.62 100.32 351.094 100.075C376.408 99.1994 394.276 103.083 404.698 111.725C415.119 120.368 420.639 133.911 421.255 152.356C421.555 161.238 420.694 168.549 418.672 174.286C416.953 179.532 414.175 184.37 410.512 188.5C407.355 191.999 403.682 194.996 399.62 197.387ZM321.871 133.067C320.74 133.744 319.685 134.504 318.712 135.359C319.61 134.6 320.632 133.878 321.871 133.067Z" fill="url(#paint3_linear_3113_38675)"/>
<path d="M304.784 157.285C304.676 157.288 304.568 157.269 304.468 157.229C304.367 157.189 304.276 157.13 304.198 157.054C304.121 156.978 304.06 156.888 304.018 156.788C303.976 156.688 303.955 156.581 303.956 156.473C303.954 156.311 304.001 156.152 304.09 156.016C304.178 155.881 304.305 155.774 304.455 155.711C304.604 155.647 304.768 155.63 304.928 155.66C305.087 155.69 305.234 155.766 305.35 155.88C305.465 155.993 305.545 156.139 305.578 156.297C305.611 156.456 305.597 156.621 305.536 156.772C305.476 156.922 305.372 157.051 305.238 157.142C305.104 157.234 304.946 157.284 304.784 157.285Z" fill="#263238"/>
<path d="M311.08 158.971C310.972 158.974 310.865 158.954 310.764 158.915C310.664 158.875 310.572 158.815 310.495 158.74C310.418 158.664 310.356 158.574 310.315 158.474C310.273 158.374 310.252 158.267 310.252 158.159C310.25 157.997 310.297 157.838 310.386 157.702C310.475 157.566 310.602 157.46 310.751 157.397C310.9 157.333 311.065 157.315 311.224 157.345C311.383 157.376 311.53 157.452 311.646 157.566C311.762 157.679 311.841 157.825 311.875 157.983C311.908 158.142 311.893 158.307 311.833 158.457C311.772 158.608 311.668 158.737 311.534 158.828C311.401 158.92 311.243 158.969 311.08 158.971Z" fill="#263238"/>
<path d="M297.883 156.038C297.72 156.041 297.56 155.996 297.423 155.909C297.287 155.821 297.179 155.695 297.114 155.546C297.049 155.397 297.03 155.232 297.058 155.072C297.087 154.912 297.163 154.764 297.277 154.647C297.39 154.53 297.535 154.45 297.694 154.416C297.853 154.382 298.018 154.396 298.169 154.456C298.32 154.517 298.45 154.62 298.542 154.754C298.634 154.889 298.684 155.047 298.685 155.21C298.687 155.425 298.604 155.633 298.454 155.789C298.304 155.944 298.099 156.033 297.883 156.038Z" fill="#263238"/>
<path d="M291.7 155.046C291.482 155.048 291.271 154.964 291.114 154.812C290.957 154.66 290.866 154.452 290.862 154.234C290.861 154.126 290.881 154.019 290.921 153.919C290.961 153.819 291.021 153.728 291.096 153.651C291.172 153.574 291.262 153.513 291.361 153.471C291.46 153.428 291.566 153.406 291.674 153.405C291.782 153.404 291.889 153.423 291.989 153.463C292.089 153.502 292.181 153.561 292.258 153.636C292.335 153.711 292.397 153.801 292.44 153.9C292.483 153.998 292.506 154.105 292.508 154.213C292.509 154.32 292.49 154.427 292.45 154.527C292.41 154.628 292.351 154.719 292.277 154.796C292.202 154.874 292.112 154.936 292.013 154.978C291.914 155.021 291.808 155.044 291.7 155.046Z" fill="#263238"/>
<path d="M285.833 153.767C285.671 153.769 285.512 153.722 285.377 153.633C285.241 153.545 285.135 153.418 285.071 153.268C285.008 153.119 284.99 152.954 285.02 152.795C285.05 152.636 285.127 152.489 285.24 152.373C285.354 152.258 285.499 152.178 285.658 152.145C285.817 152.112 285.982 152.126 286.132 152.187C286.282 152.247 286.411 152.351 286.503 152.485C286.594 152.619 286.644 152.777 286.646 152.939C286.648 153.047 286.629 153.154 286.589 153.255C286.55 153.356 286.49 153.447 286.414 153.524C286.339 153.602 286.248 153.663 286.148 153.705C286.049 153.746 285.941 153.768 285.833 153.767Z" fill="#263238"/>
<path d="M417.768 178.156L385.77 167.366C385.263 167.165 385.085 167.296 385.369 167.451C385.891 167.735 407.425 175.228 417.872 178.474C417.978 178.507 418.316 178.329 417.768 178.156Z" fill="black" stroke="black"/>
<circle cx="415.14" cy="175.764" r="0.756073" transform="rotate(71.8636 415.14 175.764)" fill="black"/>
<circle cx="409.842" cy="173.395" r="0.756073" transform="rotate(71.8636 409.842 173.395)" fill="black"/>
<circle cx="404.237" cy="171.775" r="0.756073" transform="rotate(71.8636 404.237 171.775)" fill="black"/>
<circle cx="397.632" cy="169.251" r="0.756073" transform="rotate(71.8636 397.632 169.251)" fill="black"/>
<circle cx="389.665" cy="165.895" r="0.756073" transform="rotate(71.8636 389.665 165.895)" fill="black"/>
<path d="M398.063 171.845C398.968 172.649 401.017 174.406 401.974 174.995C402.932 175.583 405.114 176.253 406.085 176.514L408.826 176.188L407.322 175.149L398.063 171.845Z" fill="black" stroke="black"/>
<path d="M391.291 166.836C391.142 166.265 391.107 166.276 390.388 165.853L390.105 166.411L390.674 166.728C390.674 166.728 390.574 167.412 390.904 167.428C391.233 167.444 391.41 167.293 391.291 166.836Z" fill="black"/>
<path d="M310.382 160.068C301.959 158.779 284.804 156.264 283.562 156.509C282.01 156.816 282.153 157.371 283.836 157.657C285.182 157.886 303.084 160.235 311.866 161.381C312.491 161.113 313.069 160.475 310.382 160.068Z" fill="black"/>
</g>
<rect x="8.33008" y="193.927" width="420" height="5.68073" rx="2.84036" fill="#66A5D8"/>
<g opacity="0.5">
<path d="M40.3301 211.226H83.8571" stroke="#73B4E8" stroke-width="5" stroke-linecap="round"/>
<path d="M388.774 233.817H432.301" stroke="#73B4E8" stroke-width="5" stroke-linecap="round"/>
<path d="M167.058 246.46H210.585" stroke="#73B4E8" stroke-width="5" stroke-linecap="round"/>
<path d="M114.535 224.984H158.062" stroke="#BDE2FF" stroke-width="3" stroke-linecap="round"/>
<path d="M284.699 246.46H328.226" stroke="#32A5FF" stroke-width="3" stroke-linecap="round"/>
<path d="M396.803 207.564H440.33" stroke="#BDE2FF" stroke-width="3" stroke-linecap="round"/>
<path d="M387.982 260.76H431.509" stroke="#BDE2FF" stroke-width="3" stroke-linecap="round"/>
<path d="M223.82 211.226H267.347" stroke="#BDE2FF" stroke-width="3" stroke-linecap="round"/>
<path d="M70.2158 253.623H97.505" stroke="#32A5FF" stroke-width="3" stroke-linecap="round"/>
<path d="M330.724 224.984H358.013" stroke="#32A5FF" stroke-width="3" stroke-linecap="round"/>
</g>
</g>
<defs>
<linearGradient id="paint0_linear_3113_38675" x1="81.0794" y1="97.4324" x2="75.0539" y2="204.973" gradientUnits="userSpaceOnUse">
<stop stop-color="#90CAF9"/>
<stop offset="1" stop-color="#4F91C6"/>
</linearGradient>
<linearGradient id="paint1_linear_3113_38675" x1="50.9935" y1="93.9753" x2="62.9093" y2="218.859" gradientUnits="userSpaceOnUse">
<stop stop-color="#90F9E1"/>
<stop offset="0.95469" stop-color="#4F91C6"/>
</linearGradient>
<linearGradient id="paint2_linear_3113_38675" x1="187.261" y1="93.0956" x2="214.46" y2="230.879" gradientUnits="userSpaceOnUse">
<stop stop-color="#90F9E1"/>
<stop offset="0.95469" stop-color="#4F91C6"/>
</linearGradient>
<linearGradient id="paint3_linear_3113_38675" x1="329.02" y1="87.5839" x2="375.152" y2="201.761" gradientUnits="userSpaceOnUse">
<stop stop-color="#90F9E1"/>
<stop offset="0.95469" stop-color="#4F91C6"/>
</linearGradient>
<clipPath id="clip0_3113_38675">
<rect width="436" height="297" fill="white" transform="translate(0.330078 0.342163)"/>
</clipPath>
<clipPath id="clip1_3113_38675">
<rect width="420" height="157" fill="white" transform="translate(8.33008 36.928)"/>
</clipPath>
</defs>
</svg>
