<svg width="436" height="297" viewBox="0 0 436 297" fill="none" xmlns="http://www.w3.org/2000/svg">
<g clip-path="url(#clip0_3125_38614)">
<path d="M194.55 168.238L195 155.098L186.94 152.458C186.594 148.005 185.871 143.589 184.78 139.258L191.62 134.258L186.98 121.918L178.52 122.598C176.514 118.622 174.173 114.825 171.52 111.248L175.9 103.938L166.9 94.3277L159.34 98.1976C155.941 95.2918 152.309 92.6696 148.48 90.3577L149.7 81.9576L137.7 76.5177L132.2 82.9576C127.957 81.6004 123.609 80.5969 119.2 79.9576L117.2 71.7277L104.02 71.2776L101.42 79.3476C96.9716 79.6974 92.5597 80.4165 88.2303 81.4977L83.1503 74.6976L70.8103 79.3076L71.4903 87.7677C67.5166 89.804 63.72 92.1689 60.1403 94.8377L52.7803 90.3577L43.1303 99.3577L47.0003 106.958C44.0936 110.34 41.484 113.967 39.2003 117.798L30.8103 116.538L25.3303 128.538L31.8103 134.028C30.4434 138.268 29.4397 142.617 28.8103 147.028L20.4803 149.118L20.0303 162.258L28.1303 164.898C28.4653 169.348 29.1847 173.761 30.2803 178.088L23.4403 183.088L28.0903 195.438L36.5503 194.758C38.551 198.736 40.8931 202.534 43.5503 206.108L39.1603 213.418L48.1603 223.028L55.7203 219.158C59.1109 222.063 62.7367 224.682 66.5603 226.988L65.3003 235.378L77.3003 240.828L82.8303 234.388C87.0732 235.757 91.421 236.777 95.8303 237.438L97.8303 245.668L111.01 246.118L113.61 238.048C118.062 237.694 122.477 236.975 126.81 235.898L131.81 242.698L144.15 238.088L143.51 229.628C147.477 227.578 151.272 225.214 154.86 222.558L162.13 226.938L171.78 217.938L167.91 210.338C170.818 206.956 173.428 203.329 175.71 199.498L184.1 200.758L189.58 188.758L183.1 183.258C184.49 179.02 185.511 174.671 186.15 170.258L194.55 168.238ZM105.76 210.808C95.4482 210.459 85.4711 207.06 77.0911 201.041C68.711 195.021 62.3045 186.652 58.6819 176.991C55.0593 167.329 54.3834 156.811 56.7397 146.766C59.096 136.72 64.3786 127.6 71.9193 120.557C79.46 113.515 88.92 108.867 99.1027 107.201C109.285 105.536 119.733 106.928 129.125 111.201C138.516 115.475 146.429 122.438 151.863 131.209C157.296 139.98 160.006 150.166 159.65 160.478C159.176 174.297 153.232 187.363 143.126 196.801C133.02 206.239 119.58 211.277 105.76 210.808Z" fill="#CCD7FF" fill-opacity="0.3"/>
<path d="M266.43 146.715L269.74 143.625L268.43 141.015C269.429 139.845 270.329 138.594 271.12 137.275L274.02 137.705L275.89 133.565L273.67 131.675C274.148 130.211 274.5 128.709 274.72 127.185L277.57 126.475L277.71 121.935L274.93 121.035C274.808 119.497 274.561 117.972 274.19 116.475L276.54 114.725L274.94 110.475L272.03 110.705C271.328 109.334 270.516 108.023 269.6 106.785L271.11 104.285L268 100.965L265.4 102.295C264.229 101.298 262.978 100.398 261.66 99.6049L262.08 96.7049L257.95 94.8149L256.05 97.0449C254.584 96.5882 253.082 96.2538 251.56 96.0449L250.85 93.2049L246.31 93.0349L245.4 95.8349C243.869 95.952 242.35 96.1995 240.86 96.5749L239.12 94.2249L234.86 95.8149L235.1 98.7349C233.726 99.4298 232.414 100.243 231.18 101.165L228.66 99.6549L225.34 102.745L226.63 105.295C225.624 106.461 224.72 107.712 223.93 109.035L221.04 108.605L219.16 112.745L221.39 114.645C220.928 116.107 220.593 117.605 220.39 119.125L217.53 119.835L217.39 124.375L220.18 125.275C220.294 126.813 220.538 128.338 220.91 129.835L218.55 131.575L220.15 135.825L223.07 135.605C223.772 136.976 224.585 138.287 225.5 139.525L223.99 142.025L227.1 145.345L229.7 144.015C230.869 145.015 232.12 145.915 233.44 146.705L233.01 149.595L237.15 151.485L239.05 149.265C240.518 149.717 242.019 150.051 243.54 150.265L244.25 153.105L248.79 153.275L249.7 150.475C251.232 150.359 252.751 150.111 254.24 149.735L255.98 152.085L260.24 150.495L260.01 147.575C261.381 146.879 262.689 146.066 263.92 145.145L266.43 146.715ZM242.81 127.585C241.937 126.649 241.361 125.475 241.155 124.212C240.949 122.949 241.122 121.653 241.652 120.488C242.183 119.324 243.047 118.342 244.136 117.669C245.224 116.995 246.488 116.66 247.767 116.705C249.046 116.749 250.283 117.172 251.322 117.92C252.36 118.668 253.153 119.708 253.601 120.907C254.049 122.106 254.131 123.411 253.837 124.656C253.543 125.902 252.887 127.033 251.95 127.905C251.329 128.491 250.597 128.948 249.798 129.249C248.998 129.551 248.147 129.691 247.293 129.661C246.44 129.631 245.6 129.432 244.824 129.076C244.047 128.72 243.349 128.213 242.77 127.585H242.81Z" fill="#CCD7FF" fill-opacity="0.3"/>
<path d="M336.638 209.787H336.568L319.248 209.197C318.897 209.191 318.553 209.096 318.249 208.921C317.945 208.746 317.69 208.497 317.508 208.197L312.838 200.347C310.321 199.426 307.885 198.296 305.558 196.967L298.088 198.257C297.74 198.321 297.381 198.296 297.046 198.184C296.71 198.072 296.408 197.877 296.168 197.617L284.338 184.957C284.089 184.695 283.913 184.373 283.825 184.023C283.738 183.672 283.742 183.305 283.838 182.957L285.728 175.547C284.557 173.146 283.6 170.646 282.868 168.077L275.338 162.877C275.046 162.677 274.809 162.406 274.65 162.089C274.491 161.773 274.414 161.421 274.428 161.067L275.018 143.747C275.029 143.397 275.127 143.056 275.301 142.753C275.475 142.449 275.722 142.193 276.018 142.007L283.888 137.337C284.795 134.826 285.923 132.4 287.258 130.087L285.878 122.557C285.813 122.208 285.838 121.847 285.95 121.51C286.062 121.172 286.257 120.869 286.518 120.627L299.178 108.807C299.44 108.558 299.761 108.38 300.111 108.291C300.461 108.202 300.829 108.204 301.178 108.297L308.618 110.197C311.013 109.026 313.506 108.065 316.068 107.327L321.268 99.7971C321.461 99.498 321.731 99.2559 322.049 99.0959C322.367 98.936 322.722 98.8639 323.078 98.8871L340.388 99.4871C340.74 99.4945 341.084 99.5899 341.39 99.7646C341.696 99.9393 341.953 100.188 342.138 100.487L346.808 108.347C349.307 109.265 351.722 110.395 354.028 111.727L361.588 110.337C361.936 110.272 362.295 110.297 362.63 110.409C362.966 110.521 363.268 110.717 363.508 110.977L375.338 123.637C375.584 123.9 375.76 124.222 375.847 124.572C375.935 124.922 375.931 125.289 375.838 125.637L373.938 133.067C375.109 135.463 376.073 137.956 376.818 140.517L384.338 145.717C384.63 145.918 384.866 146.189 385.025 146.505C385.185 146.822 385.261 147.173 385.248 147.527L384.658 164.837C384.646 165.188 384.549 165.531 384.374 165.836C384.2 166.141 383.954 166.399 383.658 166.587L375.788 171.257C374.874 173.763 373.747 176.185 372.418 178.497L373.798 186.037C373.862 186.385 373.838 186.744 373.726 187.08C373.614 187.416 373.418 187.717 373.158 187.957L360.418 199.787C360.155 200.035 359.834 200.212 359.483 200.299C359.133 200.387 358.766 200.383 358.418 200.287L351.018 198.397C348.606 199.563 346.101 200.523 343.528 201.267L338.378 208.787C338.192 209.084 337.936 209.33 337.633 209.505C337.329 209.679 336.988 209.776 336.638 209.787ZM320.548 205.017L335.548 205.527L340.548 198.337C340.825 197.917 341.25 197.618 341.738 197.497C344.552 196.728 347.282 195.679 349.888 194.367C350.342 194.148 350.858 194.095 351.348 194.217L358.348 196.007L369.348 185.757L368.088 178.527C367.99 178.022 368.083 177.498 368.348 177.057C369.833 174.581 371.056 171.957 371.998 169.227C372.157 168.732 372.491 168.313 372.938 168.047L380.468 163.587L380.978 148.587L373.778 143.587C373.398 143.328 373.114 142.952 372.968 142.517C372.968 142.467 372.968 142.407 372.968 142.347C372.197 139.583 371.152 136.903 369.848 134.347C369.616 133.89 369.56 133.363 369.688 132.867L371.488 125.787L361.238 114.787L354.048 116.107C353.546 116.198 353.028 116.106 352.588 115.847C350.107 114.359 347.48 113.129 344.748 112.177C344.591 112.127 344.44 112.06 344.298 111.977C344.01 111.797 343.769 111.55 343.598 111.257L339.088 103.707L324.088 103.187L319.088 110.397C318.79 110.82 318.35 111.121 317.848 111.247C315.063 112.008 312.362 113.05 309.788 114.357C309.334 114.589 308.811 114.646 308.318 114.517L301.238 112.717L290.238 122.967L291.558 130.137C291.636 130.589 291.57 131.055 291.368 131.467L291.268 131.637C289.78 134.123 288.557 136.757 287.618 139.497C287.452 139.967 287.126 140.363 286.698 140.617L279.168 145.087L278.658 160.087L285.868 165.087C286.279 165.368 286.577 165.787 286.708 166.267C287.457 169.075 288.5 171.797 289.818 174.387C289.889 174.535 289.946 174.689 289.988 174.847C290.063 175.176 290.063 175.518 289.988 175.847L288.188 182.847L298.438 193.847L305.578 192.537C306.077 192.446 306.592 192.538 307.028 192.797C309.528 194.282 312.171 195.512 314.918 196.467C315.413 196.614 315.833 196.948 316.088 197.397L320.548 205.017ZM329.818 186.047C329.448 186.047 329.078 186.047 328.708 186.047C320.395 185.901 312.476 182.477 306.675 176.521C300.874 170.565 297.661 162.558 297.734 154.244C297.807 145.931 301.161 137.982 307.066 132.129C312.971 126.276 320.949 122.992 329.263 122.992C337.577 122.992 345.555 126.276 351.459 132.129C357.364 137.982 360.718 145.931 360.792 154.244C360.865 162.558 357.651 170.565 351.85 176.521C346.049 182.477 338.131 185.901 329.818 186.047ZM329.818 126.957C322.553 127.082 315.632 130.072 310.562 135.276C305.491 140.479 302.681 147.475 302.744 154.74C302.806 162.006 305.736 168.952 310.896 174.068C316.056 179.183 323.027 182.053 330.293 182.053C337.558 182.053 344.53 179.183 349.689 174.068C354.849 168.952 357.779 162.006 357.842 154.74C357.904 147.475 355.094 140.479 350.024 135.276C344.953 130.072 338.032 127.082 330.768 126.957H329.818Z" fill="#CCD7FF" fill-opacity="0.3"/>
<path d="M291.959 101.325L284.779 99.4049L282.859 92.2249L285.669 89.4249L288.629 95.5549L294.769 98.5249L291.959 101.325Z" fill="#CCD7FF" fill-opacity="0.5"/>
<path d="M292.399 96.5246C292.71 96.2141 292.956 95.8453 293.124 95.4396C293.292 95.0338 293.379 94.5989 293.379 94.1596C293.379 93.7204 293.292 93.2855 293.124 92.8797C292.956 92.4739 292.71 92.1052 292.399 91.7946C292.088 91.4841 291.72 91.2377 291.314 91.0696C290.908 90.9015 290.473 90.815 290.034 90.815C289.595 90.815 289.16 90.9015 288.754 91.0696C288.348 91.2377 287.98 91.4841 287.669 91.7946L291.239 86.4346L296.019 88.8546L297.069 93.8546L292.399 96.5246Z" fill="#CCD7FF" fill-opacity="0.5"/>
<path d="M285.099 90.0049L290.359 84.7449L297.519 86.6549L299.449 93.8249L294.189 99.0849L287.019 97.1549L285.099 90.0049ZM294.649 94.3049C295.117 93.8363 295.436 93.2394 295.565 92.5896C295.694 91.9399 295.627 91.2665 295.373 90.6546C295.12 90.0426 294.69 89.5196 294.139 89.1517C293.589 88.7837 292.941 88.5873 292.279 88.5873C291.616 88.5873 290.969 88.7837 290.418 89.1517C289.867 89.5196 289.438 90.0426 289.184 90.6546C288.93 91.2665 288.864 91.9399 288.993 92.5896C289.122 93.2394 289.44 93.8363 289.909 94.3049C290.542 94.9264 291.395 95.2729 292.283 95.2691C293.17 95.2654 294.02 94.9117 294.649 94.2849V94.3049Z" fill="#F0F0F0"/>
<path d="M69.4471 65.4474L72.6471 68.6474C73.0473 69.0407 73.586 69.2611 74.1471 69.2611C74.7082 69.2611 75.2469 69.0407 75.6471 68.6474C76.038 68.2459 76.2568 67.7077 76.2568 67.1474C76.2568 66.587 76.038 66.0488 75.6471 65.6474L72.4571 62.4574C72.0556 62.0664 71.5174 61.8477 70.9571 61.8477C70.3967 61.8477 69.8585 62.0664 69.4571 62.4574C69.0654 62.8558 68.8451 63.3916 68.8433 63.9503C68.8414 64.509 69.0581 65.0463 69.4471 65.4474Z" fill="#F0F0F0"/>
<path d="M67.1976 57.4967C68.0326 57.2645 68.9173 57.2812 69.743 57.5447C70.5686 57.8083 71.2994 58.3072 71.8454 58.9802C72.3915 59.6533 72.7292 60.4711 72.8169 61.3334C72.9047 62.1956 72.7388 63.0647 72.3395 63.834C71.9402 64.6033 71.325 65.2392 70.5694 65.6637C69.8137 66.0882 68.9506 66.2828 68.0859 66.2236C67.2212 66.1644 66.3926 65.854 65.7019 65.3305C65.0112 64.807 64.4883 64.0931 64.1976 63.2767C64.013 62.7002 63.9443 62.093 63.9954 61.4899C64.0464 60.8868 64.2162 60.2997 64.4951 59.7625C64.7739 59.2253 65.1562 58.7485 65.62 58.3597C66.0839 57.9708 66.62 57.6775 67.1976 57.4967Z" fill="#CCD7FF" fill-opacity="0.5"/>
<path d="M63.717 62.7419L64.1802 64.0312L73.6855 60.6166L73.2223 59.3273L63.717 62.7419Z" fill="#F0F0F0"/>
<path d="M140.43 161.438L124.652 160.09L131.214 81.8587L100.774 79.2575L30.7036 150.393L28.2629 179.478L91.9078 184.922L89.91 208.709L120.356 211.291L122.354 187.504L138.131 188.852L140.43 161.438ZM60.5679 154.661L97.5925 117.488L94.2367 157.547L60.5679 154.661Z" fill="url(#paint0_linear_3125_38614)"/>
<path d="M213.91 71.2777L217.76 70.2377L218.79 66.3877L217.29 64.8877L215.7 68.1777L212.4 69.7677L213.91 71.2777Z" fill="#CCD7FF"/>
<path d="M213.69 68.6981C213.389 68.3544 213.23 67.9092 213.246 67.4527C213.261 66.9962 213.449 66.5625 213.772 66.2396C214.095 65.9166 214.529 65.7285 214.985 65.7133C215.442 65.6982 215.887 65.8572 216.23 66.1581L214.32 63.2881L211.69 64.5681L211.13 67.2681L213.69 68.6981Z" fill="#E0E0E0"/>
<path d="M217.59 65.1882L214.77 62.3682L210.92 63.3682L209.92 67.2182L212.69 70.0682L216.54 69.0682L217.59 65.1882ZM212.47 67.4982C212.285 67.3358 212.135 67.1372 212.029 66.9145C211.924 66.6918 211.865 66.4498 211.857 66.2035C211.849 65.9572 211.891 65.7119 211.982 65.4827C212.072 65.2535 212.209 65.0454 212.383 64.8711C212.558 64.6969 212.766 64.5603 212.995 64.4698C213.224 64.3792 213.469 64.3367 213.716 64.3449C213.962 64.3531 214.204 64.4117 214.427 64.5172C214.649 64.6227 214.848 64.7728 215.01 64.9582C215.311 65.3018 215.47 65.747 215.455 66.2035C215.44 66.66 215.252 67.0937 214.929 67.4167C214.606 67.7397 214.172 67.9278 213.716 67.9429C213.259 67.9581 212.814 67.7991 212.47 67.4982Z" fill="#F0F0F0"/>
<path d="M381.598 218.952L354.349 221.185L345.936 118.494C336.743 128.619 325.574 136.465 312.428 142.033L310.403 117.306C317.323 114.396 324.688 109.367 332.498 102.219C340.302 95.0066 345.401 86.9419 347.794 78.0251L369.903 76.2138L381.598 218.952Z" fill="url(#paint1_linear_3125_38614)"/>
<path d="M230.763 211.389C267.105 205.687 291.944 171.605 286.243 135.263C280.542 98.9209 246.459 74.0818 210.117 79.7831C173.775 85.4843 148.936 119.567 154.638 155.909C160.339 192.251 194.422 217.09 230.763 211.389Z" fill="url(#paint2_linear_3125_38614)"/>
<path d="M207.056 202.584C195.78 199.936 185.542 194.004 177.637 185.537C169.732 177.071 164.515 166.45 162.645 155.019C160.776 143.587 162.339 131.858 167.136 121.315C171.933 110.772 179.749 101.887 189.595 95.786C199.441 89.6846 210.875 86.6399 222.451 87.0369C234.028 87.4339 245.227 91.2548 254.632 98.0165C264.037 104.778 271.225 114.177 275.289 125.024C279.352 135.871 280.107 147.68 277.46 158.956C273.897 174.07 264.482 187.153 251.282 195.333C238.083 203.512 222.177 206.12 207.056 202.584ZM232.786 93.0087C222.39 90.5677 211.505 91.2642 201.505 95.01C191.505 98.7558 182.841 105.383 176.608 114.053C170.375 122.723 166.852 133.046 166.486 143.718C166.12 154.39 168.927 164.931 174.552 174.007C180.177 183.084 188.366 190.289 198.086 194.711C207.805 199.133 218.618 200.573 229.156 198.85C239.694 197.127 249.485 192.318 257.289 185.031C265.094 177.744 270.563 168.305 273.004 157.91C276.263 143.971 273.858 129.309 266.318 117.141C258.778 104.973 246.718 96.2942 232.786 93.0087Z" fill="white"/>
<path d="M201.265 148.183L201.161 147.946C200.122 145.471 199.108 143.002 198.007 140.566C197.677 139.806 197.221 139.106 196.66 138.497C196.125 137.909 195.454 137.46 194.706 137.19C193.957 136.921 193.155 136.837 192.367 136.948C191.579 137.059 190.831 137.36 190.186 137.826C189.541 138.292 189.02 138.908 188.667 139.621C188.314 140.318 188.115 141.082 188.083 141.863C188.051 142.644 188.187 143.422 188.481 144.146L196.261 165.308C197.566 169.128 200.011 172.455 203.266 174.841C208.817 178.876 215.592 180.871 222.445 180.487C224.871 180.418 227.249 179.795 229.398 178.665C231.546 177.535 233.407 175.929 234.838 173.968C236.608 171.653 237.859 168.985 238.508 166.145C240.281 158.593 242.054 151.041 243.798 143.615C244.75 139.563 245.701 135.51 246.653 131.457C246.828 130.824 246.851 130.158 246.721 129.513C246.591 128.869 246.311 128.265 245.904 127.749C245.435 127.096 244.781 126.599 244.027 126.322C243.272 126.046 242.452 126.002 241.673 126.197C240.873 126.33 240.133 126.705 239.553 127.272C238.974 127.839 238.582 128.571 238.432 129.367C237.149 134.83 235.873 140.267 234.59 145.729C234.371 146.661 233.875 147.076 233.196 146.916C232.516 146.756 232.282 146.17 232.501 145.239L238.039 121.652C238.143 121.323 238.222 120.986 238.275 120.645C238.409 119.565 238.12 118.474 237.468 117.602C236.816 116.73 235.851 116.145 234.777 115.968C233.702 115.791 232.601 116.037 231.704 116.654C230.807 117.271 230.184 118.212 229.964 119.278L224.946 140.65C224.911 140.854 224.864 141.055 224.804 141.254C224.718 141.49 224.55 141.687 224.331 141.811C224.112 141.935 223.857 141.977 223.61 141.929C223.361 141.887 223.138 141.754 222.983 141.555C222.828 141.357 222.753 141.107 222.773 140.856C222.798 140.633 222.85 140.413 222.926 140.202L228.488 116.515C228.552 116.3 228.603 116.081 228.642 115.86C228.77 115.188 228.724 114.494 228.509 113.845C228.295 113.195 227.919 112.61 227.416 112.146C226.894 111.559 226.217 111.13 225.463 110.91C224.708 110.689 223.907 110.685 223.151 110.898C222.394 111.111 221.713 111.532 221.185 112.114C220.657 112.696 220.303 113.415 220.164 114.188C218.28 122.21 216.398 130.223 214.519 138.228C214.488 138.415 214.445 138.6 214.389 138.782C214.299 139.028 214.123 139.234 213.893 139.361C213.663 139.487 213.395 139.526 213.138 139.471C212.888 139.415 212.667 139.27 212.515 139.064C212.363 138.857 212.291 138.603 212.313 138.347C212.343 138.16 212.387 137.975 212.443 137.793L214.541 128.857C215.321 125.534 216.108 122.187 216.905 118.788C217.024 118.247 217.034 117.689 216.937 117.144C216.839 116.599 216.635 116.079 216.336 115.613C215.733 114.672 214.78 114.009 213.688 113.77C212.596 113.531 211.454 113.736 210.513 114.339C209.572 114.943 208.909 115.895 208.67 116.987L201.34 148.201L201.265 148.183Z" fill="white"/>
<path d="M201.264 148.183L208.576 117.045C208.694 116.504 208.918 115.992 209.234 115.538C209.55 115.083 209.953 114.696 210.419 114.397C211.36 113.794 212.502 113.589 213.594 113.828C214.686 114.066 215.639 114.729 216.242 115.67C216.846 116.612 217.05 117.754 216.812 118.846C216.031 122.169 215.245 125.517 214.447 128.915L212.349 137.851C212.293 138.032 212.249 138.217 212.219 138.405C212.198 138.66 212.269 138.915 212.421 139.121C212.573 139.328 212.794 139.472 213.044 139.528C213.301 139.584 213.569 139.545 213.799 139.418C214.029 139.292 214.205 139.086 214.295 138.839C214.351 138.658 214.394 138.473 214.425 138.285C216.305 130.281 218.186 122.267 220.07 114.246C220.23 113.515 220.582 112.84 221.092 112.291C221.601 111.743 222.248 111.34 222.965 111.126C223.682 110.913 224.443 110.895 225.17 111.075C225.896 111.255 226.561 111.626 227.096 112.151C227.598 112.615 227.974 113.199 228.189 113.849C228.403 114.499 228.449 115.193 228.322 115.865C228.283 116.086 228.231 116.304 228.168 116.519L222.606 140.206C222.529 140.418 222.478 140.637 222.452 140.861C222.433 141.112 222.508 141.361 222.663 141.56C222.818 141.759 223.041 141.892 223.289 141.934C223.536 141.981 223.792 141.939 224.011 141.815C224.23 141.692 224.397 141.494 224.484 141.258C224.544 141.06 224.591 140.858 224.626 140.654L229.662 119.207C229.881 118.141 230.504 117.2 231.402 116.583C232.299 115.966 233.4 115.72 234.474 115.897C235.549 116.074 236.513 116.659 237.165 117.531C237.817 118.403 238.107 119.494 237.973 120.574C237.919 120.916 237.84 121.252 237.736 121.581L232.198 145.168C231.979 146.099 232.213 146.685 232.893 146.845C233.573 147.005 234.069 146.59 234.287 145.658C235.57 140.196 236.847 134.759 238.129 129.296C238.279 128.5 238.671 127.768 239.251 127.201C239.83 126.634 240.57 126.259 241.37 126.127C242.15 125.931 242.97 125.975 243.724 126.251C244.479 126.528 245.133 127.025 245.601 127.678C246.008 128.194 246.288 128.798 246.418 129.443C246.548 130.087 246.525 130.753 246.35 131.386C245.399 135.439 244.447 139.492 243.495 143.544C241.722 151.096 239.949 158.648 238.205 166.074C237.556 168.914 236.305 171.582 234.536 173.897C233.104 175.858 231.243 177.464 229.095 178.594C226.947 179.724 224.568 180.347 222.142 180.416C215.289 180.8 208.515 178.806 202.963 174.77C199.712 172.399 197.264 169.09 195.947 165.288L188.167 144.125C187.872 143.402 187.736 142.623 187.768 141.843C187.8 141.062 188 140.297 188.353 139.6C188.694 138.85 189.219 138.198 189.88 137.705C190.54 137.212 191.315 136.895 192.131 136.781C192.948 136.668 193.78 136.764 194.549 137.058C195.319 137.353 196.002 137.838 196.534 138.467C197.095 139.077 197.55 139.776 197.881 140.536C198.982 142.973 199.996 145.442 201.035 147.917L201.139 148.154L201.264 148.183Z" fill="white"/>
</g>
<rect x="8" y="193.585" width="420" height="5.68073" rx="2.84036" fill="#6DBBEE"/>
<g opacity="0.5">
<path d="M24.7451 210.884H66.7632" stroke="#73B4E8" stroke-width="5" stroke-linecap="round"/>
<path d="M361.484 233.475H403.502" stroke="#73B4E8" stroke-width="5" stroke-linecap="round"/>
<path d="M147.208 246.117H189.226" stroke="#73B4E8" stroke-width="5" stroke-linecap="round"/>
<path d="M96.4497 224.642H138.468" stroke="#BDE2FF" stroke-width="3" stroke-linecap="round"/>
<path d="M260.911 246.117H302.929" stroke="#32A5FF" stroke-width="3" stroke-linecap="round"/>
<path d="M369.237 207.222H411.255" stroke="#BDE2FF" stroke-width="3" stroke-linecap="round"/>
<path d="M360.715 260.418H402.733" stroke="#BDE2FF" stroke-width="3" stroke-linecap="round"/>
<path d="M202.07 210.884H244.088" stroke="#BDE2FF" stroke-width="3" stroke-linecap="round"/>
<path d="M53.626 253.28H79.9215" stroke="#32A5FF" stroke-width="3" stroke-linecap="round"/>
<path d="M305.384 224.642H331.679" stroke="#32A5FF" stroke-width="3" stroke-linecap="round"/>
</g>
<g style="mix-blend-mode:lighten">
<rect x="14.9272" y="206.826" width="406.146" height="53.5928" fill="url(#paint3_linear_3125_38614)"/>
</g>
<defs>
<linearGradient id="paint0_linear_3125_38614" x1="50.6634" y1="93.6332" x2="62.5792" y2="218.517" gradientUnits="userSpaceOnUse">
<stop stop-color="#90F9E1"/>
<stop offset="0.95469" stop-color="#69B3EF"/>
</linearGradient>
<linearGradient id="paint1_linear_3125_38614" x1="312.094" y1="47.8299" x2="430.555" y2="289.565" gradientUnits="userSpaceOnUse">
<stop stop-color="#90F9E1"/>
<stop offset="0.95469" stop-color="#69B3EF"/>
</linearGradient>
<linearGradient id="paint2_linear_3125_38614" x1="185.457" y1="86.8408" x2="214.632" y2="230.042" gradientUnits="userSpaceOnUse">
<stop stop-color="#90F9E1"/>
<stop offset="0.95469" stop-color="#69B3EF"/>
</linearGradient>
<linearGradient id="paint3_linear_3125_38614" x1="179.795" y1="156.168" x2="239.63" y2="284.158" gradientUnits="userSpaceOnUse">
<stop stop-color="#8CF2E0" stop-opacity="0"/>
<stop offset="1" stop-color="#8CF2E0"/>
</linearGradient>
<clipPath id="clip0_3125_38614">
<rect width="420" height="157" fill="white" transform="translate(8 36.5858)"/>
</clipPath>
</defs>
</svg>
