<svg width="25" height="24" viewBox="0 0 25 24" fill="none" xmlns="http://www.w3.org/2000/svg">
<path d="M6.54592 14.0863L5.84975 16.6852L3.30525 16.739C2.54482 15.3286 2.11349 13.7148 2.11349 12C2.11349 10.3418 2.51678 8.77801 3.23162 7.40109H3.23217L5.49748 7.8164L6.48982 10.0681C6.28213 10.6736 6.16893 11.3236 6.16893 12C6.169 12.7341 6.30197 13.4374 6.54592 14.0863Z" fill="#FBBB00"/>
<path d="M21.9387 10.1319C22.0535 10.7368 22.1134 11.3616 22.1134 12.0001C22.1134 12.716 22.0381 13.4144 21.8947 14.088C21.4079 16.3803 20.1359 18.3819 18.3738 19.7984L18.3733 19.7979L15.52 19.6523L15.1162 17.1314C16.2854 16.4457 17.1992 15.3726 17.6805 14.088H12.3332V10.1319H17.7585H21.9387Z" fill="#518EF8"/>
<path d="M18.3734 19.7978L18.374 19.7983C16.6603 21.1758 14.4833 22 12.1136 22C8.30531 22 4.99433 19.8714 3.30531 16.739L6.54597 14.0863C7.39046 16.3401 9.56464 17.9445 12.1136 17.9445C13.2091 17.9445 14.2355 17.6483 15.1163 17.1313L18.3734 19.7978Z" fill="#28B446"/>
<path d="M18.4965 4.30219L15.2569 6.95438C14.3454 6.38461 13.2679 6.05547 12.1135 6.05547C9.50693 6.05547 7.29209 7.73348 6.4899 10.0681L3.23221 7.4011H3.23166C4.89596 4.19231 8.24869 2 12.1135 2C14.5399 2 16.7646 2.8643 18.4965 4.30219Z" fill="#F14336"/>
</svg>
