<svg width="25" height="24" viewBox="0 0 25 24" fill="none" xmlns="http://www.w3.org/2000/svg">
<path d="M22.8865 12C22.8865 16.9914 19.2295 21.1285 14.449 21.8785V14.8906H16.7791L17.2224 12H14.449V10.1242C14.449 9.3332 14.8365 8.5625 16.0787 8.5625H17.3396V6.10156C17.3396 6.10156 16.1951 5.90625 15.101 5.90625C12.817 5.90625 11.324 7.29063 11.324 9.79688V12H8.78494V14.8906H11.324V21.8785C6.54354 21.1285 2.88651 16.9914 2.88651 12C2.88651 6.47734 7.36385 2 12.8865 2C18.4092 2 22.8865 6.47734 22.8865 12Z" fill="#1877F2"/>
<path d="M16.7791 14.8906L17.2224 12H14.449V10.1242C14.449 9.33336 14.8364 8.5625 16.0787 8.5625H17.3396V6.10156C17.3396 6.10156 16.1953 5.90625 15.1012 5.90625C12.8169 5.90625 11.324 7.29063 11.324 9.79688V12H8.78494V14.8906H11.324V21.8785C11.8331 21.9584 12.3549 22 12.8865 22C13.4181 22 13.9399 21.9584 14.449 21.8785V14.8906H16.7791Z" fill="white"/>
</svg>
